<?xml version="1.0" encoding="UTF-8" standalone="no"?>
<!DOCTYPE svg PUBLIC "-//W3C//DTD SVG 1.1//EN"
"http://www.w3.org/Graphics/SVG/1.1/DTD/svg11.dtd">


<!-- Page 1 -->
<svg x="0" y="0" width="822" height="606" viewBox="0 0 822 606" version="1.1" xmlns="http://www.w3.org/2000/svg" xmlns:xlink="http://www.w3.org/1999/xlink"
style="display: block;margin-left: auto;margin-right: auto;">
<defs>
<clipPath id="c0_1"><path d="M0,606.3V0H822.8V606.3Z" /></clipPath>

<style type="text/css"><![CDATA[
text { white-space: pre; }
path, image { pointer-events: none; }
text::-moz-selection {
	color: transparent;
	background: rgba(0, 106, 173, 0.4);
}
text::selection {
	color: transparent;
	background: rgba(0, 106, 173, 0.4);
}

.s1_1{
font-size: 21.52px;
font-family: Carlito_9;
fill: TRANSPARENT;
}
.s2_1{
font-size: 14.38px;
font-family: Carlito_9;
fill: TRANSPARENT;
}

.g0_1{
fill: #FFFFFF;
}
.g1_1{
fill: none;
stroke: #000000;
stroke-width: 1.5157236;
stroke-linecap: butt;
stroke-linejoin: miter;
stroke-miterlimit: 7;
}
.g2_1{
fill: #4472C4;
}
.g3_1{
fill: none;
stroke: #325490;
stroke-width: 1.5157236;
stroke-linecap: butt;
stroke-linejoin: miter;
stroke-miterlimit: 7;
}
.g4_1{
fill: none;
stroke: #A5A5A5;
stroke-width: 9.180951;
stroke-linecap: butt;
stroke-linejoin: miter;
}
.g5_1{
fill: #A5A5A5;
}
.g6_1{
fill: #ED7D31;
}
.g7_1{
fill: none;
stroke: #AF5C24;
stroke-width: 1.5157236;
stroke-linecap: butt;
stroke-linejoin: miter;
stroke-miterlimit: 7;
}
.g8_1{
fill: none;
stroke: #4472C4;
stroke-width: 9.180951;
stroke-linecap: butt;
stroke-linejoin: miter;
}
.g9_1{
fill: none;
stroke: #ED7D31;
stroke-width: 9.180951;
stroke-linecap: butt;
stroke-linejoin: miter;
}
.g10_1{
fill: #70AD47;
}
.g11_1{
fill: none;
stroke: #527F34;
stroke-width: 1.5157236;
stroke-linecap: butt;
stroke-linejoin: miter;
stroke-miterlimit: 7;
}
.g12_1{
fill: #FFC000;
}
.g13_1{
fill: none;
stroke: #BC8E00;
stroke-width: 1.5157236;
stroke-linecap: butt;
stroke-linejoin: miter;
stroke-miterlimit: 7;
}
.g14_1{
fill: none;
stroke: #FFC000;
stroke-width: 9.180951;
stroke-linecap: butt;
stroke-linejoin: miter;
}
.g15_1{
fill: none;
stroke: #70AD47;
stroke-width: 9.180951;
stroke-linecap: butt;
stroke-linejoin: miter;
}
.g16_1{
fill: none;
stroke: #7A7A7A;
stroke-width: 1.5157236;
stroke-linecap: butt;
stroke-linejoin: miter;
stroke-miterlimit: 7;
}

]]></style>

</defs>
<path d="M0,0
L0,606
L822,606
L822,0 Z " 
fill="#FFFFFF" stroke="none" />
<g clip-path="url(#c0_1)">
<path fill-rule="evenodd" d="M0,0H822.8V606.3H0V0Z" class="g0_1" />
<path fill-rule="evenodd" d="M0,0H822.9V606.3H0V0Z" class="g0_1" />
</g>
<path fill-rule="evenodd" d="M512.2,54.3V53.2l.1,-1.1l.2,-1l.2,-1.1l.2,-1.1l.3,-1l.4,-1.1l.4,-1l.5,-1l.5,-.9l.6,-1l.6,-.8l.6,-.9l.8,-.9l.7,-.8l.8,-.7l.8,-.7l.9,-.7l.9,-.6l.9,-.6l1,-.5l1,-.4l1,-.5l1,-.3l1.1,-.4l1,-.2l1.1,-.2l1.1,-.1l1.1,-.1l1.1,-.1H696.9l1,.1l1.1,.1l1.1,.1l1.1,.2l1.1,.2l1,.4l1,.3l1,.5l1,.4l1,.5l.9,.6l.9,.6l.9,.7l.8,.7l.8,.7l.8,.8l.7,.9l.6,.9l.7,.8l.5,1l.5,.9l.5,1l.4,1l.4,1.1l.3,1l.3,1.1l.2,1.1l.1,1l.1,1.1v1.1l.1,83.5l-.1,1l-.1,1.1l-.1,1.1l-.2,1.1l-.2,1.1l-.4,1l-.3,1.1l-.4,.9l-.5,1l-.5,1l-.6,1l-.6,.8l-.7,.9l-.7,.8l-.7,.8l-.8,.8l-.9,.7l-.8,.7l-.9,.6l-1,.5l-.9,.5l-1,.5l-1,.4l-1,.4l-1.1,.3l-1.1,.3l-1.1,.2l-1,.1l-1.1,.1h-1.1l-163.8,.1l-1.1,-.1l-1.1,-.1l-1.1,-.1l-1.1,-.2l-1,-.2l-1.1,-.4l-1,-.3l-1,-.4l-1,-.5l-1,-.5l-.9,-.6l-.9,-.6l-.9,-.7l-.8,-.7l-.8,-.7l-.7,-.8l-.8,-.9l-.6,-.8l-.6,-.9l-.6,-1l-.5,-.9l-.5,-1l-.4,-1l-.4,-1l-.3,-1.1l-.2,-1.1l-.2,-1l-.2,-1.1l-.1,-1.1V54.3Z" class="g0_1" />
<path d="M512.2,54.3V53.2l.1,-1.1l.2,-1l.2,-1.1l.2,-1.1l.3,-1l.4,-1.1l.4,-1l.5,-1l.5,-.9l.6,-1l.6,-.8l.6,-.9l.8,-.9l.7,-.8l.8,-.7l.8,-.7l.9,-.7l.9,-.6l.9,-.6l1,-.5l1,-.4l1,-.5l1,-.3l1.1,-.4l1,-.2l1.1,-.2l1.1,-.1l1.1,-.1l1.1,-.1H696.9l1,.1l1.1,.1l1.1,.1l1.1,.2l1.1,.2l1,.4l1,.3l1,.5l1,.4l1,.5l.9,.6l.9,.6l.9,.7l.8,.7l.8,.7l.8,.8l.7,.9l.6,.9l.7,.8l.5,1l.5,.9l.5,1l.4,1l.4,1.1l.3,1l.3,1.1l.2,1.1l.1,1l.1,1.1v1.1l.1,83.5l-.1,1l-.1,1.1l-.1,1.1l-.2,1.1l-.2,1.1l-.4,1l-.3,1.1l-.4,.9l-.5,1l-.5,1l-.6,1l-.6,.8l-.7,.9l-.7,.8l-.7,.8l-.8,.8l-.9,.7l-.8,.7l-.9,.6l-1,.5l-.9,.5l-1,.5l-1,.4l-1,.4l-1.1,.3l-1.1,.3l-1.1,.2l-1,.1l-1.1,.1h-1.1l-163.8,.1l-1.1,-.1l-1.1,-.1l-1.1,-.1l-1.1,-.2l-1,-.2l-1.1,-.4l-1,-.3l-1,-.4l-1,-.5l-1,-.5l-.9,-.6l-.9,-.6l-.9,-.7l-.8,-.7l-.8,-.7l-.7,-.8l-.8,-.9l-.6,-.8l-.6,-.9l-.6,-1l-.5,-.9l-.5,-1l-.4,-1l-.4,-1l-.3,-1.1l-.2,-1.1l-.2,-1l-.2,-1.1l-.1,-1.1V54.3Z" class="g1_1" />
<path fill-rule="evenodd" d="M202.8,148v-.7l.1,-.6l.1,-.7l.1,-.7l.1,-.7l.3,-.6l.2,-.7l.2,-.6l.3,-.6l.3,-.6l.4,-.5l.4,-.6l.4,-.6l.4,-.5l.5,-.5l.5,-.4l.5,-.5l.6,-.4l.5,-.4l.6,-.3l.6,-.3l.6,-.3l.6,-.3l.7,-.2l.6,-.2l.7,-.2l.7,-.1l.7,-.1l.6,-.1H523.6l.7,.1l.7,.1l.6,.1l.7,.2l.7,.2l.6,.2l.6,.3l.6,.3l.6,.3l.6,.3l.6,.4l.5,.4l.5,.5l.5,.4l.5,.5l.4,.5l.5,.6l.3,.6l.4,.5l.3,.6l.3,.6l.3,.6l.2,.7l.2,.6l.1,.7l.2,.7v.7l.1,.6v.7l.1,52v.7l-.1,.7l-.1,.7l-.1,.6l-.2,.7l-.2,.7l-.2,.6l-.3,.6l-.3,.6l-.3,.6l-.3,.6l-.4,.6l-.4,.5l-.5,.5l-.4,.5l-.5,.5l-.5,.4l-.6,.5l-.6,.4l-.5,.3l-.6,.3l-.6,.3l-.6,.3l-.7,.2l-.6,.2l-.7,.1l-.7,.2h-.7l-.6,.1H523l-307.2,.1h-.7l-.6,-.1l-.7,-.1l-.7,-.1l-.7,-.2l-.6,-.2l-.7,-.2l-.6,-.3l-.6,-.3l-.6,-.3l-.6,-.3l-.5,-.4l-.6,-.4l-.5,-.5l-.5,-.4l-.5,-.5l-.4,-.5l-.4,-.6l-.4,-.6l-.4,-.5l-.3,-.6l-.3,-.6l-.2,-.6l-.2,-.7l-.3,-.6l-.1,-.7l-.1,-.7l-.1,-.7l-.1,-.6V148Z" class="g0_1" />
<path d="M202.8,148v-.7l.1,-.6l.1,-.7l.1,-.7l.1,-.7l.3,-.6l.2,-.7l.2,-.6l.3,-.6l.3,-.6l.4,-.5l.4,-.6l.4,-.6l.4,-.5l.5,-.5l.5,-.4l.5,-.5l.6,-.4l.5,-.4l.6,-.3l.6,-.3l.6,-.3l.6,-.3l.7,-.2l.6,-.2l.7,-.2l.7,-.1l.7,-.1l.6,-.1H523.6l.7,.1l.7,.1l.6,.1l.7,.2l.7,.2l.6,.2l.6,.3l.6,.3l.6,.3l.6,.3l.6,.4l.5,.4l.5,.5l.5,.4l.5,.5l.4,.5l.5,.6l.3,.6l.4,.5l.3,.6l.3,.6l.3,.6l.2,.7l.2,.6l.1,.7l.2,.7v.7l.1,.6v.7l.1,52v.7l-.1,.7l-.1,.7l-.1,.6l-.2,.7l-.2,.7l-.2,.6l-.3,.6l-.3,.6l-.3,.6l-.3,.6l-.4,.6l-.4,.5l-.5,.5l-.4,.5l-.5,.5l-.5,.4l-.6,.5l-.6,.4l-.5,.3l-.6,.3l-.6,.3l-.6,.3l-.7,.2l-.6,.2l-.7,.1l-.7,.2h-.7l-.6,.1H523l-307.2,.1h-.7l-.6,-.1l-.7,-.1l-.7,-.1l-.7,-.2l-.6,-.2l-.7,-.2l-.6,-.3l-.6,-.3l-.6,-.3l-.6,-.3l-.5,-.4l-.6,-.4l-.5,-.5l-.5,-.4l-.5,-.5l-.4,-.5l-.4,-.6l-.4,-.6l-.4,-.5l-.3,-.6l-.3,-.6l-.2,-.6l-.2,-.7l-.3,-.6l-.1,-.7l-.1,-.7l-.1,-.7l-.1,-.6V148Z" class="g1_1" />
<path fill-rule="evenodd" d="M30.6,264l.1,-.9v-.9l.1,-.9l.2,-.8l.2,-.9l.2,-.8l.3,-.9l.4,-.8l.3,-.8l.5,-.8l.4,-.7l.5,-.8l.6,-.7l.5,-.6l.7,-.7l.6,-.6l.7,-.5l.6,-.6l.8,-.5l.8,-.4l.7,-.5l.8,-.3l.8,-.4l.9,-.3l.8,-.2l.9,-.2l.8,-.2l.9,-.1h.9l.9,-.1h88.4l.9,.1h.9l.9,.1l.8,.2l.9,.2l.8,.2l.9,.3l.8,.4l.8,.3l.8,.5l.7,.4l.8,.5l.7,.6l.6,.5l.7,.6l.6,.7l.5,.6l.6,.7l.5,.8l.4,.8l.5,.7l.3,.8l.4,.8l.3,.9l.2,.8l.2,.9l.2,.8l.1,.9v.9l.1,.9v67.5l-.1,.9v.9l-.1,.9l-.2,.8l-.2,.9l-.2,.8l-.3,.8l-.4,.9l-.3,.7l-.5,.8l-.4,.8l-.5,.7l-.5,.7l-.6,.7l-.6,.6l-.7,.6l-.6,.6l-.7,.5l-.8,.5l-.7,.5l-.8,.4l-.8,.4l-.8,.3l-.8,.3l-.9,.3l-.8,.2l-.9,.1l-.8,.2h-.9l-.9,.1H47.5l-.9,-.1h-.9l-.9,-.2L44,348l-.9,-.2l-.8,-.3l-.9,-.3l-.8,-.3l-.8,-.4l-.7,-.4l-.8,-.5l-.7,-.4l-.7,-.6l-.7,-.6l-.6,-.6l-.7,-.6l-.5,-.7l-.5,-.7l-.6,-.7l-.4,-.7l-.4,-.8l-.4,-.8l-.4,-.8l-.3,-.8l-.2,-.9l-.2,-.8l-.2,-.9l-.1,-.9v-.9l-.1,-.8V264Z" class="g2_1" />
<path d="M30.6,264l.1,-.9v-.9l.1,-.9l.2,-.8l.2,-.9l.2,-.8l.3,-.9l.4,-.8l.3,-.8l.5,-.8l.4,-.7l.5,-.8l.6,-.7l.5,-.6l.7,-.7l.6,-.6l.7,-.5l.6,-.6l.8,-.5l.8,-.4l.7,-.5l.8,-.3l.8,-.4l.9,-.3l.8,-.2l.9,-.2l.8,-.2l.9,-.1h.9l.9,-.1h88.4l.9,.1h.9l.9,.1l.8,.2l.9,.2l.8,.2l.9,.3l.8,.4l.8,.3l.8,.5l.7,.4l.8,.5l.7,.6l.6,.5l.7,.6l.6,.7l.5,.6l.6,.7l.5,.8l.4,.8l.5,.7l.3,.8l.4,.8l.3,.9l.2,.8l.2,.9l.2,.8l.1,.9v.9l.1,.9v67.5l-.1,.9v.9l-.1,.9l-.2,.8l-.2,.9l-.2,.8l-.3,.8l-.4,.9l-.3,.7l-.5,.8l-.4,.8l-.5,.7l-.5,.7l-.6,.7l-.6,.6l-.7,.6l-.6,.6l-.7,.5l-.8,.5l-.7,.5l-.8,.4l-.8,.4l-.8,.3l-.8,.3l-.9,.3l-.8,.2l-.9,.1l-.8,.2h-.9l-.9,.1H47.5l-.9,-.1h-.9l-.9,-.2L44,348l-.9,-.2l-.8,-.3l-.9,-.3l-.8,-.3l-.8,-.4l-.7,-.4l-.8,-.5l-.7,-.4l-.7,-.6l-.7,-.6l-.6,-.6l-.7,-.6l-.5,-.7l-.5,-.7l-.6,-.7l-.4,-.7l-.4,-.8l-.4,-.8l-.4,-.8l-.3,-.8l-.2,-.9l-.2,-.8l-.2,-.9l-.1,-.9v-.9l-.1,-.8V264Z" class="g3_1" />
<path d="M578.7,292.2l.1,109.7" class="g4_1" />
<path fill-rule="evenodd" d="M578.8,427.6L565,400.1h27.6l-13.8,27.5Z" class="g5_1" />
<path fill-rule="evenodd" d="M47.5,280.9l.1,-.9v-.9l.1,-.9l.2,-.8l.2,-.9l.2,-.8l.3,-.8L49,274l.3,-.8l.5,-.8l.4,-.7l.5,-.7l.6,-.7l.5,-.7l.6,-.6l.7,-.6l.6,-.6l.7,-.6l.8,-.4l.8,-.5l.7,-.4l.8,-.4l.8,-.3l.9,-.3l.8,-.3l.8,-.2l.9,-.1l.9,-.2h.9l.9,-.1h90l.9,.1h.9l.9,.2l.8,.1l.9,.2l.8,.3l.9,.3l.8,.3l.8,.4l.8,.4l.7,.5l.8,.4l.6,.6l.7,.6l.6,.6l.6,.6l.6,.7l.6,.7l.5,.7l.4,.8l.5,.7l.3,.8l.4,.9l.3,.8l.2,.8l.2,.9l.2,.8l.1,.9v.9l.1,.9v67.6l-.1,.8v.9l-.1,.9l-.2,.9l-.2,.8l-.2,.8l-.3,.9l-.4,.8l-.3,.8l-.5,.8l-.4,.7l-.5,.7l-.5,.7l-.7,.7l-.6,.7l-.6,.6l-.7,.5l-.6,.5l-.8,.6l-.7,.4l-.8,.4l-.8,.4l-.8,.4l-.8,.3l-.9,.2l-.8,.2l-.9,.2l-.8,.1l-1,.1H63.5l-.9,-.1l-.9,-.1l-.9,-.1l-.8,-.3l-.8,-.2l-.9,-.3l-.8,-.4l-.8,-.3L56,363l-.8,-.4l-.7,-.5l-.7,-.5l-.7,-.6l-.7,-.6l-.6,-.6l-.5,-.7l-.5,-.7l-.6,-.8l-.4,-.7l-.4,-.8l-.4,-.8l-.4,-.8l-.3,-.8l-.2,-.9l-.2,-.8l-.2,-.9l-.1,-.8v-.9l-.1,-.9V280.9Z" class="g2_1" />
<path d="M47.5,280.9l.1,-.9v-.9l.1,-.9l.2,-.8l.2,-.9l.2,-.8l.3,-.8L49,274l.3,-.8l.5,-.8l.4,-.7l.5,-.7l.6,-.7l.5,-.7l.6,-.6l.7,-.6l.6,-.6l.7,-.6l.8,-.4l.8,-.5l.7,-.4l.8,-.4l.8,-.3l.9,-.3l.8,-.3l.8,-.2l.9,-.1l.9,-.2h.9l.9,-.1h90l.9,.1h.9l.9,.2l.8,.1l.9,.2l.8,.3l.9,.3l.8,.3l.8,.4l.8,.4l.7,.5l.8,.4l.6,.6l.7,.6l.6,.6l.6,.6l.6,.7l.6,.7l.5,.7l.4,.8l.5,.7l.3,.8l.4,.9l.3,.8l.2,.8l.2,.9l.2,.8l.1,.9v.9l.1,.9v67.6l-.1,.8v.9l-.1,.9l-.2,.9l-.2,.8l-.2,.8l-.3,.9l-.4,.8l-.3,.8l-.5,.8l-.4,.7l-.5,.7l-.5,.7l-.7,.7l-.6,.7l-.6,.6l-.7,.5l-.6,.5l-.8,.6l-.7,.4l-.8,.4l-.8,.4l-.8,.4l-.8,.3l-.9,.2l-.8,.2l-.9,.2l-.8,.1l-1,.1H63.5l-.9,-.1l-.9,-.1l-.9,-.1l-.8,-.3l-.8,-.2l-.9,-.3l-.8,-.4l-.8,-.3L56,363l-.8,-.4l-.7,-.5l-.7,-.5l-.7,-.6l-.7,-.6l-.6,-.6l-.5,-.7l-.5,-.7l-.6,-.8l-.4,-.7l-.4,-.8l-.4,-.8l-.4,-.8l-.3,-.8l-.2,-.9l-.2,-.8l-.2,-.9l-.1,-.8v-.9l-.1,-.9V280.9Z" class="g3_1" />
<g clip-path="url(#c0_1)">
<g fill="#FFFFFF" >
<use xlink:href="#f0_2" transform="matrix(14.1,0,0,14.1,74.6,310.4)" />
<use xlink:href="#f0_3" transform="matrix(14.1,0,0,14.1,81.6,310.4)" />
<use xlink:href="#f0_4" transform="matrix(14.1,0,0,14.1,92.9,310.4)" />
<use xlink:href="#f0_5" transform="matrix(14.1,0,0,14.1,104,310.4)" />
<use xlink:href="#f0_6" transform="matrix(14.1,0,0,14.1,113.9,310.4)" />
<use xlink:href="#f0_7" transform="matrix(14.1,0,0,14.1,120.9,310.4)" />
<use xlink:href="#f0_8" transform="matrix(14.1,0,0,14.1,131.8,310.4)" />
<use xlink:href="#f0_a" transform="matrix(14.1,0,0,14.1,61.7,336.3)" />
</g>
</g>
<text x="74" y="310" dx="0,0.2,0,-0.2,0.2,-0.2,0.1,0" class="s1_1">Jupyter </text>
<g clip-path="url(#c0_1)">
<g fill="#FFFFFF" >
<use xlink:href="#f0_b" transform="matrix(14.1,0,0,14.1,75.6,336.3)" />
<use xlink:href="#f0_6" transform="matrix(14.1,0,0,14.1,87,336.3)" />
<use xlink:href="#f0_7" transform="matrix(14.1,0,0,14.1,93.9,336.3)" />
<use xlink:href="#f0_c" transform="matrix(14.1,0,0,14.1,104.7,336.3)" />
<use xlink:href="#f0_b" transform="matrix(14.1,0,0,14.1,116.1,336.3)" />
<use xlink:href="#f0_b" transform="matrix(14.1,0,0,14.1,127.4,336.3)" />
<use xlink:href="#f0_d" transform="matrix(14.1,0,0,14.1,138.7,336.3)" />
<use xlink:href="#f0_e" transform="matrix(14.1,0,0,14.1,148.5,336.3)" />
</g>
</g>
<text x="61" y="336" dx="0,0,0.1,-0.3,0.1,0.1,0,0,0" class="s1_1">Notebooks</text>
<path fill-rule="evenodd" d="M213.1,314.7l.1,-3.5l.3,-3.5l.4,-3.4l.7,-3.4l.8,-3.4l1,-3.3l1.2,-3.3l1.4,-3.3l1.5,-3.1l1.7,-3l1.9,-3l2,-2.9l2.2,-2.9l2.3,-2.6l2.5,-2.6l2.6,-2.5l2.7,-2.3l2.8,-2.2l3,-2l3.1,-1.9l3.1,-1.8l3.3,-1.6l3.3,-1.5l3.4,-1.3l3.5,-1.1l3.6,-.9l3.6,-.8l3.6,-.7l3.6,-.4l3.7,-.3h7.5l3.7,.3l3.8,.5l3.7,.7l3.7,.8l3.6,1l3.6,1.2l3.5,1.4l3.5,1.5l3.3,1.7l3.2,1.9l3.2,2l3,2.2l2.9,2.3l2.7,2.5l2.6,2.6l2.5,2.7l2.3,2.9l2.2,2.9l1.9,3.1l1.9,3.1l1.6,3.3l1.4,3.3l1.3,3.4l1.1,3.4l.9,3.5l.7,3.5l.5,3.6l.3,3.5l.1,3.6l-.1,3.6l-.3,3.6l-.5,3.5l-.7,3.6l-.9,3.4l-1.1,3.5l-1.2,3.4l-1.5,3.3l-1.6,3.2l-1.8,3.2l-2,3l-2.2,3l-2.3,2.8l-2.4,2.7l-2.7,2.6l-2.7,2.5l-2.9,2.4l-3,2.2l-3.2,2l-3.2,1.9l-3.3,1.6l-3.5,1.6l-3.5,1.4l-3.5,1.2l-3.7,1l-3.7,.8l-3.7,.7l-3.8,.4l-3.7,.4h-7.7l-3.7,-.4l-3.8,-.4l-3.7,-.7l-3.7,-.8l-3.7,-1l-3.5,-1.2l-3.5,-1.4l-3.5,-1.5L249.4,374l-3.2,-1.9l-3.2,-2l-3,-2.2l-2.9,-2.3l-2.8,-2.5l-2.6,-2.6l-2.4,-2.7l-2.4,-2.9L224.8,352l-2,-3.1L221,345.8l-1.6,-3.3l-1.5,-3.3l-1.3,-3.4l-1.1,-3.4l-.8,-3.5l-.7,-3.5l-.5,-3.6l-.3,-3.5l-.1,-3.6Z" class="g6_1" />
<path d="M213.1,314.7l.1,-3.5l.3,-3.5l.4,-3.4l.7,-3.4l.8,-3.4l1,-3.3l1.2,-3.3l1.4,-3.3l1.5,-3.1l1.7,-3l1.9,-3l2,-2.9l2.2,-2.9l2.3,-2.6l2.5,-2.6l2.6,-2.5l2.7,-2.3l2.8,-2.2l3,-2l3.1,-1.9l3.1,-1.8l3.3,-1.6l3.3,-1.5l3.4,-1.3l3.5,-1.1l3.6,-.9l3.6,-.8l3.6,-.7l3.6,-.4l3.7,-.3h7.5l3.7,.3l3.8,.5l3.7,.7l3.7,.8l3.6,1l3.6,1.2l3.5,1.4l3.5,1.5l3.3,1.7l3.2,1.9l3.2,2l3,2.2l2.9,2.3l2.7,2.5l2.6,2.6l2.5,2.7l2.3,2.9l2.2,2.9l1.9,3.1l1.9,3.1l1.6,3.3l1.4,3.3l1.3,3.4l1.1,3.4l.9,3.5l.7,3.5l.5,3.6l.3,3.5l.1,3.6l-.1,3.6l-.3,3.6l-.5,3.5l-.7,3.6l-.9,3.4l-1.1,3.5l-1.2,3.4l-1.5,3.3l-1.6,3.2l-1.8,3.2l-2,3l-2.2,3l-2.3,2.8l-2.4,2.7l-2.7,2.6l-2.7,2.5l-2.9,2.4l-3,2.2l-3.2,2l-3.2,1.9l-3.3,1.6l-3.5,1.6l-3.5,1.4l-3.5,1.2l-3.7,1l-3.7,.8l-3.7,.7l-3.8,.4l-3.7,.4h-7.7l-3.7,-.4l-3.8,-.4l-3.7,-.7l-3.7,-.8l-3.7,-1l-3.5,-1.2l-3.5,-1.4l-3.5,-1.5L249.4,374l-3.2,-1.9l-3.2,-2l-3,-2.2l-2.9,-2.3l-2.8,-2.5l-2.6,-2.6l-2.4,-2.7l-2.4,-2.9L224.8,352l-2,-3.1L221,345.8l-1.6,-3.3l-1.5,-3.3l-1.3,-3.4l-1.1,-3.4l-.8,-3.5l-.7,-3.5l-.5,-3.6l-.3,-3.5l-.1,-3.6Z" class="g7_1" />
<g clip-path="url(#c0_1)">
<g fill="#FFFFFF" >
<use xlink:href="#f0_f" transform="matrix(14.1,0,0,14.1,244.6,297.5)" />
<use xlink:href="#f0_7" transform="matrix(14.1,0,0,14.1,263,297.5)" />
<use xlink:href="#f0_8" transform="matrix(14.1,0,0,14.1,273.9,297.5)" />
<use xlink:href="#f0_g" transform="matrix(14.1,0,0,14.1,281.2,297.5)" />
<use xlink:href="#f0_7" transform="matrix(14.1,0,0,14.1,291.3,297.5)" />
<use xlink:href="#f0_h" transform="matrix(14.1,0,0,14.1,307,297.5)" />
<use xlink:href="#f0_i" transform="matrix(14.1,0,0,14.1,240.3,323.3)" />
</g>
</g>
<text x="244" y="297" dx="0,0.1,0.1,-0.2,0,0.1,0,0" class="s1_1">Merge &amp; </text>
<g clip-path="url(#c0_1)">
<g fill="#FFFFFF" >
<use xlink:href="#f0_4" transform="matrix(14.1,0,0,14.1,252.8,323.3)" />
<use xlink:href="#f0_4" transform="matrix(14.1,0,0,14.1,264.1,323.3)" />
<use xlink:href="#f0_j" transform="matrix(14.1,0,0,14.1,275.4,323.3)" />
<use xlink:href="#f0_5" transform="matrix(14.1,0,0,14.1,280.4,323.3)" />
<use xlink:href="#f0_k" transform="matrix(14.1,0,0,14.1,295.1,323.3)" />
<use xlink:href="#f0_8" transform="matrix(14.1,0,0,14.1,306.2,323.3)" />
<use xlink:href="#f0_7" transform="matrix(14.1,0,0,14.1,313.5,323.3)" />
<use xlink:href="#f0_l" transform="matrix(14.1,0,0,14.1,324.3,323.3)" />
<use xlink:href="#f0_k" transform="matrix(14.1,0,0,14.1,238.9,349.3)" />
</g>
</g>
<text x="240" y="323" dx="0,0.1,0,0,0.1,-0.1,0.2,0,-0.2,0.1" class="s1_1">Apply Pre-</text>
<g clip-path="url(#c0_1)">
<g fill="#FFFFFF" >
<use xlink:href="#f0_8" transform="matrix(14.1,0,0,14.1,250.1,349.3)" />
<use xlink:href="#f0_b" transform="matrix(14.1,0,0,14.1,257.2,349.3)" />
<use xlink:href="#f0_m" transform="matrix(14.1,0,0,14.1,268.5,349.3)" />
<use xlink:href="#f0_7" transform="matrix(14.1,0,0,14.1,277.7,349.3)" />
<use xlink:href="#f0_e" transform="matrix(14.1,0,0,14.1,288.5,349.3)" />
<use xlink:href="#f0_e" transform="matrix(14.1,0,0,14.1,296.9,349.3)" />
<use xlink:href="#f0_b" transform="matrix(14.1,0,0,14.1,305.4,349.3)" />
<use xlink:href="#f0_8" transform="matrix(14.1,0,0,14.1,316.7,349.3)" />
<use xlink:href="#f0_e" transform="matrix(14.1,0,0,14.1,323.9,349.3)" />
</g>
</g>
<text x="238" y="349" dx="0,0,-0.3,0,0.1,0.1,0,0.1,0,-0.3" class="s1_1">Processors</text>
<path fill-rule="evenodd" d="M400.1,265.7l.1,-1v-1l.2,-1l.1,-1l.3,-1l.3,-1l.3,-1l.4,-.9l.4,-.9l.6,-1l.5,-.8l.5,-.9l.7,-.8l.6,-.7l.7,-.8l.8,-.7l.8,-.7l.8,-.6l.8,-.6l.9,-.5l.9,-.5l.9,-.5l1,-.3l.9,-.4l1,-.3l1,-.2l1,-.2l1.1,-.2h82.5l1,.2l1,.2l1,.2l1,.3l.9,.4l1,.3l.9,.5l.9,.5l.9,.5l.8,.6l.8,.6l.8,.7l.8,.7l.7,.8l.6,.7l.7,.8l.5,.9l.6,.8l.5,1l.4,.9l.4,.9l.3,1l.3,1l.3,1l.1,1l.2,1v1l.1,1v97.9l-.1,1v1l-.2,1l-.1,1l-.3,1l-.3,1l-.3,1l-.4,.9l-.4,.9l-.5,1l-.6,.8l-.5,.8l-.6,.9l-.7,.7l-.7,.8l-.8,.7l-.7,.7l-.9,.6l-.8,.6l-.9,.5l-.9,.5l-.9,.5l-.9,.3l-1,.4l-1,.2l-1,.3l-1,.2l-1,.1l-1,.1h-1l-78.5,.1v-.1h-2l-1.1,-.2l-1,-.2l-1,-.2l-.9,-.3l-1,-.4l-1,-.3l-.9,-.5l-.9,-.5L409,380l-.8,-.6l-.8,-.6l-.8,-.7l-.7,-.7l-.8,-.7l-.6,-.8l-.6,-.8l-.6,-.8l-.5,-.9l-.5,-.9l-.5,-.9l-.4,-1l-.3,-1l-.3,-.9l-.3,-1l-.1,-1l-.2,-1.1v-1l-.1,-1V265.7Z" class="g2_1" />
<path d="M400.1,265.7l.1,-1v-1l.2,-1l.1,-1l.3,-1l.3,-1l.3,-1l.4,-.9l.4,-.9l.6,-1l.5,-.8l.5,-.9l.7,-.8l.6,-.7l.7,-.8l.8,-.7l.8,-.7l.8,-.6l.8,-.6l.9,-.5l.9,-.5l.9,-.5l1,-.3l.9,-.4l1,-.3l1,-.2l1,-.2l1.1,-.2h82.5l1,.2l1,.2l1,.2l1,.3l.9,.4l1,.3l.9,.5l.9,.5l.9,.5l.8,.6l.8,.6l.8,.7l.8,.7l.7,.8l.6,.7l.7,.8l.5,.9l.6,.8l.5,1l.4,.9l.4,.9l.3,1l.3,1l.3,1l.1,1l.2,1v1l.1,1v97.9l-.1,1v1l-.2,1l-.1,1l-.3,1l-.3,1l-.3,1l-.4,.9l-.4,.9l-.5,1l-.6,.8l-.5,.8l-.6,.9l-.7,.7l-.7,.8l-.8,.7l-.7,.7l-.9,.6l-.8,.6l-.9,.5l-.9,.5l-.9,.5l-.9,.3l-1,.4l-1,.2l-1,.3l-1,.2l-1,.1l-1,.1h-1l-78.5,.1v-.1h-2l-1.1,-.2l-1,-.2l-1,-.2l-.9,-.3l-1,-.4l-1,-.3l-.9,-.5l-.9,-.5L409,380l-.8,-.6l-.8,-.6l-.8,-.7l-.7,-.7l-.8,-.7l-.6,-.8l-.6,-.8l-.6,-.8l-.5,-.9l-.5,-.9l-.5,-.9l-.4,-1l-.3,-1l-.3,-.9l-.3,-1l-.1,-1l-.2,-1.1v-1l-.1,-1V265.7Z" class="g3_1" />
<g clip-path="url(#c0_1)">
<g fill="#FFFFFF" >
<use xlink:href="#f0_f" transform="matrix(14.1,0,0,14.1,419.1,297.5)" />
<use xlink:href="#f0_b" transform="matrix(14.1,0,0,14.1,437.5,297.5)" />
<use xlink:href="#f0_n" transform="matrix(14.1,0,0,14.1,448.8,297.5)" />
<use xlink:href="#f0_o" transform="matrix(14.1,0,0,14.1,460.3,297.5)" />
<use xlink:href="#f0_s" transform="matrix(14.1,0,0,14.1,465.1,297.5)" />
<use xlink:href="#f0_7" transform="matrix(14.1,0,0,14.1,476.6,297.5)" />
<use xlink:href="#f0_n" transform="matrix(14.1,0,0,14.1,487.2,297.5)" />
<use xlink:href="#f0_2" transform="matrix(14.1,0,0,14.1,424.1,323.3)" />
</g>
</g>
<text x="419" y="297" dx="0,0.1,0,0.1,0,0,0,0" class="s1_1">Modified</text>
<g clip-path="url(#c0_1)">
<g fill="#FFFFFF" >
<use xlink:href="#f0_3" transform="matrix(14.1,0,0,14.1,431,323.3)" />
<use xlink:href="#f0_4" transform="matrix(14.1,0,0,14.1,442.4,323.3)" />
<use xlink:href="#f0_5" transform="matrix(14.1,0,0,14.1,453.5,323.3)" />
<use xlink:href="#f0_6" transform="matrix(14.1,0,0,14.1,463.4,323.3)" />
<use xlink:href="#f0_7" transform="matrix(14.1,0,0,14.1,470.3,323.3)" />
<use xlink:href="#f0_8" transform="matrix(14.1,0,0,14.1,481.1,323.3)" />
<use xlink:href="#f0_a" transform="matrix(14.1,0,0,14.1,415.4,349.3)" />
</g>
</g>
<text x="424" y="323" dx="0,0,0.1,-0.2,0.2,-0.3,0.1,0" class="s1_1">Jupyter </text>
<g clip-path="url(#c0_1)">
<g fill="#FFFFFF" >
<use xlink:href="#f0_b" transform="matrix(14.1,0,0,14.1,429.3,349.3)" />
<use xlink:href="#f0_6" transform="matrix(14.1,0,0,14.1,440.6,349.3)" />
<use xlink:href="#f0_7" transform="matrix(14.1,0,0,14.1,447.6,349.3)" />
<use xlink:href="#f0_c" transform="matrix(14.1,0,0,14.1,458.4,349.3)" />
<use xlink:href="#f0_b" transform="matrix(14.1,0,0,14.1,469.7,349.3)" />
<use xlink:href="#f0_b" transform="matrix(14.1,0,0,14.1,481.2,349.3)" />
<use xlink:href="#f0_d" transform="matrix(14.1,0,0,14.1,492.5,349.3)" />
</g>
</g>
<text x="415" y="349" dx="0,0,0,-0.2,0.1,0,0.1,0" class="s1_1">Notebook</text>
<path fill-rule="evenodd" d="M559.6,477.9l.1,-3.7l.3,-3.8l.4,-3.6l.6,-3.7l.8,-3.6l1,-3.6l1.1,-3.5l1.3,-3.4l1.5,-3.4l1.7,-3.3l1.7,-3.1l2,-3.1l2.1,-2.9l2.2,-2.9l2.4,-2.6l2.4,-2.6l2.6,-2.4l2.8,-2.3l2.8,-2.1l2.9,-1.9l3,-1.8l3.1,-1.6l3.1,-1.5l3.3,-1.2l3.2,-1l3.4,-.9l3.3,-.7l3.4,-.5l3.4,-.3l3.5,-.1l3.4,.1l3.4,.3l3.4,.5l3.4,.7l3.3,.9l3.2,1l3.3,1.2l3.2,1.5l3,1.6l3.1,1.8l2.9,1.9l2.8,2.1l2.7,2.3l2.6,2.4l2.5,2.6l2.3,2.6l2.3,2.9l2,2.9l2,3.1l1.8,3.2l1.6,3.2l1.5,3.4l1.3,3.4l1.1,3.5l1,3.6l.8,3.6l.6,3.7l.5,3.6l.2,3.8l.1,3.7l-.1,3.7l-.3,3.7l-.5,3.7l-.6,3.7l-.7,3.6l-1,3.6l-1.2,3.5l-1.3,3.4l-1.4,3.4l-1.7,3.2l-1.8,3.2l-1.9,3l-2.1,3l-2.2,2.8l-2.4,2.7l-2.4,2.6l-2.6,2.4l-2.8,2.3l-2.8,2.1l-2.9,1.9l-3,1.8l-3.1,1.6l-3.1,1.4l-3.3,1.3l-3.2,1l-3.3,.9l-3.4,.7l-3.4,.5l-3.4,.3L625,549v-.1l-3.5,-.1l-3.4,-.3l-3.4,-.4l-3.3,-.7l-3.3,-.9l-3.3,-1l-3.3,-1.3l-3.1,-1.4l-3.1,-1.6l-3,-1.8l-2.9,-2l-2.8,-2l-2.7,-2.3l-2.6,-2.4l-2.5,-2.6l-2.4,-2.7l-2.2,-2.8l-2.1,-3l-1.9,-3l-1.8,-3.2l-1.6,-3.2l-1.5,-3.4l-1.4,-3.4l-1.1,-3.5l-.9,-3.6l-.9,-3.6l-.6,-3.7l-.4,-3.7l-.3,-3.7l-.1,-3.7Z" class="g6_1" />
<path d="M559.6,477.9l.1,-3.7l.3,-3.8l.4,-3.6l.6,-3.7l.8,-3.6l1,-3.6l1.1,-3.5l1.3,-3.4l1.5,-3.4l1.7,-3.3l1.7,-3.1l2,-3.1l2.1,-2.9l2.2,-2.9l2.4,-2.6l2.4,-2.6l2.6,-2.4l2.8,-2.3l2.8,-2.1l2.9,-1.9l3,-1.8l3.1,-1.6l3.1,-1.5l3.3,-1.2l3.2,-1l3.4,-.9l3.3,-.7l3.4,-.5l3.4,-.3l3.5,-.1l3.4,.1l3.4,.3l3.4,.5l3.4,.7l3.3,.9l3.2,1l3.3,1.2l3.2,1.5l3,1.6l3.1,1.8l2.9,1.9l2.8,2.1l2.7,2.3l2.6,2.4l2.5,2.6l2.3,2.6l2.3,2.9l2,2.9l2,3.1l1.8,3.2l1.6,3.2l1.5,3.4l1.3,3.4l1.1,3.5l1,3.6l.8,3.6l.6,3.7l.5,3.6l.2,3.8l.1,3.7l-.1,3.7l-.3,3.7l-.5,3.7l-.6,3.7l-.7,3.6l-1,3.6l-1.2,3.5l-1.3,3.4l-1.4,3.4l-1.7,3.2l-1.8,3.2l-1.9,3l-2.1,3l-2.2,2.8l-2.4,2.7l-2.4,2.6l-2.6,2.4l-2.8,2.3l-2.8,2.1l-2.9,1.9l-3,1.8l-3.1,1.6l-3.1,1.4l-3.3,1.3l-3.2,1l-3.3,.9l-3.4,.7l-3.4,.5l-3.4,.3L625,549v-.1l-3.5,-.1l-3.4,-.3l-3.4,-.4l-3.3,-.7l-3.3,-.9l-3.3,-1l-3.3,-1.3l-3.1,-1.4l-3.1,-1.6l-3,-1.8l-2.9,-2l-2.8,-2l-2.7,-2.3l-2.6,-2.4l-2.5,-2.6l-2.4,-2.7l-2.2,-2.8l-2.1,-3l-1.9,-3l-1.8,-3.2l-1.6,-3.2l-1.5,-3.4l-1.4,-3.4l-1.1,-3.5l-.9,-3.6l-.9,-3.6l-.6,-3.7l-.4,-3.7l-.3,-3.7l-.1,-3.7Z" class="g7_1" />
<g clip-path="url(#c0_1)">
<g fill="#FFFFFF" >
<use xlink:href="#f0_i" transform="matrix(14.1,0,0,14.1,597.5,460.6)" />
<use xlink:href="#f0_4" transform="matrix(14.1,0,0,14.1,610,460.6)" />
<use xlink:href="#f0_4" transform="matrix(14.1,0,0,14.1,621.3,460.6)" />
<use xlink:href="#f0_j" transform="matrix(14.1,0,0,14.1,632.7,460.6)" />
<use xlink:href="#f0_5" transform="matrix(14.1,0,0,14.1,637.6,460.6)" />
<use xlink:href="#f0_2" transform="matrix(14.1,0,0,14.1,603,486.6)" />
</g>
</g>
<text x="597" y="460" dx="0,0.1,0,0.1,0,0" class="s1_1">Apply </text>
<g clip-path="url(#c0_1)">
<g fill="#FFFFFF" >
<use xlink:href="#f0_o" transform="matrix(14.1,0,0,14.1,610,486.6)" />
<use xlink:href="#f0_u" transform="matrix(14.1,0,0,14.1,614.9,486.6)" />
<use xlink:href="#f0_v" transform="matrix(14.1,0,0,14.1,626.3,486.6)" />
<use xlink:href="#f0_x" transform="matrix(14.1,0,0,14.1,631.4,486.6)" />
<use xlink:href="#f0_y" transform="matrix(14.1,0,0,14.1,584.5,512.4)" />
</g>
</g>
<text x="603" y="486" dx="0,0.2,0,0.1,-0.1,0.2" class="s1_1">Jinja </text>
<g clip-path="url(#c0_1)">
<g fill="#FFFFFF" >
<use xlink:href="#f0_7" transform="matrix(14.1,0,0,14.1,593.2,512.4)" />
<use xlink:href="#f0_z" transform="matrix(14.1,0,0,14.1,603.9,512.4)" />
<use xlink:href="#f0_4" transform="matrix(14.1,0,0,14.1,621.1,512.4)" />
<use xlink:href="#f0_j" transform="matrix(14.1,0,0,14.1,632.5,512.4)" />
<use xlink:href="#f0_x" transform="matrix(14.1,0,0,14.1,637.4,512.4)" />
<use xlink:href="#f0_6" transform="matrix(14.1,0,0,14.1,647.5,512.4)" />
<use xlink:href="#f0_7" transform="matrix(14.1,0,0,14.1,654.5,512.4)" />
</g>
</g>
<text x="584" y="512" dx="0,-1.8,0,0,0.1,0,-0.2,-0.2" class="s1_1">Template</text>
<path fill-rule="evenodd" d="M400.1,411.2v-.6l.1,-.7l.1,-.7l.1,-.7l.1,-.7l.3,-.6l.2,-.7l.2,-.6l.3,-.6l.4,-.7l.3,-.5l.4,-.6l.5,-.6l.4,-.5l.5,-.5l.5,-.5l.5,-.4l.6,-.5l.5,-.3l.6,-.4l.6,-.3l.7,-.3l.6,-.3l.7,-.2l.6,-.2l.7,-.2l.6,-.1l.7,-.1l.7,-.1h92.6l.7,.1l.7,.1l.6,.1l.7,.2l.7,.2l.6,.2l.7,.3l.6,.3l.6,.3l.6,.4l.5,.3l.6,.5l.5,.4l.5,.5l.5,.5l.4,.5l.5,.6l.4,.6l.3,.6l.4,.6l.3,.6l.2,.6l.2,.7l.3,.6l.1,.7l.1,.7l.1,.7l.1,.7v54.3l-.1,.7l-.1,.6l-.1,.7l-.1,.7l-.3,.6l-.2,.7l-.2,.6l-.3,.6l-.4,.6l-.3,.7l-.4,.5l-.5,.6l-.4,.5l-.5,.5l-.5,.5l-.5,.4l-.5,.4l-.6,.4l-.6,.4l-.6,.3l-.6,.3l-.7,.3l-.6,.2l-.7,.2l-.6,.2l-.7,.1l-.7,.1l-.7,.1H412.6l-.7,-.1l-.7,-.1l-.6,-.1l-.7,-.2l-.6,-.2l-.7,-.2l-.6,-.3l-.7,-.3l-.6,-.3l-.6,-.3l-.5,-.4l-.6,-.5l-.5,-.4l-.5,-.5l-.5,-.5l-.4,-.5l-.4,-.5l-.4,-.6l-.4,-.6l-.3,-.6l-.3,-.6l-.3,-.7l-.2,-.6l-.2,-.7l-.2,-.7l-.1,-.6l-.1,-.7l-.1,-.7V411.2Z" class="g2_1" />
<path d="M400.1,411.2v-.6l.1,-.7l.1,-.7l.1,-.7l.1,-.7l.3,-.6l.2,-.7l.2,-.6l.3,-.6l.4,-.7l.3,-.5l.4,-.6l.5,-.6l.4,-.5l.5,-.5l.5,-.5l.5,-.4l.6,-.5l.5,-.3l.6,-.4l.6,-.3l.7,-.3l.6,-.3l.7,-.2l.6,-.2l.7,-.2l.6,-.1l.7,-.1l.7,-.1h92.6l.7,.1l.7,.1l.6,.1l.7,.2l.7,.2l.6,.2l.7,.3l.6,.3l.6,.3l.6,.4l.5,.3l.6,.5l.5,.4l.5,.5l.5,.5l.4,.5l.5,.6l.4,.6l.3,.6l.4,.6l.3,.6l.2,.6l.2,.7l.3,.6l.1,.7l.1,.7l.1,.7l.1,.7v54.3l-.1,.7l-.1,.6l-.1,.7l-.1,.7l-.3,.6l-.2,.7l-.2,.6l-.3,.6l-.4,.6l-.3,.7l-.4,.5l-.5,.6l-.4,.5l-.5,.5l-.5,.5l-.5,.4l-.5,.4l-.6,.4l-.6,.4l-.6,.3l-.6,.3l-.7,.3l-.6,.2l-.7,.2l-.6,.2l-.7,.1l-.7,.1l-.7,.1H412.6l-.7,-.1l-.7,-.1l-.6,-.1l-.7,-.2l-.6,-.2l-.7,-.2l-.6,-.3l-.7,-.3l-.6,-.3l-.6,-.3l-.5,-.4l-.6,-.5l-.5,-.4l-.5,-.5l-.5,-.5l-.4,-.5l-.4,-.5l-.4,-.6l-.4,-.6l-.3,-.6l-.3,-.6l-.3,-.7l-.2,-.6l-.2,-.7l-.2,-.7l-.1,-.6l-.1,-.7l-.1,-.7V411.2Z" class="g3_1" />
<g clip-path="url(#c0_1)">
<g fill="#FFFFFF" >
<use xlink:href="#f0_y" transform="matrix(14.1,0,0,14.1,438.6,424.9)" />
<use xlink:href="#f0_7" transform="matrix(14.1,0,0,14.1,447.2,424.9)" />
<use xlink:href="#f0_10" transform="matrix(14.1,0,0,14.1,457.5,424.9)" />
<use xlink:href="#f0_6" transform="matrix(14.1,0,0,14.1,467,424.9)" />
<use xlink:href="#f0_11" transform="matrix(14.1,0,0,14.1,412.7,450.7)" />
</g>
</g>
<text x="438" y="424" dx="0,-1.9,-0.3,0.1,0.1" class="s1_1">Text </text>
<g clip-path="url(#c0_1)">
<g fill="#FFFFFF" >
<use xlink:href="#f0_x" transform="matrix(14.1,0,0,14.1,424.4,450.7)" />
<use xlink:href="#f0_e" transform="matrix(14.1,0,0,14.1,434.8,450.7)" />
<use xlink:href="#f0_7" transform="matrix(14.1,0,0,14.1,443.1,450.7)" />
<use xlink:href="#f0_n" transform="matrix(14.1,0,0,14.1,454,450.7)" />
<use xlink:href="#f0_12" transform="matrix(14.1,0,0,14.1,470.3,450.7)" />
<use xlink:href="#f0_o" transform="matrix(14.1,0,0,14.1,480.2,450.7)" />
<use xlink:href="#f0_j" transform="matrix(14.1,0,0,14.1,485.1,450.7)" />
<use xlink:href="#f0_7" transform="matrix(14.1,0,0,14.1,490.1,450.7)" />
<use xlink:href="#f0_13" transform="matrix(9.4,0,0,9.4,418.8,469.3)" />
</g>
</g>
<text x="412" y="450" dx="0,0,0,0,0.1,0,0.2,0,0,0.1,0" class="s1_1">Based File </text>
<g clip-path="url(#c0_1)">
<g fill="#FFFFFF" >
<use xlink:href="#f0_y" transform="matrix(9.4,0,0,9.4,423.2,469.3)" />
<use xlink:href="#f0_7" transform="matrix(9.4,0,0,9.4,428.9,469.3)" />
<use xlink:href="#f0_10" transform="matrix(9.4,0,0,9.4,435.9,469.3)" />
<use xlink:href="#f0_14" transform="matrix(9.4,0,0,9.4,442.2,469.3)" />
<use xlink:href="#f0_15" transform="matrix(9.4,0,0,9.4,449,469.3)" />
<use xlink:href="#f0_6" transform="matrix(9.4,0,0,9.4,458,469.3)" />
<use xlink:href="#f0_z" transform="matrix(9.4,0,0,9.4,462.8,469.3)" />
<use xlink:href="#f0_j" transform="matrix(9.4,0,0,9.4,474.4,469.3)" />
<use xlink:href="#f0_14" transform="matrix(9.4,0,0,9.4,477.6,469.3)" />
<use xlink:href="#f0_16" transform="matrix(9.4,0,0,9.4,484.6,469.3)" />
<use xlink:href="#f0_17" transform="matrix(9.4,0,0,9.4,494.7,469.3)" />
</g>
</g>
<text x="418" y="469" dx="0,0.1,-1.3,-0.1,0,-0.1,0.1,0.1,-0.1,0.1,-0.1,0.1,0.1,0.2" class="s2_1">(Tex, Html, …)</text>
<path fill-rule="evenodd" d="M209,476.7l.1,-3.4l.3,-3.5l.5,-3.5l.7,-3.3l.8,-3.4l1.1,-3.4l1.2,-3.2l1.4,-3.3l1.6,-3.2l1.7,-3l1.9,-3l2.1,-2.9l2.2,-2.8l2.4,-2.7l2.6,-2.6l2.7,-2.4l2.7,-2.3l3,-2.3l3,-2l3.2,-1.9l3.3,-1.8l3.3,-1.6l3.4,-1.4l3.5,-1.3l3.6,-1.1l3.7,-1l3.6,-.8l3.8,-.6l3.7,-.4l3.8,-.3l3.8,-.1l3.9,.1l3.9,.3l3.8,.4l3.9,.7l3.8,.9l3.7,.9l3.7,1.3l3.6,1.3l3.5,1.6l3.4,1.7l3.4,1.9l3.2,2l3.1,2.2l3,2.3l2.8,2.5l2.7,2.6l2.5,2.7l2.4,2.9l2.2,2.9l2.1,3l1.8,3.2l1.7,3.2l1.5,3.3l1.3,3.4l1.1,3.5l.9,3.4l.8,3.6l.4,3.5l.4,3.6l.1,3.6h-.1l-.1,3.6l-.3,3.5l-.5,3.6l-.7,3.5l-.9,3.5l-1.1,3.5l-1.3,3.3l-1.5,3.3l-1.7,3.3l-1.9,3.1l-2,3.1l-2.2,3l-2.4,2.8l-2.5,2.7l-2.7,2.6l-2.8,2.5l-3,2.3l-3.1,2.2l-3.2,2l-3.4,1.9l-3.4,1.7l-3.5,1.6l-3.6,1.3l-3.7,1.2l-3.7,1.1l-3.8,.8l-3.9,.6l-3.8,.5l-3.9,.3l-3.9,.1l-3.9,-.1l-3.9,-.3l-3.9,-.4l-3.8,-.7l-3.9,-.8l-3.7,-1l-3.7,-1.3l-3.6,-1.3l-3.5,-1.6L246.4,536L243,534.2l-3.2,-2.1L236.7,530l-3,-2.4l-2.8,-2.5l-2.7,-2.6l-2.5,-2.7L223.3,517l-2.2,-3L219,511l-1.8,-3.2l-1.7,-3.2L214,501.3l-1.3,-3.4l-1.1,-3.5l-.9,-3.4l-.7,-3.6l-.5,-3.5l-.4,-3.6l-.1,-3.6Z" class="g6_1" />
<path d="M209,476.7l.1,-3.4l.3,-3.5l.5,-3.5l.7,-3.3l.8,-3.4l1.1,-3.4l1.2,-3.2l1.4,-3.3l1.6,-3.2l1.7,-3l1.9,-3l2.1,-2.9l2.2,-2.8l2.4,-2.7l2.6,-2.6l2.7,-2.4l2.7,-2.3l3,-2.3l3,-2l3.2,-1.9l3.3,-1.8l3.3,-1.6l3.4,-1.4l3.5,-1.3l3.6,-1.1l3.7,-1l3.6,-.8l3.8,-.6l3.7,-.4l3.8,-.3l3.8,-.1l3.9,.1l3.9,.3l3.8,.4l3.9,.7l3.8,.9l3.7,.9l3.7,1.3l3.6,1.3l3.5,1.6l3.4,1.7l3.4,1.9l3.2,2l3.1,2.2l3,2.3l2.8,2.5l2.7,2.6l2.5,2.7l2.4,2.9l2.2,2.9l2.1,3l1.8,3.2l1.7,3.2l1.5,3.3l1.3,3.4l1.1,3.5l.9,3.4l.8,3.6l.4,3.5l.4,3.6l.1,3.6h-.1l-.1,3.6l-.3,3.5l-.5,3.6l-.7,3.5l-.9,3.5l-1.1,3.5l-1.3,3.3l-1.5,3.3l-1.7,3.3l-1.9,3.1l-2,3.1l-2.2,3l-2.4,2.8l-2.5,2.7l-2.7,2.6l-2.8,2.5l-3,2.3l-3.1,2.2l-3.2,2l-3.4,1.9l-3.4,1.7l-3.5,1.6l-3.6,1.3l-3.7,1.2l-3.7,1.1l-3.8,.8l-3.9,.6l-3.8,.5l-3.9,.3l-3.9,.1l-3.9,-.1l-3.9,-.3l-3.9,-.4l-3.8,-.7l-3.9,-.8l-3.7,-1l-3.7,-1.3l-3.6,-1.3l-3.5,-1.6L246.4,536L243,534.2l-3.2,-2.1L236.7,530l-3,-2.4l-2.8,-2.5l-2.7,-2.6l-2.5,-2.7L223.3,517l-2.2,-3L219,511l-1.8,-3.2l-1.7,-3.2L214,501.3l-1.3,-3.4l-1.1,-3.5l-.9,-3.4l-.7,-3.6l-.5,-3.5l-.4,-3.6l-.1,-3.6Z" class="g7_1" />
<g clip-path="url(#c0_1)">
<g fill="#FFFFFF" >
<use xlink:href="#f0_18" transform="matrix(14.1,0,0,14.1,256.1,472.4)" />
<use xlink:href="#f0_x" transform="matrix(14.1,0,0,14.1,265.2,472.4)" />
<use xlink:href="#f0_y" transform="matrix(14.1,0,0,14.1,275.7,472.4)" />
<use xlink:href="#f0_7" transform="matrix(14.1,0,0,14.1,284.3,472.4)" />
<use xlink:href="#f0_19" transform="matrix(14.1,0,0,14.1,295.1,472.4)" />
<use xlink:href="#f0_1a" transform="matrix(14.1,0,0,14.1,235,498.4)" />
</g>
</g>
<text x="256" y="472" dx="0,0.1,0.2,-1.9,0.1,0" class="s1_1">LaTeX </text>
<g clip-path="url(#c0_1)">
<g fill="#FFFFFF" >
<use xlink:href="#f0_b" transform="matrix(14.1,0,0,14.1,246.4,498.4)" />
<use xlink:href="#f0_u" transform="matrix(14.1,0,0,14.1,257.7,498.4)" />
<use xlink:href="#f0_1b" transform="matrix(14.1,0,0,14.1,268.7,498.4)" />
<use xlink:href="#f0_7" transform="matrix(14.1,0,0,14.1,278.4,498.4)" />
<use xlink:href="#f0_8" transform="matrix(14.1,0,0,14.1,289.2,498.4)" />
<use xlink:href="#f0_e" transform="matrix(14.1,0,0,14.1,296.2,498.4)" />
<use xlink:href="#f0_o" transform="matrix(14.1,0,0,14.1,304.7,498.4)" />
<use xlink:href="#f0_b" transform="matrix(14.1,0,0,14.1,309.6,498.4)" />
<use xlink:href="#f0_u" transform="matrix(14.1,0,0,14.1,321,498.4)" />
</g>
</g>
<text x="234" y="498" dx="0,0,0,-0.3,-0.1,0.1,-0.5,0.1,0,0.1" class="s1_1">Conversion</text>
<path fill-rule="evenodd" d="M47.5,428.8l.1,-1.1v-1l.2,-1.1l.1,-1.1l.3,-1l.3,-1l.4,-1.1l.4,-1l.5,-.9l.5,-1l.5,-.9l.6,-.9l.7,-.9l.7,-.8l.7,-.8l.8,-.7l.8,-.7l.9,-.6l.9,-.7l.9,-.5l1,-.5l.9,-.5l1,-.4l1.1,-.4l1,-.3l1,-.3l1.1,-.1l1.1,-.2h1l1.1,-.1h82.6l1,.1h1.1l1.1,.2l1.1,.1l1,.3l1,.3l1.1,.4l1,.4l.9,.5l1,.5l.9,.5l.9,.7l.9,.6l.8,.7l.8,.7l.7,.8l.7,.8l.6,.9l.6,.9l.6,.9l.5,1l.5,.9l.4,1l.4,1.1l.3,1l.2,1l.2,1.1l.1,1.1l.1,1l.1,1.1v95.8l-.1,1.1l-.1,1l-.1,1.1l-.2,1.1l-.2,1l-.3,1l-.4,1l-.4,1l-.5,1l-.5,1l-.6,.9l-.6,.9l-.6,.8l-.7,.9l-.7,.7l-.8,.8l-.8,.7l-.9,.7l-.9,.6l-.9,.5l-.9,.5l-1,.5l-1,.4l-1,.4l-1.1,.3l-1,.2l-1.1,.2l-1,.2l-1.1,.1H67l-1,-.1l-1.1,-.2l-1.1,-.1l-1,-.3l-1,-.3l-1,-.4l-1,-.4l-1,-.5l-1,-.5l-.9,-.5l-.9,-.6l-.8,-.7l-.8,-.7l-.8,-.7l-.8,-.8l-.7,-.8l-.7,-.9l-.6,-.9l-.5,-.9l-.5,-.9l-.5,-1l-.4,-1l-.4,-1l-.3,-1L48,528.9l-.2,-1.1l-.2,-1v-1.1l-.1,-1.1V428.8Z" class="g2_1" />
<path d="M47.5,428.8l.1,-1.1v-1l.2,-1.1l.1,-1.1l.3,-1l.3,-1l.4,-1.1l.4,-1l.5,-.9l.5,-1l.5,-.9l.6,-.9l.7,-.9l.7,-.8l.7,-.8l.8,-.7l.8,-.7l.9,-.6l.9,-.7l.9,-.5l1,-.5l.9,-.5l1,-.4l1.1,-.4l1,-.3l1,-.3l1.1,-.1l1.1,-.2h1l1.1,-.1h82.6l1,.1h1.1l1.1,.2l1.1,.1l1,.3l1,.3l1.1,.4l1,.4l.9,.5l1,.5l.9,.5l.9,.7l.9,.6l.8,.7l.8,.7l.7,.8l.7,.8l.6,.9l.6,.9l.6,.9l.5,1l.5,.9l.4,1l.4,1.1l.3,1l.2,1l.2,1.1l.1,1.1l.1,1l.1,1.1v95.8l-.1,1.1l-.1,1l-.1,1.1l-.2,1.1l-.2,1l-.3,1l-.4,1l-.4,1l-.5,1l-.5,1l-.6,.9l-.6,.9l-.6,.8l-.7,.9l-.7,.7l-.8,.8l-.8,.7l-.9,.7l-.9,.6l-.9,.5l-.9,.5l-1,.5l-1,.4l-1,.4l-1.1,.3l-1,.2l-1.1,.2l-1,.2l-1.1,.1H67l-1,-.1l-1.1,-.2l-1.1,-.1l-1,-.3l-1,-.3l-1,-.4l-1,-.4l-1,-.5l-1,-.5l-.9,-.5l-.9,-.6l-.8,-.7l-.8,-.7l-.8,-.7l-.8,-.8l-.7,-.8l-.7,-.9l-.6,-.9l-.5,-.9l-.5,-.9l-.5,-1l-.4,-1l-.4,-1l-.3,-1L48,528.9l-.2,-1.1l-.2,-1v-1.1l-.1,-1.1V428.8Z" class="g3_1" />
<g clip-path="url(#c0_1)">
<g fill="#FFFFFF" >
<use xlink:href="#f0_k" transform="matrix(14.1,0,0,14.1,89.7,472.4)" />
<use xlink:href="#f0_1c" transform="matrix(14.1,0,0,14.1,100.8,472.4)" />
<use xlink:href="#f0_12" transform="matrix(14.1,0,0,14.1,114.2,472.4)" />
<use xlink:href="#f0_1c" transform="matrix(14.1,0,0,14.1,63.6,498.4)" />
</g>
</g>
<text x="89" y="472" dx="0,0,0.2,0" class="s1_1">PDF </text>
<g clip-path="url(#c0_1)">
<g fill="#FFFFFF" >
<use xlink:href="#f0_b" transform="matrix(14.1,0,0,14.1,76.8,498.4)" />
<use xlink:href="#f0_m" transform="matrix(14.1,0,0,14.1,88.3,498.4)" />
<use xlink:href="#f0_3" transform="matrix(14.1,0,0,14.1,97.4,498.4)" />
<use xlink:href="#f0_z" transform="matrix(14.1,0,0,14.1,108.7,498.4)" />
<use xlink:href="#f0_7" transform="matrix(14.1,0,0,14.1,125.9,498.4)" />
<use xlink:href="#f0_u" transform="matrix(14.1,0,0,14.1,136.6,498.4)" />
<use xlink:href="#f0_6" transform="matrix(14.1,0,0,14.1,147.9,498.4)" />
</g>
</g>
<text x="63" y="498" dx="0,0,0.1,0.1,0,0,0,0" class="s1_1">Document</text>
<path d="M171.3,314.7h16" class="g8_1" />
<path fill-rule="evenodd" d="M213.1,314.8l-27.6,13.7l.1,-27.6l27.5,13.9Z" class="g2_1" />
<path d="M358.3,314.7h16" class="g9_1" />
<path fill-rule="evenodd" d="M400.1,314.8l-27.6,13.7l.1,-27.6l27.5,13.9Z" class="g6_1" />
<path d="M517.7,314.7h61V402" class="g8_1" />
<path fill-rule="evenodd" d="M578.7,427.7L564.9,400.2h27.6l-13.8,27.5Z" class="g2_1" />
<path d="M559.5,477.9L536.3,455.5" class="g9_1" />
<path fill-rule="evenodd" d="M517.7,437.7l29.4,9.1L528,466.7l-10.3,-29Z" class="g6_1" />
<path d="M400.1,437.7l-23,21.5" class="g8_1" />
<path fill-rule="evenodd" d="M358.3,476.8L369,447.9L387.8,468l-29.5,8.8Z" class="g2_1" />
<path d="M209,476.8l-12,-.1" class="g9_1" />
<path fill-rule="evenodd" d="M171.3,476.7L198.9,463l-.1,27.5L171.3,476.7Z" class="g6_1" />
<path d="M732.1,406.4v71.5H716" class="g8_1" />
<path fill-rule="evenodd" d="M690.3,477.9l27.6,-13.8v27.6L690.3,477.9Z" class="g2_1" />
<path fill-rule="evenodd" d="M666.8,242l.1,-2.6l.2,-2.5l.4,-2.5l.6,-2.5l.8,-2.5l.9,-2.4l1.1,-2.5l1.2,-2.3l1.4,-2.3l1.5,-2.3l1.7,-2.2l1.8,-2.1l1.9,-2l2.2,-2l2.2,-1.9l2.3,-1.8l2.5,-1.7l2.5,-1.6l2.7,-1.5l2.7,-1.4l2.9,-1.3l3,-1.2l3,-1.1l3.1,-.9l3.1,-.8l3.2,-.7l3.2,-.6l3.2,-.5l3.3,-.3l3.4,-.2h3.2l3.5,.1l3.4,.1l3.4,.4l3.3,.4l3.3,.7l3.3,.7l3.2,.9l3.2,1l3.1,1.1l3,1.3l2.9,1.4l2.9,1.4l2.6,1.6l2.6,1.8l2.6,1.7l2.3,2l2.2,2l2.1,2.1l1.9,2.1l1.8,2.2l1.7,2.4l1.4,2.4l1.3,2.4l1.2,2.5l.9,2.5l.9,2.5l.6,2.6l.5,2.6l.2,2.6l.1,2.7l-.1,2.6l-.3,2.6l-.5,2.6l-.6,2.6l-.8,2.6l-.9,2.5l-1.2,2.5l-1.3,2.4l-1.4,2.3l-1.7,2.4l-1.8,2.2l-1.9,2.2l-2.1,2.1l-2.2,2l-2.4,1.9l-2.5,1.8l-2.6,1.7l-2.7,1.6l-2.8,1.5l-2.9,1.3l-3,1.3l-3.1,1.1l-3.2,1.1l-3.2,.8l-3.3,.8l-3.3,.6l-3.3,.5l-3.4,.3l-3.4,.2l-3.5,.1l-3.4,-.1l-3.4,-.2l-3.4,-.3l-3.3,-.5l-3.3,-.6l-3.3,-.8l-3.2,-.8l-3.2,-1l-3.1,-1.2l-3,-1.2l-2.9,-1.4l-2.9,-1.5L691.1,281l-2.6,-1.7l-2.6,-1.8l-2.3,-1.9l-2.2,-2l-2.1,-2.1l-1.9,-2.2l-1.8,-2.2l-1.7,-2.3l-1.4,-2.4L671.2,260L670,257.5l-.9,-2.5l-.9,-2.6l-.6,-2.6l-.5,-2.6l-.2,-2.6l-.1,-2.6Z" class="g6_1" />
<path d="M666.8,242l.1,-2.6l.2,-2.5l.4,-2.5l.6,-2.5l.8,-2.5l.9,-2.4l1.1,-2.5l1.2,-2.3l1.4,-2.3l1.5,-2.3l1.7,-2.2l1.8,-2.1l1.9,-2l2.2,-2l2.2,-1.9l2.3,-1.8l2.5,-1.7l2.5,-1.6l2.7,-1.5l2.7,-1.4l2.9,-1.3l3,-1.2l3,-1.1l3.1,-.9l3.1,-.8l3.2,-.7l3.2,-.6l3.2,-.5l3.3,-.3l3.4,-.2h3.2l3.5,.1l3.4,.1l3.4,.4l3.3,.4l3.3,.7l3.3,.7l3.2,.9l3.2,1l3.1,1.1l3,1.3l2.9,1.4l2.9,1.4l2.6,1.6l2.6,1.8l2.6,1.7l2.3,2l2.2,2l2.1,2.1l1.9,2.1l1.8,2.2l1.7,2.4l1.4,2.4l1.3,2.4l1.2,2.5l.9,2.5l.9,2.5l.6,2.6l.5,2.6l.2,2.6l.1,2.7l-.1,2.6l-.3,2.6l-.5,2.6l-.6,2.6l-.8,2.6l-.9,2.5l-1.2,2.5l-1.3,2.4l-1.4,2.3l-1.7,2.4l-1.8,2.2l-1.9,2.2l-2.1,2.1l-2.2,2l-2.4,1.9l-2.5,1.8l-2.6,1.7l-2.7,1.6l-2.8,1.5l-2.9,1.3l-3,1.3l-3.1,1.1l-3.2,1.1l-3.2,.8l-3.3,.8l-3.3,.6l-3.3,.5l-3.4,.3l-3.4,.2l-3.5,.1l-3.4,-.1l-3.4,-.2l-3.4,-.3l-3.3,-.5l-3.3,-.6l-3.3,-.8l-3.2,-.8l-3.2,-1l-3.1,-1.2l-3,-1.2l-2.9,-1.4l-2.9,-1.5L691.1,281l-2.6,-1.7l-2.6,-1.8l-2.3,-1.9l-2.2,-2l-2.1,-2.1l-1.9,-2.2l-1.8,-2.2l-1.7,-2.3l-1.4,-2.4L671.2,260L670,257.5l-.9,-2.5l-.9,-2.6l-.6,-2.6l-.5,-2.6l-.2,-2.6l-.1,-2.6Z" class="g7_1" />
<g clip-path="url(#c0_1)">
<g fill="#FFFFFF" >
<use xlink:href="#f0_1a" transform="matrix(14.1,0,0,14.1,700.9,224.7)" />
<use xlink:href="#f0_8" transform="matrix(14.1,0,0,14.1,712.4,224.7)" />
<use xlink:href="#f0_7" transform="matrix(14.1,0,0,14.1,719.7,224.7)" />
<use xlink:href="#f0_x" transform="matrix(14.1,0,0,14.1,730.5,224.7)" />
<use xlink:href="#f0_6" transform="matrix(14.1,0,0,14.1,740.6,224.7)" />
<use xlink:href="#f0_7" transform="matrix(14.1,0,0,14.1,747.6,224.7)" />
<use xlink:href="#f0_2" transform="matrix(14.1,0,0,14.1,710.3,250.7)" />
</g>
</g>
<text x="700" y="224" dx="0,0,-0.2,0.1,-0.2,-0.2,0" class="s1_1">Create </text>
<g clip-path="url(#c0_1)">
<g fill="#FFFFFF" >
<use xlink:href="#f0_o" transform="matrix(14.1,0,0,14.1,717.1,250.7)" />
<use xlink:href="#f0_u" transform="matrix(14.1,0,0,14.1,722.1,250.7)" />
<use xlink:href="#f0_v" transform="matrix(14.1,0,0,14.1,733.4,250.7)" />
<use xlink:href="#f0_x" transform="matrix(14.1,0,0,14.1,738.6,250.7)" />
<use xlink:href="#f0_y" transform="matrix(14.1,0,0,14.1,691.8,276.5)" />
</g>
</g>
<text x="710" y="250" dx="0,0,0.1,0,0,0" class="s1_1">Jinja </text>
<g clip-path="url(#c0_1)">
<g fill="#FFFFFF" >
<use xlink:href="#f0_7" transform="matrix(14.1,0,0,14.1,700.3,276.5)" />
<use xlink:href="#f0_z" transform="matrix(14.1,0,0,14.1,711.2,276.5)" />
<use xlink:href="#f0_4" transform="matrix(14.1,0,0,14.1,728.4,276.5)" />
<use xlink:href="#f0_j" transform="matrix(14.1,0,0,14.1,739.7,276.5)" />
<use xlink:href="#f0_x" transform="matrix(14.1,0,0,14.1,744.6,276.5)" />
<use xlink:href="#f0_6" transform="matrix(14.1,0,0,14.1,754.8,276.5)" />
<use xlink:href="#f0_7" transform="matrix(14.1,0,0,14.1,761.7,276.5)" />
</g>
</g>
<text x="691" y="276" dx="0,-1.9,0.1,0,0,0,-0.1,-0.3" class="s1_1">Template</text>
<path fill-rule="evenodd" d="M209,51.8V50.7l.1,-.6l.1,-.5l.1,-.6l.2,-.5l.2,-.6l.2,-.4l.3,-.6l.2,-.5l.3,-.4l.3,-.5l.4,-.4l.3,-.4l.4,-.5l.5,-.4l.4,-.3l.4,-.4l.5,-.3l.5,-.3l.4,-.2l.6,-.3l.4,-.2l.6,-.2l.5,-.2l.6,-.1l.5,-.1l.6,-.1H353.8l.6,.1l.5,.1l.6,.1l.5,.2l.5,.2l.5,.2l.5,.3l.6,.2l.4,.3l.5,.3l.4,.4l.4,.3l.5,.4l.4,.5l.3,.4l.4,.4l.3,.5l.3,.5l.2,.4l.3,.6l.2,.4l.2,.6l.1,.5l.2,.6l.1,.5v.6l.1,.5V95.7l-.1,.5l-.1,.5l-.1,.6l-.2,.5l-.2,.6l-.2,.5l-.2,.5l-.3,.5l-.3,.5l-.3,.4l-.3,.5l-.4,.4l-.4,.4l-.4,.4l-.5,.4l-.4,.3l-.4,.3l-.5,.3l-.5,.3l-.5,.2l-.5,.2l-.6,.2l-.5,.2l-.6,.1l-.5,.1l-.5,.1h-1.2l-133,.1h-.6l-.5,-.1H218l-.5,-.1l-.6,-.2l-.5,-.1l-.6,-.2l-.4,-.2l-.6,-.3l-.4,-.2l-.5,-.4l-.5,-.3l-.4,-.3l-.4,-.3l-.5,-.4l-.4,-.5l-.3,-.4l-.4,-.4l-.3,-.5l-.3,-.4l-.2,-.6l-.3,-.5l-.2,-.5l-.2,-.5l-.2,-.5l-.1,-.6l-.1,-.5l-.1,-.6V51.8Z" class="g10_1" />
<path d="M209,51.8V50.7l.1,-.6l.1,-.5l.1,-.6l.2,-.5l.2,-.6l.2,-.4l.3,-.6l.2,-.5l.3,-.4l.3,-.5l.4,-.4l.3,-.4l.4,-.5l.5,-.4l.4,-.3l.4,-.4l.5,-.3l.5,-.3l.4,-.2l.6,-.3l.4,-.2l.6,-.2l.5,-.2l.6,-.1l.5,-.1l.6,-.1H353.8l.6,.1l.5,.1l.6,.1l.5,.2l.5,.2l.5,.2l.5,.3l.6,.2l.4,.3l.5,.3l.4,.4l.4,.3l.5,.4l.4,.5l.3,.4l.4,.4l.3,.5l.3,.5l.2,.4l.3,.6l.2,.4l.2,.6l.1,.5l.2,.6l.1,.5v.6l.1,.5V95.7l-.1,.5l-.1,.5l-.1,.6l-.2,.5l-.2,.6l-.2,.5l-.2,.5l-.3,.5l-.3,.5l-.3,.4l-.3,.5l-.4,.4l-.4,.4l-.4,.4l-.5,.4l-.4,.3l-.4,.3l-.5,.3l-.5,.3l-.5,.2l-.5,.2l-.6,.2l-.5,.2l-.6,.1l-.5,.1l-.5,.1h-1.2l-133,.1h-.6l-.5,-.1H218l-.5,-.1l-.6,-.2l-.5,-.1l-.6,-.2l-.4,-.2l-.6,-.3l-.4,-.2l-.5,-.4l-.5,-.3l-.4,-.3l-.4,-.3l-.5,-.4l-.4,-.5l-.3,-.4l-.4,-.4l-.3,-.5l-.3,-.4l-.2,-.6l-.3,-.5l-.2,-.5l-.2,-.5l-.2,-.5l-.1,-.6l-.1,-.5l-.1,-.6V51.8Z" class="g11_1" />
<g clip-path="url(#c0_1)">
<g fill="#FFFFFF" >
<use xlink:href="#f0_1d" transform="matrix(14.1,0,0,14.1,255,68.9)" />
<use xlink:href="#f0_10" transform="matrix(14.1,0,0,14.1,265.5,68.9)" />
<use xlink:href="#f0_4" transform="matrix(14.1,0,0,14.1,274.8,68.9)" />
<use xlink:href="#f0_b" transform="matrix(14.1,0,0,14.1,286.2,68.9)" />
<use xlink:href="#f0_8" transform="matrix(14.1,0,0,14.1,297.5,68.9)" />
<use xlink:href="#f0_6" transform="matrix(14.1,0,0,14.1,305.2,68.9)" />
<use xlink:href="#f0_1a" transform="matrix(14.1,0,0,14.1,226.6,94.9)" />
</g>
</g>
<text x="254" y="68" dx="0,0,0,0.1,0,0.1,0" class="s1_1">Export </text>
<g clip-path="url(#c0_1)">
<g fill="#FFFFFF" >
<use xlink:href="#f0_b" transform="matrix(14.1,0,0,14.1,238.2,94.9)" />
<use xlink:href="#f0_u" transform="matrix(14.1,0,0,14.1,249.5,94.9)" />
<use xlink:href="#f0_s" transform="matrix(14.1,0,0,14.1,260.6,94.9)" />
<use xlink:href="#f0_g" transform="matrix(14.1,0,0,14.1,272,94.9)" />
<use xlink:href="#f0_3" transform="matrix(14.1,0,0,14.1,282.2,94.9)" />
<use xlink:href="#f0_8" transform="matrix(14.1,0,0,14.1,293.5,94.9)" />
<use xlink:href="#f0_x" transform="matrix(14.1,0,0,14.1,300.9,94.9)" />
<use xlink:href="#f0_1e" transform="matrix(14.1,0,0,14.1,310.8,94.9)" />
<use xlink:href="#f0_b" transform="matrix(14.1,0,0,14.1,323,94.9)" />
<use xlink:href="#f0_u" transform="matrix(14.1,0,0,14.1,334.3,94.9)" />
</g>
</g>
<text x="226" y="94" dx="0,0.1,0,-0.2,0,0,0.1,0,-0.2,-0.4,0,0.2,0" class="s1_1">Configuration</text>
<path fill-rule="evenodd" d="M678.5,349.3v-1.2l.1,-.6l.2,-.6l.1,-.5l.2,-.6l.1,-.6l.3,-.5l.2,-.5l.3,-.6l.3,-.5l.4,-.5l.3,-.5l.4,-.4l.4,-.4l.5,-.4l.4,-.4l.5,-.4l.5,-.4l.5,-.3l.5,-.2l.5,-.3l.6,-.2l.6,-.2l.5,-.2l.6,-.1l.6,-.1l.6,-.1l.6,-.1h85.6l.6,.1l.6,.1l.6,.1l.5,.1l.6,.2l.6,.2l.5,.2l.5,.3l.6,.2l.5,.3l.5,.4l.5,.4l.4,.4l.4,.4l.4,.4l.4,.4l.4,.5l.4,.5l.3,.5l.2,.6l.3,.5l.2,.5l.2,.6l.2,.6l.1,.5l.1,.6l.1,.6l.1,.6v46.9l-.1,.6l-.1,.6l-.1,.6l-.1,.6l-.2,.5l-.2,.6l-.2,.5l-.3,.6l-.2,.5l-.3,.5l-.4,.5l-.3,.5l-.4,.4l-.5,.5l-.4,.4l-.4,.3l-.5,.4l-.5,.3l-.5,.3l-.5,.3l-.5,.3l-.6,.2l-.6,.2l-.5,.2l-.6,.1l-.6,.2h-.6l-.6,.1H688.7l-.6,-.1l-.6,-.2l-.6,-.1l-.5,-.2l-.6,-.1l-.6,-.3l-.5,-.3l-.5,-.2l-.5,-.3l-.5,-.4l-.5,-.3l-.4,-.4l-.5,-.4l-.4,-.5l-.4,-.4l-.3,-.5l-.3,-.5l-.3,-.5l-.4,-.5l-.2,-.5l-.2,-.6l-.2,-.5l-.2,-.6l-.1,-.6l-.2,-.6v-.6l-.1,-.5V349.3Z" class="g2_1" />
<path d="M678.5,349.3v-1.2l.1,-.6l.2,-.6l.1,-.5l.2,-.6l.1,-.6l.3,-.5l.2,-.5l.3,-.6l.3,-.5l.4,-.5l.3,-.5l.4,-.4l.4,-.4l.5,-.4l.4,-.4l.5,-.4l.5,-.4l.5,-.3l.5,-.2l.5,-.3l.6,-.2l.6,-.2l.5,-.2l.6,-.1l.6,-.1l.6,-.1l.6,-.1h85.6l.6,.1l.6,.1l.6,.1l.5,.1l.6,.2l.6,.2l.5,.2l.5,.3l.6,.2l.5,.3l.5,.4l.5,.4l.4,.4l.4,.4l.4,.4l.4,.4l.4,.5l.4,.5l.3,.5l.2,.6l.3,.5l.2,.5l.2,.6l.2,.6l.1,.5l.1,.6l.1,.6l.1,.6v46.9l-.1,.6l-.1,.6l-.1,.6l-.1,.6l-.2,.5l-.2,.6l-.2,.5l-.3,.6l-.2,.5l-.3,.5l-.4,.5l-.3,.5l-.4,.4l-.5,.5l-.4,.4l-.4,.3l-.5,.4l-.5,.3l-.5,.3l-.5,.3l-.5,.3l-.6,.2l-.6,.2l-.5,.2l-.6,.1l-.6,.2h-.6l-.6,.1H688.7l-.6,-.1l-.6,-.2l-.6,-.1l-.5,-.2l-.6,-.1l-.6,-.3l-.5,-.3l-.5,-.2l-.5,-.3l-.5,-.4l-.5,-.3l-.4,-.4l-.5,-.4l-.4,-.5l-.4,-.4l-.3,-.5l-.3,-.5l-.3,-.5l-.4,-.5l-.2,-.5l-.2,-.6l-.2,-.5l-.2,-.6l-.1,-.6l-.2,-.6v-.6l-.1,-.5V349.3Z" class="g3_1" />
<g clip-path="url(#c0_1)">
<g fill="#FFFFFF" >
<use xlink:href="#f0_2" transform="matrix(14.1,0,0,14.1,712.7,367.9)" />
<use xlink:href="#f0_o" transform="matrix(14.1,0,0,14.1,719.5,367.9)" />
<use xlink:href="#f0_u" transform="matrix(14.1,0,0,14.1,724.6,367.9)" />
<use xlink:href="#f0_v" transform="matrix(14.1,0,0,14.1,735.9,367.9)" />
<use xlink:href="#f0_x" transform="matrix(14.1,0,0,14.1,741,367.9)" />
<use xlink:href="#f0_y" transform="matrix(14.1,0,0,14.1,691.6,393.9)" />
</g>
</g>
<text x="712" y="367" dx="0,0,0.1,0,0" class="s1_1">Jinja</text>
<g clip-path="url(#c0_1)">
<g fill="#FFFFFF" >
<use xlink:href="#f0_7" transform="matrix(14.1,0,0,14.1,700.3,393.9)" />
<use xlink:href="#f0_z" transform="matrix(14.1,0,0,14.1,711,393.9)" />
<use xlink:href="#f0_4" transform="matrix(14.1,0,0,14.1,728.2,393.9)" />
<use xlink:href="#f0_j" transform="matrix(14.1,0,0,14.1,739.6,393.9)" />
<use xlink:href="#f0_x" transform="matrix(14.1,0,0,14.1,744.5,393.9)" />
<use xlink:href="#f0_6" transform="matrix(14.1,0,0,14.1,754.6,393.9)" />
<use xlink:href="#f0_7" transform="matrix(14.1,0,0,14.1,761.6,393.9)" />
</g>
</g>
<text x="691" y="393" dx="0,-1.8,0,0,0.1,0,-0.2,-0.2" class="s1_1">Template</text>
<path d="M732.1,292.3v19.9" class="g9_1" />
<path fill-rule="evenodd" d="M732.2,338L718.4,310.5l27.5,-.1L732.2,338Z" class="g6_1" />
<path fill-rule="evenodd" d="M208,152.4v-1.1l.1,-.6l.1,-.5l.1,-.6l.2,-.5l.2,-.6l.2,-.4l.2,-.6l.3,-.5l.3,-.4l.3,-.5l.3,-.4l.4,-.4l.4,-.5l.4,-.4l.4,-.3l.5,-.4l.4,-.3l.5,-.3l.5,-.2l.5,-.3l.5,-.2l.6,-.2l.5,-.2l.5,-.1l.6,-.1l.5,-.1H353.8l.6,.1l.5,.1l.6,.1l.5,.2l.5,.2l.5,.2l.5,.3l.6,.2l.4,.3l.5,.3l.4,.4l.4,.3l.5,.4l.4,.5l.3,.4l.4,.4l.3,.5l.3,.5l.2,.4l.3,.6l.2,.4l.2,.6l.1,.5l.2,.6l.1,.5v.6l.1,.5v44.5l-.1,.5l-.1,.6l-.1,.5l-.2,.5l-.2,.6l-.2,.5l-.2,.5l-.3,.5l-.3,.5l-.3,.4l-.3,.5l-.4,.4l-.4,.4l-.4,.4l-.5,.4l-.4,.3l-.4,.3l-.5,.3l-.5,.3l-.5,.2l-.5,.2l-.6,.2l-.5,.2l-.6,.1l-.5,.1l-.5,.1h-1.2l-134,.1h-.6l-.6,-.1H217l-.6,-.1l-.5,-.2l-.5,-.1l-.6,-.2l-.5,-.2l-.5,-.3l-.5,-.2l-.5,-.3l-.4,-.4l-.5,-.3l-.4,-.3l-.4,-.4l-.4,-.5l-.4,-.4l-.3,-.4l-.3,-.5l-.3,-.4l-.3,-.6l-.2,-.5l-.2,-.5l-.2,-.5l-.2,-.5l-.1,-.6l-.1,-.5l-.1,-.6V152.4Z" class="g12_1" />
<path d="M208,152.4v-1.1l.1,-.6l.1,-.5l.1,-.6l.2,-.5l.2,-.6l.2,-.4l.2,-.6l.3,-.5l.3,-.4l.3,-.5l.3,-.4l.4,-.4l.4,-.5l.4,-.4l.4,-.3l.5,-.4l.4,-.3l.5,-.3l.5,-.2l.5,-.3l.5,-.2l.6,-.2l.5,-.2l.5,-.1l.6,-.1l.5,-.1H353.8l.6,.1l.5,.1l.6,.1l.5,.2l.5,.2l.5,.2l.5,.3l.6,.2l.4,.3l.5,.3l.4,.4l.4,.3l.5,.4l.4,.5l.3,.4l.4,.4l.3,.5l.3,.5l.2,.4l.3,.6l.2,.4l.2,.6l.1,.5l.2,.6l.1,.5v.6l.1,.5v44.5l-.1,.5l-.1,.6l-.1,.5l-.2,.5l-.2,.6l-.2,.5l-.2,.5l-.3,.5l-.3,.5l-.3,.4l-.3,.5l-.4,.4l-.4,.4l-.4,.4l-.5,.4l-.4,.3l-.4,.3l-.5,.3l-.5,.3l-.5,.2l-.5,.2l-.6,.2l-.5,.2l-.6,.1l-.5,.1l-.5,.1h-1.2l-134,.1h-.6l-.6,-.1H217l-.6,-.1l-.5,-.2l-.5,-.1l-.6,-.2l-.5,-.2l-.5,-.3l-.5,-.2l-.5,-.3l-.4,-.4l-.5,-.3l-.4,-.3l-.4,-.4l-.4,-.5l-.4,-.4l-.3,-.4l-.3,-.5l-.3,-.4l-.3,-.6l-.2,-.5l-.2,-.5l-.2,-.5l-.2,-.5l-.1,-.6l-.1,-.5l-.1,-.6V152.4Z" class="g13_1" />
<g clip-path="url(#c0_1)">
<g fill="#000000" >
<use xlink:href="#f0_k" transform="matrix(14.1,0,0,14.1,222.4,169.4)" />
<use xlink:href="#f0_8" transform="matrix(14.1,0,0,14.1,233.7,169.4)" />
<use xlink:href="#f0_7" transform="matrix(14.1,0,0,14.1,241,169.4)" />
<use xlink:href="#f0_l" transform="matrix(14.1,0,0,14.1,251.7,169.4)" />
<use xlink:href="#f0_k" transform="matrix(14.1,0,0,14.1,258.4,169.4)" />
<use xlink:href="#f0_8" transform="matrix(14.1,0,0,14.1,269.5,169.4)" />
<use xlink:href="#f0_b" transform="matrix(14.1,0,0,14.1,276.7,169.4)" />
<use xlink:href="#f0_m" transform="matrix(14.1,0,0,14.1,288,169.4)" />
<use xlink:href="#f0_7" transform="matrix(14.1,0,0,14.1,297.1,169.4)" />
<use xlink:href="#f0_e" transform="matrix(14.1,0,0,14.1,308,169.4)" />
<use xlink:href="#f0_e" transform="matrix(14.1,0,0,14.1,316.4,169.4)" />
<use xlink:href="#f0_b" transform="matrix(14.1,0,0,14.1,324.7,169.4)" />
<use xlink:href="#f0_8" transform="matrix(14.1,0,0,14.1,336.2,169.4)" />
<use xlink:href="#f0_1a" transform="matrix(14.1,0,0,14.1,254.2,195.4)" />
</g>
</g>
<text x="222" y="169" dx="0,0.2,-0.2,0,0.1,0,-0.3,0,0.1,0.1,0,0,0.1,0" class="s1_1">Pre-Processor </text>
<g clip-path="url(#c0_1)">
<g fill="#000000" >
<use xlink:href="#f0_j" transform="matrix(14.1,0,0,14.1,265.7,195.4)" />
<use xlink:href="#f0_x" transform="matrix(14.1,0,0,14.1,270.7,195.4)" />
<use xlink:href="#f0_e" transform="matrix(14.1,0,0,14.1,281,195.4)" />
<use xlink:href="#f0_e" transform="matrix(14.1,0,0,14.1,289.4,195.4)" />
<use xlink:href="#f0_7" transform="matrix(14.1,0,0,14.1,297.9,195.4)" />
<use xlink:href="#f0_e" transform="matrix(14.1,0,0,14.1,308.6,195.4)" />
</g>
</g>
<text x="254" y="195" dx="0,0,0.1,0,0,0.1,0" class="s1_1">Classes</text>
<path fill-rule="evenodd" d="M376.4,152.4v-1.1l.1,-.6l.1,-.5l.1,-.6l.2,-.5l.2,-.6l.2,-.4l.3,-.6l.2,-.5l.3,-.4l.3,-.5l.4,-.4l.3,-.4l.4,-.5l.4,-.4l.5,-.3l.4,-.4l.4,-.3l.6,-.3l.4,-.2l.5,-.3l.5,-.2l.6,-.2l.5,-.2l.6,-.1l.5,-.1l.6,-.1H522.2l.6,.1l.5,.1l.6,.1l.5,.2l.6,.2l.4,.2l.6,.3l.5,.2l.5,.3l.4,.3l.4,.4l.5,.3l.4,.4l.4,.5l.3,.4l.4,.4l.3,.5l.3,.5l.2,.4l.3,.6l.2,.4l.2,.6l.2,.5l.1,.6l.1,.5l.1,.6v1.1l.1,42.7v.6l-.1,.6l-.1,.5l-.1,.6l-.1,.5l-.2,.5l-.1,.6l-.3,.5l-.2,.5l-.3,.5l-.3,.5l-.3,.4l-.3,.5l-.4,.4l-.4,.4l-.4,.4l-.4,.4l-.5,.3l-.4,.3l-.5,.3l-.5,.3l-.5,.2l-.5,.2l-.6,.2l-.5,.2l-.5,.1l-.6,.1l-.5,.1h-1.1l-134.1,.1h-.6l-.5,-.1h-.6l-.5,-.1l-.6,-.2l-.5,-.1l-.6,-.2l-.5,-.2l-.5,-.3l-.4,-.2l-.6,-.3l-.4,-.4l-.4,-.3l-.5,-.3l-.4,-.4l-.4,-.5l-.3,-.4l-.4,-.4l-.3,-.5l-.3,-.4l-.2,-.6l-.3,-.5l-.2,-.5l-.2,-.5l-.2,-.5l-.1,-.6l-.1,-.5l-.1,-.6V152.4Z" class="g12_1" />
<path d="M376.4,152.4v-1.1l.1,-.6l.1,-.5l.1,-.6l.2,-.5l.2,-.6l.2,-.4l.3,-.6l.2,-.5l.3,-.4l.3,-.5l.4,-.4l.3,-.4l.4,-.5l.4,-.4l.5,-.3l.4,-.4l.4,-.3l.6,-.3l.4,-.2l.5,-.3l.5,-.2l.6,-.2l.5,-.2l.6,-.1l.5,-.1l.6,-.1H522.2l.6,.1l.5,.1l.6,.1l.5,.2l.6,.2l.4,.2l.6,.3l.5,.2l.5,.3l.4,.3l.4,.4l.5,.3l.4,.4l.4,.5l.3,.4l.4,.4l.3,.5l.3,.5l.2,.4l.3,.6l.2,.4l.2,.6l.2,.5l.1,.6l.1,.5l.1,.6v1.1l.1,42.7v.6l-.1,.6l-.1,.5l-.1,.6l-.1,.5l-.2,.5l-.1,.6l-.3,.5l-.2,.5l-.3,.5l-.3,.5l-.3,.4l-.3,.5l-.4,.4l-.4,.4l-.4,.4l-.4,.4l-.5,.3l-.4,.3l-.5,.3l-.5,.3l-.5,.2l-.5,.2l-.6,.2l-.5,.2l-.5,.1l-.6,.1l-.5,.1h-1.1l-134.1,.1h-.6l-.5,-.1h-.6l-.5,-.1l-.6,-.2l-.5,-.1l-.6,-.2l-.5,-.2l-.5,-.3l-.4,-.2l-.6,-.3l-.4,-.4l-.4,-.3l-.5,-.3l-.4,-.4l-.4,-.5l-.3,-.4l-.4,-.4l-.3,-.5l-.3,-.4l-.2,-.6l-.3,-.5l-.2,-.5l-.2,-.5l-.2,-.5l-.1,-.6l-.1,-.5l-.1,-.6V152.4Z" class="g13_1" />
<g clip-path="url(#c0_1)">
<g fill="#000000" >
<use xlink:href="#f0_12" transform="matrix(14.1,0,0,14.1,429.2,169.4)" />
<use xlink:href="#f0_o" transform="matrix(14.1,0,0,14.1,438.9,169.4)" />
<use xlink:href="#f0_j" transform="matrix(14.1,0,0,14.1,444,169.4)" />
<use xlink:href="#f0_6" transform="matrix(14.1,0,0,14.1,448.8,169.4)" />
<use xlink:href="#f0_7" transform="matrix(14.1,0,0,14.1,455.9,169.4)" />
<use xlink:href="#f0_8" transform="matrix(14.1,0,0,14.1,466.7,169.4)" />
<use xlink:href="#f0_12" transform="matrix(14.1,0,0,14.1,411.6,195.4)" />
</g>
</g>
<text x="429" y="169" dx="0,-0.1,0.1,0,-0.2,0.1,0" class="s1_1">Filter </text>
<g clip-path="url(#c0_1)">
<g fill="#000000" >
<use xlink:href="#f0_3" transform="matrix(14.1,0,0,14.1,421.5,195.4)" />
<use xlink:href="#f0_u" transform="matrix(14.1,0,0,14.1,432.8,195.4)" />
<use xlink:href="#f0_m" transform="matrix(14.1,0,0,14.1,444.2,195.4)" />
<use xlink:href="#f0_1e" transform="matrix(14.1,0,0,14.1,453.4,195.4)" />
<use xlink:href="#f0_b" transform="matrix(14.1,0,0,14.1,465.4,195.4)" />
<use xlink:href="#f0_u" transform="matrix(14.1,0,0,14.1,476.7,195.4)" />
<use xlink:href="#f0_e" transform="matrix(14.1,0,0,14.1,488.1,195.4)" />
</g>
</g>
<text x="411" y="195" dx="0,0,0,0.1,0.1,0,0,0,0.1" class="s1_1">Functions</text>
<path fill-rule="evenodd" d="M517.7,52.3v-.6l.1,-.6l.1,-.5l.1,-.5l.1,-.6l.2,-.5l.1,-.6l.2,-.5l.3,-.5l.3,-.5l.3,-.5l.3,-.4l.3,-.4l.4,-.5l.4,-.4l.4,-.4l.4,-.3l.5,-.4l.4,-.3l.5,-.3l.5,-.3l.5,-.2l.5,-.2l.5,-.2l.6,-.2l.5,-.1l.5,-.1l.6,-.1H663.6l.6,.1l.5,.1l.5,.1l.6,.2l.5,.2l.5,.2l.5,.2l.5,.3l.5,.3l.4,.3l.5,.4l.4,.3l.4,.4l.4,.4l.4,.5l.3,.4l.3,.4l.3,.5l.3,.5l.3,.5l.2,.5l.1,.6l.2,.5l.1,.6l.1,.5l.1,.5l.1,.6V96.1l-.1,.6l-.1,.5l-.1,.6l-.2,.5l-.2,.6l-.2,.4l-.3,.6l-.2,.4l-.3,.6l-.3,.4l-.4,.4l-.3,.5l-.4,.4l-.4,.4l-.5,.3l-.4,.4l-.4,.3l-.5,.3l-.5,.2l-.6,.3l-.4,.2l-.6,.2l-.5,.2l-.6,.1l-.5,.1l-.6,.1h-1.1l-134.1,.1h-.5l-.6,-.1l-.6,-.1l-.5,-.1l-.5,-.1l-.6,-.2l-.5,-.1l-.5,-.3l-.5,-.2l-.5,-.3l-.5,-.3l-.4,-.3l-.5,-.3l-.4,-.4l-.4,-.4l-.4,-.4l-.4,-.4l-.3,-.5l-.3,-.4l-.3,-.5l-.3,-.5l-.3,-.5l-.2,-.5l-.1,-.5l-.2,-.6l-.1,-.5l-.1,-.6l-.1,-.5l-.1,-.6V52.3Z" class="g12_1" />
<path d="M517.7,52.3v-.6l.1,-.6l.1,-.5l.1,-.5l.1,-.6l.2,-.5l.1,-.6l.2,-.5l.3,-.5l.3,-.5l.3,-.5l.3,-.4l.3,-.4l.4,-.5l.4,-.4l.4,-.4l.4,-.3l.5,-.4l.4,-.3l.5,-.3l.5,-.3l.5,-.2l.5,-.2l.5,-.2l.6,-.2l.5,-.1l.5,-.1l.6,-.1H663.6l.6,.1l.5,.1l.5,.1l.6,.2l.5,.2l.5,.2l.5,.2l.5,.3l.5,.3l.4,.3l.5,.4l.4,.3l.4,.4l.4,.4l.4,.5l.3,.4l.3,.4l.3,.5l.3,.5l.3,.5l.2,.5l.1,.6l.2,.5l.1,.6l.1,.5l.1,.5l.1,.6V96.1l-.1,.6l-.1,.5l-.1,.6l-.2,.5l-.2,.6l-.2,.4l-.3,.6l-.2,.4l-.3,.6l-.3,.4l-.4,.4l-.3,.5l-.4,.4l-.4,.4l-.5,.3l-.4,.4l-.4,.3l-.5,.3l-.5,.2l-.6,.3l-.4,.2l-.6,.2l-.5,.2l-.6,.1l-.5,.1l-.6,.1h-1.1l-134.1,.1h-.5l-.6,-.1l-.6,-.1l-.5,-.1l-.5,-.1l-.6,-.2l-.5,-.1l-.5,-.3l-.5,-.2l-.5,-.3l-.5,-.3l-.4,-.3l-.5,-.3l-.4,-.4l-.4,-.4l-.4,-.4l-.4,-.4l-.3,-.5l-.3,-.4l-.3,-.5l-.3,-.5l-.3,-.5l-.2,-.5l-.1,-.5l-.2,-.6l-.1,-.5l-.1,-.6l-.1,-.5l-.1,-.6V52.3Z" class="g13_1" />
<g clip-path="url(#c0_1)">
<g fill="#000000" >
<use xlink:href="#f0_1g" transform="matrix(14.1,0,0,14.1,562.8,82.3)" />
<use xlink:href="#f0_3" transform="matrix(14.1,0,0,14.1,577.2,82.3)" />
<use xlink:href="#f0_6" transform="matrix(14.1,0,0,14.1,588.6,82.3)" />
<use xlink:href="#f0_j" transform="matrix(14.1,0,0,14.1,595.8,82.3)" />
<use xlink:href="#f0_o" transform="matrix(14.1,0,0,14.1,600.8,82.3)" />
<use xlink:href="#f0_u" transform="matrix(14.1,0,0,14.1,605.7,82.3)" />
<use xlink:href="#f0_7" transform="matrix(14.1,0,0,14.1,617.1,82.3)" />
</g>
</g>
<text x="562" y="82" dx="0,0.1,0.1,0,0.1,0,0.1,0.1" class="s1_1">Outline </text>
<path fill-rule="evenodd" d="M556.3,99.7V98.5l.1,-.5l.1,-.6l.1,-.5l.2,-.5l.2,-.6l.2,-.5l.2,-.5l.3,-.5l.3,-.5l.3,-.4l.4,-.5l.3,-.4l.4,-.4l.4,-.4l.5,-.4l.4,-.3l.4,-.3l.5,-.3l.5,-.3l.5,-.2l.5,-.3l.6,-.1l.5,-.2l.6,-.1l.5,-.1l.6,-.1H702.1l.6,.1l.5,.1l.6,.1l.5,.2l.6,.1l.4,.3l.6,.2l.5,.3l.5,.3l.4,.3l.4,.3l.5,.4l.4,.4l.4,.4l.3,.4l.4,.5l.3,.4l.3,.5l.2,.5l.3,.5l.2,.5l.2,.6l.2,.5l.1,.5l.1,.6l.1,.5v1.2l.1,42.7v.6l-.1,.5l-.1,.6l-.1,.5l-.1,.6l-.2,.5l-.1,.5l-.3,.5l-.2,.5l-.3,.5l-.3,.5l-.3,.5l-.3,.4l-.4,.4l-.4,.5l-.4,.4l-.4,.3l-.5,.4l-.4,.3l-.5,.3l-.5,.2l-.5,.3l-.5,.2l-.6,.2l-.5,.1l-.5,.2l-.6,.1h-.5l-.6,.1H565.9l-.6,-.1l-.5,-.1l-.6,-.1l-.5,-.2l-.6,-.2l-.5,-.2l-.5,-.2l-.5,-.3l-.5,-.3l-.4,-.3l-.4,-.3l-.5,-.4l-.4,-.4l-.4,-.4l-.3,-.4l-.4,-.5l-.3,-.4l-.3,-.5l-.3,-.5l-.2,-.5l-.2,-.5l-.2,-.6l-.2,-.5l-.1,-.6l-.1,-.5l-.1,-.5V99.7Z" class="g12_1" />
<path d="M556.3,99.7V98.5l.1,-.5l.1,-.6l.1,-.5l.2,-.5l.2,-.6l.2,-.5l.2,-.5l.3,-.5l.3,-.5l.3,-.4l.4,-.5l.3,-.4l.4,-.4l.4,-.4l.5,-.4l.4,-.3l.4,-.3l.5,-.3l.5,-.3l.5,-.2l.5,-.3l.6,-.1l.5,-.2l.6,-.1l.5,-.1l.6,-.1H702.1l.6,.1l.5,.1l.6,.1l.5,.2l.6,.1l.4,.3l.6,.2l.5,.3l.5,.3l.4,.3l.4,.3l.5,.4l.4,.4l.4,.4l.3,.4l.4,.5l.3,.4l.3,.5l.2,.5l.3,.5l.2,.5l.2,.6l.2,.5l.1,.5l.1,.6l.1,.5v1.2l.1,42.7v.6l-.1,.5l-.1,.6l-.1,.5l-.1,.6l-.2,.5l-.1,.5l-.3,.5l-.2,.5l-.3,.5l-.3,.5l-.3,.5l-.3,.4l-.4,.4l-.4,.5l-.4,.4l-.4,.3l-.5,.4l-.4,.3l-.5,.3l-.5,.2l-.5,.3l-.5,.2l-.6,.2l-.5,.1l-.5,.2l-.6,.1h-.5l-.6,.1H565.9l-.6,-.1l-.5,-.1l-.6,-.1l-.5,-.2l-.6,-.2l-.5,-.2l-.5,-.2l-.5,-.3l-.5,-.3l-.4,-.3l-.4,-.3l-.5,-.4l-.4,-.4l-.4,-.4l-.3,-.4l-.4,-.5l-.3,-.4l-.3,-.5l-.3,-.5l-.2,-.5l-.2,-.5l-.2,-.6l-.2,-.5l-.1,-.6l-.1,-.5l-.1,-.5V99.7Z" class="g13_1" />
<g clip-path="url(#c0_1)">
<g fill="#000000" >
<use xlink:href="#f0_1h" transform="matrix(14.1,0,0,14.1,590.9,129.7)" />
<use xlink:href="#f0_7" transform="matrix(14.1,0,0,14.1,600.8,129.7)" />
<use xlink:href="#f0_g" transform="matrix(14.1,0,0,14.1,611.7,129.7)" />
<use xlink:href="#f0_z" transform="matrix(14.1,0,0,14.1,621.9,129.7)" />
<use xlink:href="#f0_7" transform="matrix(14.1,0,0,14.1,639.1,129.7)" />
<use xlink:href="#f0_u" transform="matrix(14.1,0,0,14.1,649.9,129.7)" />
<use xlink:href="#f0_6" transform="matrix(14.1,0,0,14.1,661,129.7)" />
<use xlink:href="#f0_e" transform="matrix(14.1,0,0,14.1,668.3,129.7)" />
</g>
</g>
<text x="590" y="129" dx="0,0,0.1,0.1,0,0.1,-0.2,0.1" class="s1_1">Segments</text>
<path d="M285.7,205.9v14.5" class="g14_1" />
<path fill-rule="evenodd" d="M285.8,246.2L272,218.7l27.5,-.1l-13.7,27.6Z" class="g12_1" />
<path d="M531.9,173.8H625V381.1" class="g14_1" />
<path fill-rule="evenodd" d="M625,406.8L611.2,379.2h27.5L625,406.8Z" class="g12_1" />
<path d="M711.8,121h20.3v45.1" class="g14_1" />
<path fill-rule="evenodd" d="M732.1,191.8L718.3,164.3h27.6l-13.8,27.5Z" class="g12_1" />
<path d="M673.2,73.7h58.9v92.4" class="g14_1" />
<path fill-rule="evenodd" d="M732.1,191.8L718.3,164.3h27.6l-13.8,27.5Z" class="g12_1" />
<path d="M363.5,73.2l128.6,.4" class="g15_1" />
<path fill-rule="evenodd" d="M517.8,73.7L490.2,87.4l.1,-27.6l27.5,13.9Z" class="g10_1" />
<path d="M286.2,105.3L286,116" class="g15_1" />
<path fill-rule="evenodd" d="M285.7,141.7L272.3,114l27.5,.4l-14.1,27.3Z" class="g10_1" />
<path d="M363.4,73.2h90.7V116" class="g15_1" />
<path fill-rule="evenodd" d="M454.1,141.7L440.3,114.2h27.6l-13.8,27.5Z" class="g10_1" />
<path fill-rule="evenodd" d="M400.1,495.5v-.7l.1,-.7l.1,-.7l.1,-.6l.1,-.7l.3,-.6l.2,-.7l.2,-.6l.3,-.7l.4,-.6l.3,-.6l.4,-.5l.5,-.6l.4,-.5l.5,-.5l.5,-.5l.5,-.4l.6,-.5l.5,-.4l.6,-.3l.6,-.4l.7,-.3l.6,-.2l.7,-.2l.6,-.3l.7,-.1l.6,-.1l.7,-.1l.7,-.1h92.6l.7,.1l.7,.1l.6,.1l.7,.1l.7,.3l.6,.2l.7,.2l.6,.3l.6,.4l.6,.3l.5,.4l.6,.5l.5,.4l.5,.5l.5,.5l.4,.5l.5,.6l.4,.5l.3,.6l.4,.6l.3,.7l.2,.6l.2,.7l.3,.6l.1,.7l.1,.6l.1,.7l.1,.7v54.3l-.1,.7l-.1,.7l-.1,.7l-.1,.7l-.3,.6l-.2,.7l-.2,.6l-.3,.6l-.4,.6l-.3,.6l-.4,.6l-.5,.6l-.4,.5l-.5,.5l-.5,.4l-.5,.5l-.5,.4l-.6,.4l-.6,.4l-.6,.3l-.6,.3l-.7,.2l-.6,.3l-.7,.2l-.6,.1l-.7,.2l-.7,.1l-.7,.1H412.6l-.7,-.1l-.7,-.1l-.6,-.2l-.7,-.1l-.6,-.2l-.7,-.2l-.6,-.3l-.7,-.3l-.6,-.3l-.6,-.4l-.5,-.4l-.6,-.4l-.5,-.4l-.5,-.5l-.5,-.5l-.4,-.5l-.4,-.6l-.4,-.5l-.4,-.6l-.3,-.6l-.3,-.6l-.3,-.7l-.2,-.6l-.2,-.7l-.2,-.7l-.1,-.6l-.1,-.7l-.1,-.7V495.5Z" class="g2_1" />
<path d="M400.1,495.5v-.7l.1,-.7l.1,-.7l.1,-.6l.1,-.7l.3,-.6l.2,-.7l.2,-.6l.3,-.7l.4,-.6l.3,-.6l.4,-.5l.5,-.6l.4,-.5l.5,-.5l.5,-.5l.5,-.4l.6,-.5l.5,-.4l.6,-.3l.6,-.4l.7,-.3l.6,-.2l.7,-.2l.6,-.3l.7,-.1l.6,-.1l.7,-.1l.7,-.1h92.6l.7,.1l.7,.1l.6,.1l.7,.1l.7,.3l.6,.2l.7,.2l.6,.3l.6,.4l.6,.3l.5,.4l.6,.5l.5,.4l.5,.5l.5,.5l.4,.5l.5,.6l.4,.5l.3,.6l.4,.6l.3,.7l.2,.6l.2,.7l.3,.6l.1,.7l.1,.6l.1,.7l.1,.7v54.3l-.1,.7l-.1,.7l-.1,.7l-.1,.7l-.3,.6l-.2,.7l-.2,.6l-.3,.6l-.4,.6l-.3,.6l-.4,.6l-.5,.6l-.4,.5l-.5,.5l-.5,.4l-.5,.5l-.5,.4l-.6,.4l-.6,.4l-.6,.3l-.6,.3l-.7,.2l-.6,.3l-.7,.2l-.6,.1l-.7,.2l-.7,.1l-.7,.1H412.6l-.7,-.1l-.7,-.1l-.6,-.2l-.7,-.1l-.6,-.2l-.7,-.2l-.6,-.3l-.7,-.3l-.6,-.3l-.6,-.4l-.5,-.4l-.6,-.4l-.5,-.4l-.5,-.5l-.5,-.5l-.4,-.5l-.4,-.6l-.4,-.5l-.4,-.6l-.3,-.6l-.3,-.6l-.3,-.7l-.2,-.6l-.2,-.7l-.2,-.7l-.1,-.6l-.1,-.7l-.1,-.7V495.5Z" class="g3_1" />
<g clip-path="url(#c0_1)">
<g fill="#FFFFFF" >
<use xlink:href="#f0_1g" transform="matrix(14.1,0,0,14.1,430.8,509.1)" />
<use xlink:href="#f0_6" transform="matrix(14.1,0,0,14.1,445,509.1)" />
<use xlink:href="#f0_1i" transform="matrix(14.1,0,0,14.1,452.3,509.1)" />
<use xlink:href="#f0_7" transform="matrix(14.1,0,0,14.1,463.8,509.1)" />
<use xlink:href="#f0_8" transform="matrix(14.1,0,0,14.1,474.4,509.1)" />
<use xlink:href="#f0_12" transform="matrix(14.1,0,0,14.1,436.9,535)" />
</g>
</g>
<text x="430" y="509" dx="0,0,0.1,0.1,0,0.1" class="s1_1">Other </text>
<g clip-path="url(#c0_1)">
<g fill="#FFFFFF" >
<use xlink:href="#f0_o" transform="matrix(14.1,0,0,14.1,446.8,535)" />
<use xlink:href="#f0_j" transform="matrix(14.1,0,0,14.1,451.7,535)" />
<use xlink:href="#f0_7" transform="matrix(14.1,0,0,14.1,456.6,535)" />
<use xlink:href="#f0_e" transform="matrix(14.1,0,0,14.1,467.4,535)" />
<use xlink:href="#f0_13" transform="matrix(9.4,0,0,9.4,425.3,553.7)" />
</g>
</g>
<text x="436" y="535" dx="0,0,0,0,0.1,0.1" class="s1_1">Files </text>
<g clip-path="url(#c0_1)">
<g fill="#FFFFFF" >
<use xlink:href="#f0_o" transform="matrix(9.4,0,0,9.4,429.7,553.7)" />
<use xlink:href="#f0_z" transform="matrix(9.4,0,0,9.4,433,553.7)" />
<use xlink:href="#f0_x" transform="matrix(9.4,0,0,9.4,444.6,553.7)" />
<use xlink:href="#f0_g" transform="matrix(9.4,0,0,9.4,451.5,553.7)" />
<use xlink:href="#f0_7" transform="matrix(9.4,0,0,9.4,458.3,553.7)" />
<use xlink:href="#f0_e" transform="matrix(9.4,0,0,9.4,465.4,553.7)" />
<use xlink:href="#f0_14" transform="matrix(9.4,0,0,9.4,471.2,553.7)" />
<use xlink:href="#f0_16" transform="matrix(9.4,0,0,9.4,478,553.7)" />
<use xlink:href="#f0_17" transform="matrix(9.4,0,0,9.4,488.1,553.7)" />
</g>
</g>
<text x="425" y="553" dx="0,0.1,-0.1,0.1,0,0.1,-0.1,0.2,0.1,0,0.2" class="s2_1">(images, …)</text>
<path d="M400.1,522L375.7,495.6" class="g8_1" />
<path fill-rule="evenodd" d="M358.3,476.7l28.8,10.9l-20.2,18.7l-8.6,-29.6Z" class="g2_1" />
<path d="M559.5,477.9l-24.1,25.4" class="g9_1" />
<path fill-rule="evenodd" d="M517.7,522l9,-29.5l20,19l-29,10.5Z" class="g6_1" />
<path fill-rule="evenodd" d="M517.8,254.4v-.9l.1,-.4l.1,-.4l.1,-.4l.1,-.5l.1,-.4l.2,-.4l.2,-.4l.2,-.4l.2,-.3l.2,-.4l.3,-.3l.3,-.4l.3,-.3l.3,-.3l.4,-.2l.3,-.3l.3,-.2l.4,-.3l.4,-.2l.4,-.1l.4,-.2l.4,-.2l.4,-.1l.4,-.1l.5,-.1h.4l.4,-.1h79.7l.4,.1h.5l.4,.1l.4,.1l.4,.1l.4,.2l.4,.2l.4,.1l.4,.2l.4,.3l.3,.2l.4,.3l.3,.2l.3,.3l.3,.3l.3,.4l.3,.3l.2,.4l.2,.4l.2,.3l.2,.4l.2,.4l.2,.4v.5l.2,.4l.1,.4v1.3l.1,33v.5l-.1,.4v.4l-.1,.5l-.1,.4l-.1,.4l-.2,.4l-.2,.4l-.1,.4l-.2,.3l-.3,.4l-.2,.4l-.3,.3l-.2,.4l-.3,.3l-.3,.3l-.4,.2l-.3,.3l-.4,.3l-.3,.2l-.4,.2l-.4,.2l-.4,.1l-.4,.2l-.5,.1l-.4,.1l-.4,.1l-.4,.1h-81l-.5,-.1l-.4,-.2h-.4l-.4,-.2l-.4,-.2l-.4,-.2l-.4,-.2l-.4,-.2l-.3,-.2l-.3,-.3l-.4,-.3l-.3,-.3l-.3,-.3l-.3,-.3l-.3,-.4l-.2,-.3l-.2,-.4l-.2,-.4l-.2,-.3l-.2,-.5l-.1,-.4l-.1,-.4l-.1,-.4l-.1,-.4l-.1,-.5V254.4Z" class="g5_1" />
<path d="M517.8,254.4v-.9l.1,-.4l.1,-.4l.1,-.4l.1,-.5l.1,-.4l.2,-.4l.2,-.4l.2,-.4l.2,-.3l.2,-.4l.3,-.3l.3,-.4l.3,-.3l.3,-.3l.4,-.2l.3,-.3l.3,-.2l.4,-.3l.4,-.2l.4,-.1l.4,-.2l.4,-.2l.4,-.1l.4,-.1l.5,-.1h.4l.4,-.1h79.7l.4,.1h.5l.4,.1l.4,.1l.4,.1l.4,.2l.4,.2l.4,.1l.4,.2l.4,.3l.3,.2l.4,.3l.3,.2l.3,.3l.3,.3l.3,.4l.3,.3l.2,.4l.2,.4l.2,.3l.2,.4l.2,.4l.2,.4v.5l.2,.4l.1,.4v1.3l.1,33v.5l-.1,.4v.4l-.1,.5l-.1,.4l-.1,.4l-.2,.4l-.2,.4l-.1,.4l-.2,.3l-.3,.4l-.2,.4l-.3,.3l-.2,.4l-.3,.3l-.3,.3l-.4,.2l-.3,.3l-.4,.3l-.3,.2l-.4,.2l-.4,.2l-.4,.1l-.4,.2l-.5,.1l-.4,.1l-.4,.1l-.4,.1h-81l-.5,-.1l-.4,-.2h-.4l-.4,-.2l-.4,-.2l-.4,-.2l-.4,-.2l-.4,-.2l-.3,-.2l-.3,-.3l-.4,-.3l-.3,-.3l-.3,-.3l-.3,-.3l-.3,-.4l-.2,-.3l-.2,-.4l-.2,-.4l-.2,-.3l-.2,-.5l-.1,-.4l-.1,-.4l-.1,-.4l-.1,-.4l-.1,-.5V254.4Z" class="g16_1" />
<g clip-path="url(#c0_1)">
<g fill="#FFFFFF" >
<use xlink:href="#f0_c" transform="matrix(9.4,0,0,9.4,528.8,268.1)" />
<use xlink:href="#f0_o" transform="matrix(9.4,0,0,9.4,536.6,268.1)" />
<use xlink:href="#f0_c" transform="matrix(9.4,0,0,9.4,539.8,268.1)" />
<use xlink:href="#f0_j" transform="matrix(9.4,0,0,9.4,547.6,268.1)" />
<use xlink:href="#f0_o" transform="matrix(9.4,0,0,9.4,550.8,268.1)" />
<use xlink:href="#f0_b" transform="matrix(9.4,0,0,9.4,554.1,268.1)" />
<use xlink:href="#f0_g" transform="matrix(9.4,0,0,9.4,561.8,268.1)" />
<use xlink:href="#f0_8" transform="matrix(9.4,0,0,9.4,568.6,268.1)" />
<use xlink:href="#f0_x" transform="matrix(9.4,0,0,9.4,573.4,268.1)" />
<use xlink:href="#f0_4" transform="matrix(9.4,0,0,9.4,580.4,268.1)" />
<use xlink:href="#f0_1i" transform="matrix(9.4,0,0,9.4,588,268.1)" />
<use xlink:href="#f0_5" transform="matrix(9.4,0,0,9.4,595.4,268.1)" />
<use xlink:href="#f0_7" transform="matrix(9.4,0,0,9.4,556.6,285.4)" />
</g>
</g>
<text x="528" y="268" dx="0,0.2,-0.1,0.2,-0.1,0.1,0.1,0.1,-0.3,0.1,0.1,-0.2,0.1" class="s2_1">bibliography </text>
<g clip-path="url(#c0_1)">
<g fill="#FFFFFF" >
<use xlink:href="#f0_6" transform="matrix(9.4,0,0,9.4,563.8,285.4)" />
<use xlink:href="#f0_m" transform="matrix(9.4,0,0,9.4,568.3,285.4)" />
</g>
</g>
<text x="556" y="285" dx="0,0,-0.2" class="s2_1">etc</text>

<defs>
<path d="M142,-9c0,0,-29,0,-57,4C85,-5,57,-1,25,7c0,0,2,21,4,41c0,0,2,21,4,40c0,0,1,11,8,19c0,0,7,7,22,7c0,0,9,0,25,-5c0,0,15,-6,40,-6c0,0,67,0,103,55c0,0,35,55,35,178V980H401V339c0,0,0,-82,-16,-147c0,0,-16,-64,-49,-110c0,0,-33,-45,-82,-69C254,13,206,-9,142,-9Z" 
id="f0_2"
transform="scale(0.001,-0.001)" />

<path d="M336,-10c0,0,-60,0,-105,19c0,0,-45,19,-76,56c0,0,-30,36,-46,87c0,0,-16,51,-16,113V730H225V265c0,0,0,-82,36,-127c0,0,37,-45,113,-45c0,0,56,0,104,26c0,0,48,26,89,73V730H698V0H619c0,0,-13,0,-22,6c0,0,-9,7,-11,21l-12,77c0,0,-47,-52,-104,-83c0,0,-58,-31,-134,-31Z" 
id="f0_3"
transform="scale(0.001,-0.001)" />

<path d="M404,91c0,0,100,0,154,72c0,0,54,73,54,207c0,0,0,71,-12,122c0,0,-12,50,-36,83c0,0,-23,32,-57,47c0,0,-34,15,-77,15c0,0,-61,0,-108,-28c0,0,-47,-29,-86,-81V176c0,0,35,-47,76,-66c0,0,42,-19,92,-19ZM105,-245V730h79c0,0,14,0,23,-7c0,0,9,-6,10,-20l13,-85c0,0,46,56,106,90c0,0,59,34,137,34c0,0,63,0,113,-24c0,0,51,-24,87,-71c0,0,36,-47,55,-117c0,0,19,-69,19,-160c0,0,0,-81,-21,-150c0,0,-22,-70,-62,-121c0,0,-41,-51,-99,-80C565,19,507,-9,433,-9c0,0,-66,0,-113,21c0,0,-47,22,-84,63V-245Z" 
id="f0_4"
transform="scale(0.001,-0.001)" />

<path d="M162,-245L287,43L8,730H122c0,0,17,0,26,-9c0,0,9,-8,13,-18L331,246c0,0,6,-15,12,-31c0,0,5,-16,9,-31c0,0,5,16,10,32c0,0,6,16,12,32L539,703c0,0,4,11,15,19c0,0,10,8,23,8H681L305,-214c0,0,-6,-15,-16,-23c0,0,-10,-8,-29,-8Z" 
id="f0_5"
transform="scale(0.001,-0.001)" />

<path d="M311,-10c0,0,-84,0,-130,47c0,0,-45,49,-45,139V621H52c0,0,-11,0,-19,7c0,0,-8,8,-8,22v52l115,15l31,224c0,0,1,12,9,18c0,0,8,7,20,7h67V716H468V621H267V185c0,0,0,-45,21,-67c0,0,20,-23,53,-23c0,0,19,0,33,6c0,0,14,5,24,12c0,0,9,6,16,12c0,0,7,5,13,5c0,0,7,0,11,-3c0,0,4,-3,8,-10L485,54C485,54,451,23,406,6c0,0,-46,-16,-95,-16Z" 
id="f0_6"
transform="scale(0.001,-0.001)" />

<path d="M587,445c0,0,0,44,-13,81c0,0,-12,36,-36,63c0,0,-24,26,-59,41c0,0,-34,15,-78,15c0,0,-91,0,-145,-53c0,0,-53,-54,-67,-147ZM406,-9c0,0,-76,0,-140,24c0,0,-65,25,-111,75c0,0,-47,50,-73,122c0,0,-26,73,-26,168c0,0,0,76,23,142c0,0,24,66,68,115c0,0,45,49,108,76c0,0,64,28,144,28c0,0,66,0,122,-22c0,0,56,-22,97,-63c0,0,41,-42,64,-102c0,0,23,-61,23,-139c0,0,0,-31,-7,-41c0,0,-6,-10,-24,-10H186c0,0,1,-69,18,-120c0,0,18,-51,48,-84c0,0,30,-34,72,-51c0,0,42,-16,93,-16c0,0,48,0,83,10c0,0,35,11,60,25c0,0,25,13,42,24c0,0,17,11,30,11c0,0,8,0,14,-4c0,0,6,-3,10,-9l38,-48c0,0,-25,-29,-58,-50c0,0,-33,-21,-71,-35C565,17,527,3,486,-3c0,0,-41,-6,-80,-6Z" 
id="f0_7"
transform="scale(0.001,-0.001)" />

<path d="M98,0V730h75c0,0,21,0,30,-9c0,0,8,-8,10,-27l9,-108c0,0,33,73,82,114c0,0,50,42,119,42c0,0,23,0,43,-5c0,0,20,-4,37,-16L492,624c0,0,-2,-18,-21,-18c0,0,-10,0,-29,4c0,0,-19,4,-42,4c0,0,-34,0,-59,-10c0,0,-26,-10,-47,-30c0,0,-20,-20,-36,-48c0,0,-16,-28,-29,-65V0Z" 
id="f0_8"
transform="scale(0.001,-0.001)" />

<path d="M110,0V980h71c0,0,17,0,26,-4c0,0,9,-4,21,-19L760,224c0,0,-1,18,-2,35c0,0,-2,18,-2,33V980H876V0H807c0,0,-16,0,-26,5c0,0,-11,5,-22,19L227,755c0,0,1,-17,2,-33c0,0,1,-16,1,-30V0Z" 
id="f0_a"
transform="scale(0.001,-0.001)" />

<path d="M404,92c0,0,53,0,92,18c0,0,40,18,66,53c0,0,27,35,40,86c0,0,13,51,13,116c0,0,0,65,-13,115c0,0,-13,51,-40,86c0,0,-26,35,-66,54c0,0,-39,19,-92,19c0,0,-54,0,-94,-19c0,0,-40,-19,-66,-54c0,0,-27,-35,-40,-86c0,0,-13,-50,-13,-115c0,0,0,-65,13,-116c0,0,13,-51,40,-86c0,0,26,-35,66,-53c0,0,40,-18,94,-18ZM404,-9c0,0,-80,0,-145,25c0,0,-64,27,-109,75c0,0,-46,49,-70,119c0,0,-24,69,-24,156c0,0,0,85,24,155c0,0,24,69,70,118c0,0,45,49,109,75c0,0,65,27,145,27c0,0,79,0,144,-27c0,0,64,-26,108,-75c0,0,45,-49,69,-118c0,0,25,-70,25,-155c0,0,0,-87,-25,-156c0,0,-24,-70,-69,-119C656,91,612,43,548,16C548,16,483,-9,404,-9Z" 
id="f0_b"
transform="scale(0.001,-0.001)" />

<path d="M404,91c0,0,101,0,155,72c0,0,53,73,53,216c0,0,0,133,-47,195c0,0,-48,63,-136,63c0,0,-60,0,-106,-28c0,0,-46,-29,-84,-81V176c0,0,34,-47,75,-66c0,0,41,-19,90,-19ZM437,-9c0,0,-71,0,-120,26c0,0,-48,27,-85,76L225,28C225,28,222,0,192,0H107V1061H239V626c0,0,44,53,102,84c0,0,57,31,132,31c0,0,63,0,114,-25c0,0,51,-24,87,-71c0,0,35,-46,54,-112c0,0,19,-66,19,-150c0,0,0,-88,-21,-161c0,0,-22,-72,-62,-124c0,0,-40,-52,-98,-80C566,18,509,-9,437,-9Z" 
id="f0_c"
transform="scale(0.001,-0.001)" />

<path d="M95,0V1061H227V437h30c0,0,14,0,22,4c0,0,9,4,19,16L492,704c0,0,10,12,21,19c0,0,11,7,29,7H661L432,442c0,0,-11,-11,-21,-20c0,0,-10,-9,-22,-17c0,0,12,-8,22,-20c0,0,10,-11,21,-24L676,0H558c0,0,-16,0,-28,6c0,0,-12,5,-21,19L310,324c0,0,-11,15,-20,20c0,0,-10,4,-30,4H227V0Z" 
id="f0_d"
transform="scale(0.001,-0.001)" />

<path d="M284,-10c0,0,-72,0,-131,23C153,13,93,38,52,78l31,49c0,0,6,10,14,15c0,0,8,5,21,5c0,0,13,0,27,-10c0,0,13,-10,32,-22c0,0,19,-13,46,-23c0,0,27,-10,67,-10c0,0,35,0,59,10c0,0,25,9,42,25c0,0,16,17,25,38c0,0,8,22,8,46c0,0,0,30,-16,49c0,0,-15,20,-39,34c0,0,-25,14,-57,24c0,0,-32,11,-65,22c0,0,-33,12,-65,26c0,0,-31,15,-56,38c0,0,-25,22,-40,55c0,0,-15,33,-15,80c0,0,0,42,16,81c0,0,17,38,48,67c0,0,31,29,78,47c0,0,46,17,106,17c0,0,67,0,123,-23c0,0,55,-22,94,-62L507,609c0,0,-9,-17,-27,-17c0,0,-12,0,-25,9c0,0,-13,8,-31,17c0,0,-18,9,-43,18c0,0,-25,8,-59,8c0,0,-30,0,-53,-8c0,0,-23,-9,-39,-23c0,0,-17,-14,-26,-33c0,0,-9,-19,-9,-41c0,0,0,-28,15,-47c0,0,15,-18,40,-32c0,0,25,-13,56,-24c0,0,32,-11,65,-22c0,0,33,-11,64,-26c0,0,32,-15,57,-37c0,0,24,-21,39,-52c0,0,15,-31,15,-75c0,0,0,-51,-17,-94c0,0,-17,-43,-50,-74C479,56,445,25,396,7c0,0,-48,-17,-112,-17Z" 
id="f0_e"
transform="scale(0.001,-0.001)" />

<path d="M125,0V980H225c0,0,17,0,28,-3c0,0,10,-3,19,-20L623,357c0,0,10,-17,17,-35c0,0,8,-18,16,-36c0,0,7,19,15,37c0,0,8,18,17,34l346,601c0,0,9,16,19,19c0,0,11,3,29,3h100V0H1062V715c0,0,0,15,1,34c0,0,1,18,2,37L715,171c0,0,-17,-31,-49,-31H647c0,0,-32,0,-49,31L239,785c0,0,5,-38,5,-70V0Z" 
id="f0_f"
transform="scale(0.001,-0.001)" />

<path d="M355,-167c0,0,49,0,87,10c0,0,38,10,65,26c0,0,26,17,39,41c0,0,13,23,13,51c0,0,0,27,-13,42c0,0,-14,16,-38,26c0,0,-24,9,-55,13c0,0,-32,4,-67,6c0,0,-35,3,-71,4c0,0,-36,2,-70,7c0,0,-36,-19,-59,-47c0,0,-23,-26,-23,-64c0,0,0,-25,11,-45c0,0,11,-21,34,-37c0,0,24,-15,61,-24c0,0,36,-9,86,-9ZM345,358c0,0,72,0,109,40c0,0,37,41,37,106c0,0,0,66,-37,105c0,0,-37,39,-109,39c0,0,-71,0,-108,-39c0,0,-37,-39,-37,-105c0,0,0,-33,9,-59c0,0,10,-26,28,-46c0,0,18,-19,45,-30c0,0,28,-11,63,-11Zm8,-620c0,0,-77,0,-134,16c0,0,-58,16,-96,43c0,0,-38,26,-57,62c0,0,-18,35,-18,73c0,0,0,53,31,90c0,0,32,37,88,59c0,0,-30,14,-48,38c0,0,-18,25,-18,66c0,0,0,31,22,66c0,0,22,35,67,59c0,0,-51,30,-81,80c0,0,-29,50,-29,117c0,0,0,53,20,97c0,0,19,43,54,74c0,0,35,31,84,47c0,0,48,17,107,17c0,0,45,0,85,-11c0,0,39,-10,71,-30H692V653c0,0,0,-26,-30,-31L585,611c0,0,23,-48,23,-104c0,0,0,-54,-20,-97c0,0,-20,-44,-55,-74c0,0,-35,-31,-83,-48c0,0,-48,-16,-105,-16c0,0,-48,0,-88,11c0,0,-22,-14,-32,-30c0,0,-11,-17,-11,-32c0,0,0,-26,20,-39c0,0,20,-13,53,-19c0,0,33,-6,75,-7c0,0,42,-2,85,-5c0,0,44,-3,86,-11c0,0,41,-7,74,-25c0,0,33,-19,53,-50c0,0,20,-32,20,-82c0,0,0,-47,-22,-91c0,0,-22,-44,-65,-78c0,0,-42,-35,-103,-55c0,0,-60,-21,-137,-21Z" 
id="f0_g"
transform="scale(0.001,-0.001)" />

<path d="M401,95c0,0,83,0,149,29c0,0,66,30,116,79L354,508c0,0,-79,-40,-119,-97c0,0,-40,-57,-40,-125c0,0,0,-47,18,-82c0,0,18,-35,47,-60c0,0,29,-24,66,-37c0,0,37,-12,75,-12ZM379,-10c0,0,-59,0,-116,18c0,0,-57,20,-102,57c0,0,-45,36,-72,90c0,0,-27,53,-27,120c0,0,0,50,17,95c0,0,18,46,49,84c0,0,30,38,73,68c0,0,42,31,92,52c0,0,-45,56,-67,108c0,0,-21,52,-21,108c0,0,0,52,20,98c0,0,20,47,57,81c0,0,37,35,89,55c0,0,53,20,118,20c0,0,59,0,107,-19c0,0,49,-18,84,-49c0,0,35,-30,55,-70c0,0,21,-40,23,-83L677,806c0,0,-3,0,-7,0c-4,0,-10,1,-15,3c0,0,-10,6,-14,20c0,0,-6,18,-17,39c0,0,-12,20,-30,36c0,0,-19,17,-45,27c0,0,-25,11,-60,11c0,0,-37,0,-67,-11c0,0,-30,-12,-50,-32c0,0,-21,-21,-33,-49c0,0,-12,-27,-12,-59c0,0,0,-49,25,-95c0,0,25,-45,81,-99L739,295c0,0,29,49,45,102c0,0,17,53,23,107c0,0,2,29,30,29h80c0,0,-1,-83,-27,-163c0,0,-26,-81,-75,-151L1038,0H911c0,0,-22,0,-35,5c0,0,-13,5,-29,21L739,131C739,131,670,66,579,27c0,0,-91,-37,-200,-37Z" 
id="f0_h"
transform="scale(0.001,-0.001)" />

<path d="M610,364L471,759c0,0,-7,18,-14,41c0,0,-8,24,-15,52c0,0,-7,-28,-15,-52c0,0,-7,-24,-14,-42L275,364ZM6,0L374,980H512L879,0H774c0,0,-18,0,-29,9c0,0,-11,9,-17,22L645,267H240L157,32c0,0,-4,-13,-16,-22C141,10,128,0,111,0Z" 
id="f0_i"
transform="scale(0.001,-0.001)" />

<path d="M110,0V1061H241V0Z" 
id="f0_j"
transform="scale(0.001,-0.001)" />

<path d="M391,473c0,0,52,0,92,15c0,0,41,15,68,42c0,0,27,27,41,64c0,0,14,37,14,82c0,0,0,94,-53,146c0,0,-53,52,-162,52H245V473ZM110,0V980H391c0,0,89,0,155,-21c0,0,66,-22,110,-62c0,0,43,-39,64,-95c0,0,22,-57,22,-126c0,0,0,-69,-23,-125c0,0,-23,-57,-67,-99c0,0,-45,-41,-110,-64c0,0,-65,-22,-151,-22H245V0Z" 
id="f0_k"
transform="scale(0.001,-0.001)" />

<path d="M56,376V487H413V376Z" 
id="f0_l"
transform="scale(0.001,-0.001)" />

<path d="M357,-9c0,0,-64,0,-120,24c0,0,-56,25,-97,73c0,0,-42,49,-65,118c0,0,-24,70,-24,160c0,0,0,81,22,150c0,0,22,69,63,119c0,0,42,50,102,78c0,0,61,28,140,28c0,0,75,0,131,-25c0,0,56,-25,99,-70L574,598c0,0,-6,-8,-12,-12c0,0,-5,-4,-16,-4c0,0,-11,0,-23,9c0,0,-12,9,-30,20c0,0,-18,10,-44,19c0,0,-25,9,-63,9c0,0,-49,0,-86,-19c0,0,-38,-19,-63,-54c0,0,-25,-36,-38,-86c0,0,-13,-51,-13,-114c0,0,0,-66,14,-117c0,0,13,-51,39,-86c0,0,25,-35,61,-54c0,0,36,-18,80,-18c0,0,44,0,71,11c0,0,28,11,47,25c0,0,18,13,31,24c0,0,12,12,25,12c0,0,15,0,24,-13l38,-48c0,0,-24,-29,-53,-50c0,0,-29,-21,-62,-35C501,17,467,3,431,-3c0,0,-36,-6,-74,-6Z" 
id="f0_m"
transform="scale(0.001,-0.001)" />

<path d="M371,95c0,0,62,0,108,28c0,0,45,29,85,81V557c0,0,-35,47,-76,66c0,0,-41,19,-91,19c0,0,-99,0,-153,-73c0,0,-54,-72,-54,-206c0,0,0,-71,13,-122c0,0,12,-51,35,-83c0,0,23,-33,57,-48c0,0,33,-15,76,-15ZM328,-9c0,0,-62,0,-112,23c0,0,-50,24,-86,71c0,0,-36,47,-55,117c0,0,-20,70,-20,161c0,0,0,80,21,150c0,0,22,70,62,120c0,0,40,51,98,80c0,0,58,29,131,29c0,0,66,0,113,-22c0,0,47,-22,84,-63v404H695V0H617c0,0,-14,0,-23,6c0,0,-9,7,-11,21l-13,87c0,0,-46,-56,-105,-90C465,24,406,-9,328,-9Z" 
id="f0_n"
transform="scale(0.001,-0.001)" />

<path d="M110,0V730H241V0Zm63,866c0,0,-19,0,-35,8c0,0,-16,7,-29,19c0,0,-12,13,-19,29c0,0,-8,17,-8,36c0,0,0,19,8,36c0,0,7,17,19,29c0,0,13,13,29,21c0,0,16,7,35,7c0,0,19,0,35,-7c0,0,17,-8,30,-21c0,0,13,-12,21,-29c0,0,7,-17,7,-36c0,0,0,-19,-7,-36c0,0,-8,-16,-21,-29c0,0,-13,-12,-29,-19c0,0,-17,-8,-36,-8Z" 
id="f0_o"
transform="scale(0.001,-0.001)" />

<path d="M131,0V620L53,630c0,0,-16,1,-25,9c0,0,-10,9,-10,23v54H131v95c0,0,0,119,53,181c0,0,54,61,151,61c0,0,17,0,31,-1c0,0,14,-2,26,-6V974c0,0,0,-11,-10,-14c0,0,-11,-3,-28,-3c0,0,-50,0,-73,-34c0,0,-24,-34,-24,-111V716H691V0H559V621H262V0ZM624,871c0,0,-18,0,-35,8c0,0,-16,7,-28,20c0,0,-13,12,-20,29c0,0,-8,16,-8,35c0,0,0,19,8,36c0,0,7,17,20,30c0,0,12,12,28,20c0,0,17,7,35,7c0,0,19,0,36,-7c0,0,17,-8,30,-20c0,0,13,-13,20,-30c0,0,8,-17,8,-36c0,0,0,-19,-8,-35c0,0,-7,-17,-20,-29c0,0,-13,-13,-30,-20c0,0,-17,-8,-36,-8Z" 
id="f0_s"
transform="scale(0.001,-0.001)" />

<path d="M104,0V730h79c0,0,14,0,23,-7c0,0,9,-6,10,-20l12,-78c0,0,47,52,105,84c0,0,58,32,134,32c0,0,60,0,105,-20c0,0,45,-20,76,-56c0,0,30,-36,46,-87c0,0,15,-51,15,-113V0H578V465c0,0,0,81,-37,127c0,0,-37,45,-112,45c0,0,-56,0,-104,-26c0,0,-49,-27,-89,-74V0Z" 
id="f0_u"
transform="scale(0.001,-0.001)" />

<path d="M43,-261c0,0,-24,0,-43,4c0,0,-20,3,-40,10l7,70c0,0,1,7,4,11c0,0,2,3,8,4c0,0,4,0,10,0c1,0,3,0,5,0c0,0,8,0,22,0c0,0,57,0,82,26c0,0,24,26,24,84V730H254V-52c0,0,0,-44,-12,-82c0,0,-12,-38,-38,-66c0,0,-26,-28,-66,-44c0,0,-40,-17,-95,-17ZM187,866c0,0,-18,0,-35,8c0,0,-16,7,-29,19c0,0,-12,13,-19,29c0,0,-8,17,-8,36c0,0,0,19,8,36c0,0,7,17,19,29c0,0,13,13,29,21c0,0,17,7,35,7c0,0,19,0,36,-7c0,0,16,-8,30,-21c0,0,13,-12,20,-29c0,0,7,-17,7,-36c0,0,0,-19,-7,-36c0,0,-7,-16,-20,-29c0,0,-14,-12,-30,-19c0,0,-17,-8,-36,-8Z" 
id="f0_v"
transform="scale(0.001,-0.001)" />

<path d="M307,81c0,0,32,0,60,6c0,0,28,7,52,19c0,0,25,13,47,31c0,0,22,18,44,41V328c0,0,-88,-3,-149,-14c0,0,-61,-11,-100,-29c0,0,-38,-18,-55,-42c0,0,-17,-24,-17,-54c0,0,0,-29,9,-49c0,0,9,-21,25,-34c0,0,16,-13,37,-19c0,0,22,-6,47,-6ZM267,-10c0,0,-42,0,-79,10c0,0,-37,12,-65,36c0,0,-28,24,-44,61c0,0,-16,36,-16,85c0,0,0,43,23,83c0,0,24,40,77,71c0,0,53,32,138,52c0,0,85,19,209,22v56c0,0,0,85,-37,128c0,0,-36,43,-105,43c0,0,-46,0,-78,-12c0,0,-32,-12,-55,-26c0,0,-23,-14,-40,-26c0,0,-17,-12,-34,-12c0,0,-13,0,-23,7c0,0,-10,6,-16,17L98,627c0,0,61,58,131,87c0,0,69,28,154,28c0,0,62,0,109,-20c0,0,48,-19,80,-56c0,0,32,-36,49,-87c0,0,17,-51,17,-113V0H580c0,0,-20,0,-30,6c0,0,-11,6,-14,25L519,98c0,0,-28,-26,-55,-46c0,0,-28,-21,-57,-35C407,17,377,3,342,-3c0,0,-34,-7,-75,-7Z" 
id="f0_x"
transform="scale(0.001,-0.001)" />

<path d="M304,0V867H18V980H727V867H441V0Z" 
id="f0_y"
transform="scale(0.001,-0.001)" />

<path d="M110,0V730h77c0,0,15,0,24,-7c0,0,8,-6,10,-20l11,-75c0,0,21,25,44,45c0,0,22,21,49,36c0,0,26,15,55,24c0,0,30,8,64,8c0,0,75,0,123,-41c0,0,47,-41,67,-111c0,0,16,41,41,69c0,0,26,28,58,47c0,0,31,19,67,27c0,0,36,9,73,9c0,0,119,0,184,-72c0,0,66,-71,66,-204V0H991V465c0,0,0,85,-38,128c0,0,-39,44,-112,44c0,0,-32,0,-61,-11c0,0,-30,-11,-52,-33c0,0,-22,-22,-35,-54c0,0,-13,-32,-13,-74V0H549V465c0,0,0,87,-36,130c0,0,-36,42,-106,42c0,0,-48,0,-90,-25c0,0,-42,-25,-76,-69V0Z" 
id="f0_z"
transform="scale(0.001,-0.001)" />

<path d="M17,0L244,374L27,730H152c0,0,15,0,22,-6c0,0,7,-5,13,-14L339,445c0,0,3,9,7,16c0,0,3,8,9,16L483,707c0,0,6,11,14,17c0,0,7,6,18,6H635L417,381L645,0H518c0,0,-14,0,-24,9c0,0,-9,8,-15,18L325,303c0,0,-6,-17,-14,-29L172,27c0,0,-6,-11,-15,-19c0,0,-9,-8,-23,-8Z" 
id="f0_10"
transform="scale(0.001,-0.001)" />

<path d="M436,107c0,0,52,0,89,13c0,0,37,14,60,37c0,0,24,23,35,55c0,0,10,33,10,71c0,0,0,75,-47,119c0,0,-47,44,-147,44H243V107ZM401,542c0,0,50,0,88,12c0,0,37,12,62,34c0,0,24,21,36,52c0,0,13,31,13,68c0,0,0,86,-47,126c0,0,-46,40,-146,40H243V542ZM107,0V980H407c0,0,86,0,148,-17c0,0,63,-18,103,-51c0,0,39,-33,58,-81c0,0,19,-47,19,-107c0,0,0,-35,-11,-69c0,0,-11,-34,-32,-62c0,0,-22,-28,-55,-51c0,0,-33,-24,-78,-38c0,0,103,-20,155,-76c0,0,51,-57,51,-148c0,0,0,-63,-21,-114c0,0,-22,-52,-64,-89C680,77,639,40,578,20C578,20,517,0,439,0Z" 
id="f0_11"
transform="scale(0.001,-0.001)" />

<path d="M103,0V980H658V870H239V530H595V420H239V0Z" 
id="f0_12"
transform="scale(0.001,-0.001)" />

<path d="M310,-211c0,0,-54,83,-92,165c0,0,-37,80,-61,162c0,0,-23,82,-34,166c0,0,-11,84,-11,171c0,0,0,87,11,171c0,0,11,83,34,165c0,0,24,82,61,164c0,0,38,81,92,164l58,-35c0,0,11,-8,17,-20c0,0,6,-12,-6,-34c0,0,-75,-131,-114,-276c0,0,-39,-146,-39,-299c0,0,0,-155,39,-300c0,0,39,-145,114,-275c0,0,12,-22,6,-34c0,0,-6,-12,-17,-19l-58,-36Z" 
id="f0_13"
transform="scale(0.001,-0.001)" />

<path d="M143,-194l-22,20c0,0,-10,9,-10,21c0,0,0,9,11,20c0,0,6,7,17,21c0,0,12,13,23,30c0,0,12,17,22,38c0,0,9,21,14,44h-9c0,0,-38,0,-61,25c0,0,-24,26,-24,65c0,0,0,16,7,31c0,0,6,15,17,26c0,0,12,11,28,18c0,0,16,7,35,7c0,0,22,0,39,-9c0,0,17,-8,28,-22c0,0,11,-13,17,-32c0,0,5,-19,5,-41c0,0,0,-32,-9,-67c0,0,-9,-34,-27,-69c0,0,-17,-34,-43,-66c0,0,-25,-33,-58,-60Z" 
id="f0_14"
transform="scale(0.001,-0.001)" />

<path d="M104,0V980H241V544H711V980H847V0H711V445H241V0Z" 
id="f0_15"
transform="scale(0.001,-0.001)" />

<path d="M142,-11c0,0,-18,0,-35,8c0,0,-16,6,-28,18C79,15,66,28,59,44c0,0,-8,17,-8,36c0,0,0,19,8,36c0,0,7,17,20,29c0,0,12,13,28,21c0,0,17,7,35,7c0,0,19,0,36,-7c0,0,17,-8,30,-21c0,0,13,-12,20,-29c0,0,8,-17,8,-36c0,0,0,-19,-8,-36c0,0,-7,-16,-20,-29C208,15,195,3,178,-3c0,0,-17,-8,-36,-8Zm378,0c0,0,-19,0,-35,8c0,0,-17,6,-29,18c0,0,-12,13,-20,29c0,0,-7,17,-7,36c0,0,0,19,7,36c0,0,8,17,20,29c0,0,12,13,29,21c0,0,16,7,35,7c0,0,19,0,35,-7c0,0,17,-8,30,-21c0,0,13,-12,21,-29c0,0,7,-17,7,-36c0,0,0,-19,-7,-36c0,0,-8,-16,-21,-29C585,15,572,3,555,-3c0,0,-16,-8,-35,-8Zm389,0c0,0,-19,0,-35,8c0,0,-17,6,-29,18c0,0,-12,13,-20,29c0,0,-7,17,-7,36c0,0,0,19,7,36c0,0,8,17,20,29c0,0,12,13,29,21c0,0,16,7,35,7c0,0,18,0,35,-7c0,0,17,-8,30,-21c0,0,13,-12,20,-29c0,0,8,-17,8,-36c0,0,0,-19,-8,-36c0,0,-7,-16,-20,-29C974,15,961,3,944,-3c0,0,-17,-8,-35,-8Z" 
id="f0_16"
transform="scale(0.001,-0.001)" />

<path d="M154,-211l-59,36c0,0,-5,3,-10,8c0,0,-4,5,-7,11c0,0,-2,6,-1,15c0,0,1,8,7,19c0,0,75,130,114,275c0,0,39,145,39,300c0,0,0,153,-39,299c0,0,-39,145,-114,276c0,0,-6,11,-7,19c0,0,-1,9,1,15c0,0,3,7,7,11c0,0,5,5,10,9l59,35c0,0,53,-83,91,-164c0,0,38,-82,61,-164c0,0,24,-82,35,-165c0,0,10,-84,10,-171c0,0,0,-87,-10,-171c0,0,-11,-84,-35,-166c0,0,-23,-82,-61,-162c0,0,-38,-82,-91,-165Z" 
id="f0_17"
transform="scale(0.001,-0.001)" />

<path d="M103,0V980H239V114H617V0Z" 
id="f0_18"
transform="scale(0.001,-0.001)" />

<path d="M8,0L304,503L20,980H155c0,0,15,0,22,-5c0,0,7,-5,12,-13L405,580c0,0,5,12,12,22L615,959c0,0,6,10,13,16c0,0,8,5,18,5H776L491,510L785,0H650c0,0,-15,0,-23,8c0,0,-9,8,-15,17L391,425c0,0,-4,-11,-9,-18L170,25c0,0,-6,-9,-14,-17c0,0,-8,-8,-21,-8Z" 
id="f0_19"
transform="scale(0.001,-0.001)" />

<path d="M468,-9c0,0,-95,0,-172,35c0,0,-77,37,-132,103c0,0,-55,66,-85,158c0,0,-29,92,-29,203c0,0,0,111,31,203c0,0,32,93,88,159c0,0,57,66,136,103c0,0,79,36,175,36c0,0,94,0,166,-33c0,0,72,-34,126,-91L727,804c0,0,-4,-7,-11,-11c0,0,-7,-4,-17,-4c0,0,-13,0,-28,13c0,0,-15,13,-40,29c0,0,-25,16,-61,30c0,0,-37,13,-91,13c0,0,-64,0,-118,-26c0,0,-53,-26,-91,-76c0,0,-39,-49,-60,-120c0,0,-21,-72,-21,-162c0,0,0,-91,22,-163c0,0,22,-71,61,-120c0,0,39,-50,92,-76c0,0,52,-26,113,-26c0,0,37,0,66,5c0,0,30,6,55,16c0,0,25,11,47,28c0,0,22,17,44,40c0,0,11,10,23,10c0,0,10,0,19,-9l54,-58C785,137,732,67,654,28C654,28,577,-9,468,-9Z" 
id="f0_1a"
transform="scale(0.001,-0.001)" />

<path d="M286,0L14,730H122c0,0,15,0,26,-9c0,0,10,-8,14,-18L318,236c0,0,9,-26,16,-51c0,0,7,-25,13,-50c0,0,5,25,12,50c0,0,7,25,18,51L535,703c0,0,4,11,14,19c0,0,10,8,23,8H676L404,0Z" 
id="f0_1b"
transform="scale(0.001,-0.001)" />

<path d="M442,110c0,0,70,0,127,25c0,0,57,26,97,75c0,0,40,49,62,120c0,0,22,71,22,160c0,0,0,90,-22,160c0,0,-22,71,-62,120c0,0,-40,49,-97,75c0,0,-57,26,-127,26H240V110ZM104,0V980H442c0,0,100,0,183,-35c0,0,82,-36,141,-100c0,0,58,-64,91,-155c0,0,32,-90,32,-200c0,0,0,-110,-32,-201c0,0,-33,-90,-91,-154C766,135,707,70,625,35C625,35,542,0,442,0Z" 
id="f0_1c"
transform="scale(0.001,-0.001)" />

<path d="M108,0V980H681V870H245V548H596V442H245V110H682L681,0Z" 
id="f0_1d"
transform="scale(0.001,-0.001)" />

<path d="M304,-10c0,0,-82,0,-127,47c0,0,-45,49,-45,139V621H51c0,0,-11,0,-19,7c0,0,-8,8,-8,22v52l113,15l29,224c0,0,3,12,10,18c0,0,8,7,20,7h67V716H742V0H610V621H263V185c0,0,0,-45,20,-67c0,0,20,-23,52,-23c0,0,19,0,32,6c0,0,13,5,22,12c0,0,9,6,16,12c0,0,7,5,13,5c0,0,6,0,11,-3c0,0,4,-3,7,-10L475,54C475,54,442,23,398,6c0,0,-45,-16,-94,-16ZM677,871c0,0,-19,0,-35,8c0,0,-17,7,-29,20c0,0,-12,12,-20,29c0,0,-7,16,-7,35c0,0,0,19,7,36c0,0,8,17,20,30c0,0,12,12,29,20c0,0,16,7,35,7c0,0,18,0,35,-7c0,0,17,-8,30,-20c0,0,13,-13,20,-30c0,0,8,-17,8,-36c0,0,0,-19,-8,-35c0,0,-7,-17,-20,-29c0,0,-13,-13,-30,-20c0,0,-17,-8,-35,-8Z" 
id="f0_1e"
transform="scale(0.001,-0.001)" />

<path d="M507,107c0,0,71,0,129,26c0,0,58,26,98,75c0,0,41,50,63,121c0,0,22,72,22,161c0,0,0,90,-22,161c0,0,-22,71,-63,121c0,0,-40,49,-98,76c0,0,-58,26,-129,26c0,0,-72,0,-130,-26c0,0,-58,-27,-99,-76c0,0,-41,-50,-63,-121c0,0,-22,-71,-22,-161c0,0,0,-89,22,-161c0,0,22,-71,63,-120c0,0,41,-50,99,-76c0,0,58,-26,130,-26ZM507,-9c0,0,-101,0,-185,35c0,0,-83,37,-143,104c0,0,-60,66,-92,158c0,0,-33,92,-33,202c0,0,0,110,33,202c0,0,32,92,92,159c0,0,60,67,143,103c0,0,84,37,185,37c0,0,101,0,184,-37c0,0,83,-36,143,-103c0,0,59,-67,91,-159c0,0,33,-92,33,-202c0,0,0,-110,-33,-202c0,0,-32,-92,-91,-158C834,130,774,63,691,26C691,26,608,-9,507,-9Z" 
id="f0_1g"
transform="scale(0.001,-0.001)" />

<path d="M336,-9c0,0,-91,0,-166,33c0,0,-76,35,-129,94l40,64c0,0,5,8,13,13c0,0,7,5,18,5c0,0,14,0,32,-15c0,0,17,-16,43,-34c0,0,26,-18,63,-34c0,0,37,-15,89,-15c0,0,43,0,77,13c0,0,33,13,57,36c0,0,23,23,35,55c0,0,13,33,13,72c0,0,0,44,-19,73c0,0,-19,28,-50,47c0,0,-31,19,-71,32c0,0,-39,13,-80,27c0,0,-41,14,-81,33c0,0,-39,18,-70,48c0,0,-31,30,-50,74c0,0,-19,44,-19,109c0,0,0,52,19,101c0,0,19,49,56,86c0,0,37,38,91,61c0,0,54,22,124,22c0,0,79,0,144,-26c0,0,65,-26,113,-76L595,826c0,0,-12,-21,-31,-21c0,0,-11,0,-27,11c0,0,-15,12,-37,26c0,0,-22,14,-53,25c0,0,-31,12,-74,12c0,0,-41,0,-72,-12c0,0,-31,-11,-51,-32c0,0,-21,-20,-31,-48c0,0,-11,-27,-11,-58c0,0,0,-41,19,-68c0,0,19,-27,50,-46c0,0,31,-19,71,-33c0,0,39,-14,80,-29c0,0,41,-15,81,-34c0,0,39,-19,70,-48c0,0,31,-29,50,-70c0,0,19,-42,19,-103c0,0,0,-65,-21,-121c0,0,-21,-56,-60,-98c0,0,-40,-42,-99,-66C468,13,410,-9,336,-9Z" 
id="f0_1h"
transform="scale(0.001,-0.001)" />

<path d="M107,0V1061H238V633c0,0,45,50,101,79c0,0,56,29,129,29c0,0,59,0,105,-20c0,0,45,-20,75,-56c0,0,31,-36,46,-87c0,0,15,-51,15,-113V0H578V465c0,0,0,81,-36,127c0,0,-37,45,-112,45c0,0,-56,0,-104,-27c0,0,-48,-27,-88,-74V0Z" 
id="f0_1i"
transform="scale(0.001,-0.001)" />


</defs>

<!-- Any embedded fonts defined here -->
<style type="text/css" ><![CDATA[

@font-face {
	font-family: Carlito_9;
	src: url("fonts/Carlito_9.woff") format("woff");
}

]]></style>

</svg>
