<?xml version="1.0" encoding="UTF-8" standalone="no"?>
<!DOCTYPE svg PUBLIC "-//W3C//DTD SVG 1.1//EN"
"http://www.w3.org/Graphics/SVG/1.1/DTD/svg11.dtd">


<!-- Page 1 -->
<svg x="0" y="0" width="822" height="606" viewBox="0 0 822 606" version="1.1" xmlns="http://www.w3.org/2000/svg" xmlns:xlink="http://www.w3.org/1999/xlink"
style="display: block;margin-left: auto;margin-right: auto;">
<defs>
<clipPath id="c0_1"><path d="M0,606.3V0H822.8V606.3Z" /></clipPath>

<style type="text/css"><![CDATA[
text { white-space: pre; }
path, image { pointer-events: none; }

.s1_1{
font-size: 21.52px;
font-family: Carlito_9;
fill: #FFFFFF;
}
.s2_1{
font-size: 14.38px;
font-family: Carlito_9;
fill: #FFFFFF;
}
.s3_1{
font-size: 16.80px;
font-family: Carlito_9;
fill: #FFFFFF;
}
.s4_1{
font-size: 21.52px;
font-family: Carlito_9;
fill: #000000;
}

.g0_1{
fill: TRANSPARENT;
}
.g1_1{
fill: none;
stroke: #000000;
stroke-width: 1.5157236;
stroke-linecap: butt;
stroke-linejoin: miter;
stroke-miterlimit: 7;
}
.g2_1{
fill: #4472C4;
}
.g3_1{
fill: none;
stroke: #325490;
stroke-width: 1.5157236;
stroke-linecap: butt;
stroke-linejoin: miter;
stroke-miterlimit: 7;
}
.g4_1{
fill: none;
stroke: #A5A5A5;
stroke-width: 9.180951;
stroke-linecap: butt;
stroke-linejoin: miter;
}
.g5_1{
fill: #A5A5A5;
}
.g6_1{
fill: #ED7D31;
}
.g7_1{
fill: none;
stroke: #AF5C24;
stroke-width: 1.5157236;
stroke-linecap: butt;
stroke-linejoin: miter;
stroke-miterlimit: 7;
}
.g8_1{
fill: none;
stroke: #4472C4;
stroke-width: 9.180951;
stroke-linecap: butt;
stroke-linejoin: miter;
}
.g9_1{
fill: none;
stroke: #ED7D31;
stroke-width: 9.180951;
stroke-linecap: butt;
stroke-linejoin: miter;
}
.g10_1{
fill: #70AD47;
}
.g11_1{
fill: none;
stroke: #527F34;
stroke-width: 1.5157236;
stroke-linecap: butt;
stroke-linejoin: miter;
stroke-miterlimit: 7;
}
.g12_1{
fill: #FFC000;
}
.g13_1{
fill: none;
stroke: #BC8E00;
stroke-width: 1.5157236;
stroke-linecap: butt;
stroke-linejoin: miter;
stroke-miterlimit: 7;
}
.g14_1{
fill: none;
stroke: #FFC000;
stroke-width: 9.180951;
stroke-linecap: butt;
stroke-linejoin: miter;
}
.g15_1{
fill: none;
stroke: #70AD47;
stroke-width: 9.180951;
stroke-linecap: butt;
stroke-linejoin: miter;
}
.g16_1{
fill: none;
stroke: #7A7A7A;
stroke-width: 1.5157236;
stroke-linecap: butt;
stroke-linejoin: miter;
stroke-miterlimit: 7;
}

]]></style>

</defs>
<path d="M0,0
L0,606
L822,606
L822,0 Z "
fill="#FFFFFF" stroke="none" />
<g clip-path="url(#c0_1)">
<path fill-rule="evenodd" d="M0,0H822.8V606.3H0V0Z" class="g0_1" />
<path fill-rule="evenodd" d="M0,0H822.9V606.3H0V0Z" class="g0_1" />
</g>
<path fill-rule="evenodd" d="M512.2,54.3V53.2l.1,-1.1l.2,-1l.2,-1.1l.2,-1.1l.3,-1l.4,-1.1l.4,-1l.5,-1l.5,-.9l.6,-1l.6,-.8l.6,-.9l.8,-.9l.7,-.8l.8,-.7l.8,-.7l.9,-.7l.9,-.6l.9,-.6l1,-.5l1,-.4l1,-.5l1,-.3l1.1,-.4l1,-.2l1.1,-.2l1.1,-.1l1.1,-.1l1.1,-.1H696.9l1,.1l1.1,.1l1.1,.1l1.1,.2l1.1,.2l1,.4l1,.3l1,.5l1,.4l1,.5l.9,.6l.9,.6l.9,.7l.8,.7l.8,.7l.8,.8l.7,.9l.6,.9l.7,.8l.5,1l.5,.9l.5,1l.4,1l.4,1.1l.3,1l.3,1.1l.2,1.1l.1,1l.1,1.1v1.1l.1,83.5l-.1,1l-.1,1.1l-.1,1.1l-.2,1.1l-.2,1.1l-.4,1l-.3,1.1l-.4,.9l-.5,1l-.5,1l-.6,1l-.6,.8l-.7,.9l-.7,.8l-.7,.8l-.8,.8l-.9,.7l-.8,.7l-.9,.6l-1,.5l-.9,.5l-1,.5l-1,.4l-1,.4l-1.1,.3l-1.1,.3l-1.1,.2l-1,.1l-1.1,.1h-1.1l-163.8,.1l-1.1,-.1l-1.1,-.1l-1.1,-.1l-1.1,-.2l-1,-.2l-1.1,-.4l-1,-.3l-1,-.4l-1,-.5l-1,-.5l-.9,-.6l-.9,-.6l-.9,-.7l-.8,-.7l-.8,-.7l-.7,-.8l-.8,-.9l-.6,-.8l-.6,-.9l-.6,-1l-.5,-.9l-.5,-1l-.4,-1l-.4,-1l-.3,-1.1l-.2,-1.1l-.2,-1l-.2,-1.1l-.1,-1.1V54.3Z" class="g0_1" />
<path d="M512.2,54.3V53.2l.1,-1.1l.2,-1l.2,-1.1l.2,-1.1l.3,-1l.4,-1.1l.4,-1l.5,-1l.5,-.9l.6,-1l.6,-.8l.6,-.9l.8,-.9l.7,-.8l.8,-.7l.8,-.7l.9,-.7l.9,-.6l.9,-.6l1,-.5l1,-.4l1,-.5l1,-.3l1.1,-.4l1,-.2l1.1,-.2l1.1,-.1l1.1,-.1l1.1,-.1H696.9l1,.1l1.1,.1l1.1,.1l1.1,.2l1.1,.2l1,.4l1,.3l1,.5l1,.4l1,.5l.9,.6l.9,.6l.9,.7l.8,.7l.8,.7l.8,.8l.7,.9l.6,.9l.7,.8l.5,1l.5,.9l.5,1l.4,1l.4,1.1l.3,1l.3,1.1l.2,1.1l.1,1l.1,1.1v1.1l.1,83.5l-.1,1l-.1,1.1l-.1,1.1l-.2,1.1l-.2,1.1l-.4,1l-.3,1.1l-.4,.9l-.5,1l-.5,1l-.6,1l-.6,.8l-.7,.9l-.7,.8l-.7,.8l-.8,.8l-.9,.7l-.8,.7l-.9,.6l-1,.5l-.9,.5l-1,.5l-1,.4l-1,.4l-1.1,.3l-1.1,.3l-1.1,.2l-1,.1l-1.1,.1h-1.1l-163.8,.1l-1.1,-.1l-1.1,-.1l-1.1,-.1l-1.1,-.2l-1,-.2l-1.1,-.4l-1,-.3l-1,-.4l-1,-.5l-1,-.5l-.9,-.6l-.9,-.6l-.9,-.7l-.8,-.7l-.8,-.7l-.7,-.8l-.8,-.9l-.6,-.8l-.6,-.9l-.6,-1l-.5,-.9l-.5,-1l-.4,-1l-.4,-1l-.3,-1.1l-.2,-1.1l-.2,-1l-.2,-1.1l-.1,-1.1V54.3Z" class="g1_1" />
<path fill-rule="evenodd" d="M114,148v-.7l.1,-.6l.1,-.7l.1,-.7l.2,-.7l.2,-.6l.2,-.7l.3,-.6l.3,-.6l.3,-.6l.3,-.5l.4,-.6l.4,-.6l.5,-.5l.4,-.5l.5,-.4l.5,-.5l.6,-.4l.6,-.4l.5,-.3l.6,-.3l.6,-.3l.6,-.3l.7,-.2l.6,-.2l.7,-.2l.7,-.1l.7,-.1l.6,-.1H523.6l.6,.1l.7,.1l.7,.1l.7,.2l.6,.2l.7,.2l.6,.3l.6,.3l.6,.3l.5,.3l.6,.4l.6,.4l.5,.5l.5,.4l.4,.5l.5,.5l.4,.6l.4,.6l.3,.5l.4,.6l.3,.6l.2,.6l.2,.7l.2,.6l.2,.7l.1,.7l.1,.7l.1,.6v53.4l-.1,.7v.7l-.2,.6l-.1,.7l-.2,.7l-.2,.6l-.3,.6l-.3,.6l-.3,.6l-.4,.6l-.3,.6l-.5,.5l-.4,.5l-.5,.5l-.5,.5l-.5,.4l-.5,.5l-.6,.4l-.6,.3l-.6,.3l-.6,.3l-.6,.3l-.6,.2l-.7,.2l-.7,.1l-.6,.2h-.7l-.7,.1h-.7L127,213.1h-.7l-.6,-.1l-.7,-.1l-.7,-.1l-.7,-.2l-.6,-.2l-.7,-.2l-.6,-.3l-.6,-.3l-.6,-.3L120,211l-.6,-.4l-.6,-.4l-.5,-.5l-.5,-.4l-.4,-.5l-.5,-.5l-.4,-.6l-.4,-.6l-.3,-.5l-.3,-.6l-.3,-.6l-.3,-.6l-.2,-.7l-.2,-.6l-.2,-.7l-.1,-.7l-.1,-.7l-.1,-.6V148Z" class="g0_1" />
<path d="M114,148v-.7l.1,-.6l.1,-.7l.1,-.7l.2,-.7l.2,-.6l.2,-.7l.3,-.6l.3,-.6l.3,-.6l.3,-.5l.4,-.6l.4,-.6l.5,-.5l.4,-.5l.5,-.4l.5,-.5l.6,-.4l.6,-.4l.5,-.3l.6,-.3l.6,-.3l.6,-.3l.7,-.2l.6,-.2l.7,-.2l.7,-.1l.7,-.1l.6,-.1H523.6l.6,.1l.7,.1l.7,.1l.7,.2l.6,.2l.7,.2l.6,.3l.6,.3l.6,.3l.5,.3l.6,.4l.6,.4l.5,.5l.5,.4l.4,.5l.5,.5l.4,.6l.4,.6l.3,.5l.4,.6l.3,.6l.2,.6l.2,.7l.2,.6l.2,.7l.1,.7l.1,.7l.1,.6v53.4l-.1,.7v.7l-.2,.6l-.1,.7l-.2,.7l-.2,.6l-.3,.6l-.3,.6l-.3,.6l-.4,.6l-.3,.6l-.5,.5l-.4,.5l-.5,.5l-.5,.5l-.5,.4l-.5,.5l-.6,.4l-.6,.3l-.6,.3l-.6,.3l-.6,.3l-.6,.2l-.7,.2l-.7,.1l-.6,.2h-.7l-.7,.1h-.7L127,213.1h-.7l-.6,-.1l-.7,-.1l-.7,-.1l-.7,-.2l-.6,-.2l-.7,-.2l-.6,-.3l-.6,-.3l-.6,-.3L120,211l-.6,-.4l-.6,-.4l-.5,-.5l-.5,-.4l-.4,-.5l-.5,-.5l-.4,-.6l-.4,-.6l-.3,-.5l-.3,-.6l-.3,-.6l-.3,-.6l-.2,-.7l-.2,-.6l-.2,-.7l-.1,-.7l-.1,-.7l-.1,-.6V148Z" class="g1_1" />
<path fill-rule="evenodd" d="M30.6,264l.1,-.9v-.9l.1,-.9l.2,-.8l.2,-.9l.2,-.8l.3,-.9l.4,-.8l.3,-.8l.5,-.8l.4,-.7l.5,-.8l.6,-.7l.5,-.6l.7,-.7l.6,-.6l.7,-.5l.6,-.6l.8,-.5l.8,-.4l.7,-.5l.8,-.3l.8,-.4l.9,-.3l.8,-.2l.9,-.2l.8,-.2l.9,-.1h.9l.9,-.1h88.4l.9,.1h.9l.9,.1l.8,.2l.9,.2l.8,.2l.9,.3l.8,.4l.8,.3l.8,.5l.7,.4l.8,.5l.7,.6l.6,.5l.7,.6l.6,.7l.5,.6l.6,.7l.5,.8l.4,.8l.5,.7l.3,.8l.4,.8l.3,.9l.2,.8l.2,.9l.2,.8l.1,.9v.9l.1,.9v67.5l-.1,.9v.9l-.1,.9l-.2,.8l-.2,.9l-.2,.8l-.3,.8l-.4,.9l-.3,.7l-.5,.8l-.4,.8l-.5,.7l-.5,.7l-.6,.7l-.6,.6l-.7,.6l-.6,.6l-.7,.5l-.8,.5l-.7,.5l-.8,.4l-.8,.4l-.8,.3l-.8,.3l-.9,.3l-.8,.2l-.9,.1l-.8,.2h-.9l-.9,.1H47.5l-.9,-.1h-.9l-.9,-.2L44,348l-.9,-.2l-.8,-.3l-.9,-.3l-.8,-.3l-.8,-.4l-.7,-.4l-.8,-.5l-.7,-.4l-.7,-.6l-.7,-.6l-.6,-.6l-.7,-.6l-.5,-.7l-.5,-.7l-.6,-.7l-.4,-.7l-.4,-.8l-.4,-.8l-.4,-.8l-.3,-.8l-.2,-.9l-.2,-.8l-.2,-.9l-.1,-.9v-.9l-.1,-.8V264Z" class="g2_1" />
<path d="M30.6,264l.1,-.9v-.9l.1,-.9l.2,-.8l.2,-.9l.2,-.8l.3,-.9l.4,-.8l.3,-.8l.5,-.8l.4,-.7l.5,-.8l.6,-.7l.5,-.6l.7,-.7l.6,-.6l.7,-.5l.6,-.6l.8,-.5l.8,-.4l.7,-.5l.8,-.3l.8,-.4l.9,-.3l.8,-.2l.9,-.2l.8,-.2l.9,-.1h.9l.9,-.1h88.4l.9,.1h.9l.9,.1l.8,.2l.9,.2l.8,.2l.9,.3l.8,.4l.8,.3l.8,.5l.7,.4l.8,.5l.7,.6l.6,.5l.7,.6l.6,.7l.5,.6l.6,.7l.5,.8l.4,.8l.5,.7l.3,.8l.4,.8l.3,.9l.2,.8l.2,.9l.2,.8l.1,.9v.9l.1,.9v67.5l-.1,.9v.9l-.1,.9l-.2,.8l-.2,.9l-.2,.8l-.3,.8l-.4,.9l-.3,.7l-.5,.8l-.4,.8l-.5,.7l-.5,.7l-.6,.7l-.6,.6l-.7,.6l-.6,.6l-.7,.5l-.8,.5l-.7,.5l-.8,.4l-.8,.4l-.8,.3l-.8,.3l-.9,.3l-.8,.2l-.9,.1l-.8,.2h-.9l-.9,.1H47.5l-.9,-.1h-.9l-.9,-.2L44,348l-.9,-.2l-.8,-.3l-.9,-.3l-.8,-.3l-.8,-.4l-.7,-.4l-.8,-.5l-.7,-.4l-.7,-.6l-.7,-.6l-.6,-.6l-.7,-.6l-.5,-.7l-.5,-.7l-.6,-.7l-.4,-.7l-.4,-.8l-.4,-.8l-.4,-.8l-.3,-.8l-.2,-.9l-.2,-.8l-.2,-.9l-.1,-.9v-.9l-.1,-.8V264Z" class="g3_1" />
<path d="M578.7,292.2l.1,109.7" class="g4_1" />
<path fill-rule="evenodd" d="M578.8,427.6L565,400.1h27.6l-13.8,27.5Z" class="g5_1" />
<path fill-rule="evenodd" d="M47.5,280.9l.1,-.9v-.9l.1,-.9l.2,-.8l.2,-.9l.2,-.8l.3,-.8L49,274l.3,-.8l.5,-.8l.4,-.7l.5,-.7l.6,-.7l.5,-.7l.6,-.6l.7,-.6l.6,-.6l.7,-.6l.8,-.4l.8,-.5l.7,-.4l.8,-.4l.8,-.3l.9,-.3l.8,-.3l.8,-.2l.9,-.1l.9,-.2h.9l.9,-.1h90l.9,.1h.9l.9,.2l.8,.1l.9,.2l.8,.3l.9,.3l.8,.3l.8,.4l.8,.4l.7,.5l.8,.4l.6,.6l.7,.6l.6,.6l.6,.6l.6,.7l.6,.7l.5,.7l.4,.8l.5,.7l.3,.8l.4,.9l.3,.8l.2,.8l.2,.9l.2,.8l.1,.9v.9l.1,.9v67.6l-.1,.8v.9l-.1,.9l-.2,.9l-.2,.8l-.2,.8l-.3,.9l-.4,.8l-.3,.8l-.5,.8l-.4,.7l-.5,.7l-.5,.7l-.7,.7l-.6,.7l-.6,.6l-.7,.5l-.6,.5l-.8,.6l-.7,.4l-.8,.4l-.8,.4l-.8,.4l-.8,.3l-.9,.2l-.8,.2l-.9,.2l-.8,.1l-1,.1H63.5l-.9,-.1l-.9,-.1l-.9,-.1l-.8,-.3l-.8,-.2l-.9,-.3l-.8,-.4l-.8,-.3L56,363l-.8,-.4l-.7,-.5l-.7,-.5l-.7,-.6l-.7,-.6l-.6,-.6l-.5,-.7l-.5,-.7l-.6,-.8l-.4,-.7l-.4,-.8l-.4,-.8l-.4,-.8l-.3,-.8l-.2,-.9l-.2,-.8l-.2,-.9l-.1,-.8v-.9l-.1,-.9V280.9Z" class="g2_1" />
<path d="M47.5,280.9l.1,-.9v-.9l.1,-.9l.2,-.8l.2,-.9l.2,-.8l.3,-.8L49,274l.3,-.8l.5,-.8l.4,-.7l.5,-.7l.6,-.7l.5,-.7l.6,-.6l.7,-.6l.6,-.6l.7,-.6l.8,-.4l.8,-.5l.7,-.4l.8,-.4l.8,-.3l.9,-.3l.8,-.3l.8,-.2l.9,-.1l.9,-.2h.9l.9,-.1h90l.9,.1h.9l.9,.2l.8,.1l.9,.2l.8,.3l.9,.3l.8,.3l.8,.4l.8,.4l.7,.5l.8,.4l.6,.6l.7,.6l.6,.6l.6,.6l.6,.7l.6,.7l.5,.7l.4,.8l.5,.7l.3,.8l.4,.9l.3,.8l.2,.8l.2,.9l.2,.8l.1,.9v.9l.1,.9v67.6l-.1,.8v.9l-.1,.9l-.2,.9l-.2,.8l-.2,.8l-.3,.9l-.4,.8l-.3,.8l-.5,.8l-.4,.7l-.5,.7l-.5,.7l-.7,.7l-.6,.7l-.6,.6l-.7,.5l-.6,.5l-.8,.6l-.7,.4l-.8,.4l-.8,.4l-.8,.4l-.8,.3l-.9,.2l-.8,.2l-.9,.2l-.8,.1l-1,.1H63.5l-.9,-.1l-.9,-.1l-.9,-.1l-.8,-.3l-.8,-.2l-.9,-.3l-.8,-.4l-.8,-.3L56,363l-.8,-.4l-.7,-.5l-.7,-.5l-.7,-.6l-.7,-.6l-.6,-.6l-.5,-.7l-.5,-.7l-.6,-.8l-.4,-.7l-.4,-.8l-.4,-.8l-.4,-.8l-.3,-.8l-.2,-.9l-.2,-.8l-.2,-.9l-.1,-.8v-.9l-.1,-.9V280.9Z" class="g3_1" />
<text x="74" y="310" dx="0,0.2,0,-0.2,0.2,-0.2,0.1,0" class="s1_1">Jupyter </text>
<text x="61" y="336" dx="0,0,0.1,-0.3,0.1,0.1,0,0,0" class="s1_1">Notebooks</text>
<path fill-rule="evenodd" d="M400.1,265.7l.1,-1v-1l.2,-1l.1,-1l.3,-1l.3,-1l.3,-1l.4,-.9l.4,-.9l.6,-1l.5,-.8l.5,-.9l.7,-.8l.6,-.7l.7,-.8l.8,-.7l.8,-.7l.8,-.6l.8,-.6l.9,-.5l.9,-.5l.9,-.5l1,-.3l.9,-.4l1,-.3l1,-.2l1,-.2l1.1,-.2h82.5l1,.2l1,.2l1,.2l1,.3l.9,.4l1,.3l.9,.5l.9,.5l.9,.5l.8,.6l.8,.6l.8,.7l.8,.7l.7,.8l.6,.7l.7,.8l.5,.9l.6,.8l.5,1l.4,.9l.4,.9l.3,1l.3,1l.3,1l.1,1l.2,1v1l.1,1v97.9l-.1,1v1l-.2,1l-.1,1l-.3,1l-.3,1l-.3,1l-.4,.9l-.4,.9l-.5,1l-.6,.8l-.5,.8l-.6,.9l-.7,.7l-.7,.8l-.8,.7l-.7,.7l-.9,.6l-.8,.6l-.9,.5l-.9,.5l-.9,.5l-.9,.3l-1,.4l-1,.2l-1,.3l-1,.2l-1,.1l-1,.1h-1l-78.5,.1v-.1h-2l-1.1,-.2l-1,-.2l-1,-.2l-.9,-.3l-1,-.4l-1,-.3l-.9,-.5l-.9,-.5L409,380l-.8,-.6l-.8,-.6l-.8,-.7l-.7,-.7l-.8,-.7l-.6,-.8l-.6,-.8l-.6,-.8l-.5,-.9l-.5,-.9l-.5,-.9l-.4,-1l-.3,-1l-.3,-.9l-.3,-1l-.1,-1l-.2,-1.1v-1l-.1,-1V265.7Z" class="g2_1" />
<path d="M400.1,265.7l.1,-1v-1l.2,-1l.1,-1l.3,-1l.3,-1l.3,-1l.4,-.9l.4,-.9l.6,-1l.5,-.8l.5,-.9l.7,-.8l.6,-.7l.7,-.8l.8,-.7l.8,-.7l.8,-.6l.8,-.6l.9,-.5l.9,-.5l.9,-.5l1,-.3l.9,-.4l1,-.3l1,-.2l1,-.2l1.1,-.2h82.5l1,.2l1,.2l1,.2l1,.3l.9,.4l1,.3l.9,.5l.9,.5l.9,.5l.8,.6l.8,.6l.8,.7l.8,.7l.7,.8l.6,.7l.7,.8l.5,.9l.6,.8l.5,1l.4,.9l.4,.9l.3,1l.3,1l.3,1l.1,1l.2,1v1l.1,1v97.9l-.1,1v1l-.2,1l-.1,1l-.3,1l-.3,1l-.3,1l-.4,.9l-.4,.9l-.5,1l-.6,.8l-.5,.8l-.6,.9l-.7,.7l-.7,.8l-.8,.7l-.7,.7l-.9,.6l-.8,.6l-.9,.5l-.9,.5l-.9,.5l-.9,.3l-1,.4l-1,.2l-1,.3l-1,.2l-1,.1l-1,.1h-1l-78.5,.1v-.1h-2l-1.1,-.2l-1,-.2l-1,-.2l-.9,-.3l-1,-.4l-1,-.3l-.9,-.5l-.9,-.5L409,380l-.8,-.6l-.8,-.6l-.8,-.7l-.7,-.7l-.8,-.7l-.6,-.8l-.6,-.8l-.6,-.8l-.5,-.9l-.5,-.9l-.5,-.9l-.4,-1l-.3,-1l-.3,-.9l-.3,-1l-.1,-1l-.2,-1.1v-1l-.1,-1V265.7Z" class="g3_1" />
<text x="419" y="297" dx="0,0.1,0,0.1,0,0,0" class="s1_1">Modiﬁed</text>
<text x="424" y="323" dx="0,0,0.1,-0.2,0.2,-0.3,0.1,0" class="s1_1">Jupyter </text>
<text x="415" y="349" dx="0,0,0,-0.2,0.1,0,0.1,0" class="s1_1">Notebook</text>
<path fill-rule="evenodd" d="M559.6,477.9l.1,-3.7l.3,-3.8l.4,-3.6l.6,-3.7l.8,-3.6l1,-3.6l1.1,-3.5l1.3,-3.4l1.5,-3.4l1.7,-3.3l1.7,-3.1l2,-3.1l2.1,-2.9l2.2,-2.9l2.4,-2.6l2.4,-2.6l2.6,-2.4l2.8,-2.3l2.8,-2.1l2.9,-1.9l3,-1.8l3.1,-1.6l3.1,-1.5l3.3,-1.2l3.2,-1l3.4,-.9l3.3,-.7l3.4,-.5l3.4,-.3l3.5,-.1l3.4,.1l3.4,.3l3.4,.5l3.4,.7l3.3,.9l3.2,1l3.3,1.2l3.2,1.5l3,1.6l3.1,1.8l2.9,1.9l2.8,2.1l2.7,2.3l2.6,2.4l2.5,2.6l2.3,2.6l2.3,2.9l2,2.9l2,3.1l1.8,3.2l1.6,3.2l1.5,3.4l1.3,3.4l1.1,3.5l1,3.6l.8,3.6l.6,3.7l.5,3.6l.2,3.8l.1,3.7l-.1,3.7l-.3,3.7l-.5,3.7l-.6,3.7l-.7,3.6l-1,3.6l-1.2,3.5l-1.3,3.4l-1.4,3.4l-1.7,3.2l-1.8,3.2l-1.9,3l-2.1,3l-2.2,2.8l-2.4,2.7l-2.4,2.6l-2.6,2.4l-2.8,2.3l-2.8,2.1l-2.9,1.9l-3,1.8l-3.1,1.6l-3.1,1.4l-3.3,1.3l-3.2,1l-3.3,.9l-3.4,.7l-3.4,.5l-3.4,.3L625,549v-.1l-3.5,-.1l-3.4,-.3l-3.4,-.4l-3.3,-.7l-3.3,-.9l-3.3,-1l-3.3,-1.3l-3.1,-1.4l-3.1,-1.6l-3,-1.8l-2.9,-2l-2.8,-2l-2.7,-2.3l-2.6,-2.4l-2.5,-2.6l-2.4,-2.7l-2.2,-2.8l-2.1,-3l-1.9,-3l-1.8,-3.2l-1.6,-3.2l-1.5,-3.4l-1.4,-3.4l-1.1,-3.5l-.9,-3.6l-.9,-3.6l-.6,-3.7l-.4,-3.7l-.3,-3.7l-.1,-3.7Z" class="g6_1" />
<path d="M559.6,477.9l.1,-3.7l.3,-3.8l.4,-3.6l.6,-3.7l.8,-3.6l1,-3.6l1.1,-3.5l1.3,-3.4l1.5,-3.4l1.7,-3.3l1.7,-3.1l2,-3.1l2.1,-2.9l2.2,-2.9l2.4,-2.6l2.4,-2.6l2.6,-2.4l2.8,-2.3l2.8,-2.1l2.9,-1.9l3,-1.8l3.1,-1.6l3.1,-1.5l3.3,-1.2l3.2,-1l3.4,-.9l3.3,-.7l3.4,-.5l3.4,-.3l3.5,-.1l3.4,.1l3.4,.3l3.4,.5l3.4,.7l3.3,.9l3.2,1l3.3,1.2l3.2,1.5l3,1.6l3.1,1.8l2.9,1.9l2.8,2.1l2.7,2.3l2.6,2.4l2.5,2.6l2.3,2.6l2.3,2.9l2,2.9l2,3.1l1.8,3.2l1.6,3.2l1.5,3.4l1.3,3.4l1.1,3.5l1,3.6l.8,3.6l.6,3.7l.5,3.6l.2,3.8l.1,3.7l-.1,3.7l-.3,3.7l-.5,3.7l-.6,3.7l-.7,3.6l-1,3.6l-1.2,3.5l-1.3,3.4l-1.4,3.4l-1.7,3.2l-1.8,3.2l-1.9,3l-2.1,3l-2.2,2.8l-2.4,2.7l-2.4,2.6l-2.6,2.4l-2.8,2.3l-2.8,2.1l-2.9,1.9l-3,1.8l-3.1,1.6l-3.1,1.4l-3.3,1.3l-3.2,1l-3.3,.9l-3.4,.7l-3.4,.5l-3.4,.3L625,549v-.1l-3.5,-.1l-3.4,-.3l-3.4,-.4l-3.3,-.7l-3.3,-.9l-3.3,-1l-3.3,-1.3l-3.1,-1.4l-3.1,-1.6l-3,-1.8l-2.9,-2l-2.8,-2l-2.7,-2.3l-2.6,-2.4l-2.5,-2.6l-2.4,-2.7l-2.2,-2.8l-2.1,-3l-1.9,-3l-1.8,-3.2l-1.6,-3.2l-1.5,-3.4l-1.4,-3.4l-1.1,-3.5l-.9,-3.6l-.9,-3.6l-.6,-3.7l-.4,-3.7l-.3,-3.7l-.1,-3.7Z" class="g7_1" />
<text x="597" y="460" dx="0,0.1,0,0.1,0,0" class="s1_1">Apply </text>
<text x="603" y="486" dx="0,0.2,0,0.1,-0.1,0.2" class="s1_1">Jinja </text>
<text x="584" y="512" dx="0,-1.8,0,0,0.1,0,-0.2,-0.2" class="s1_1">Template</text>
<path fill-rule="evenodd" d="M400.1,411.2v-.6l.1,-.7l.1,-.7l.1,-.7l.1,-.7l.3,-.6l.2,-.7l.2,-.6l.3,-.6l.4,-.7l.3,-.5l.4,-.6l.5,-.6l.4,-.5l.5,-.5l.5,-.5l.5,-.4l.6,-.5l.5,-.3l.6,-.4l.6,-.3l.7,-.3l.6,-.3l.7,-.2l.6,-.2l.7,-.2l.6,-.1l.7,-.1l.7,-.1h92.6l.7,.1l.7,.1l.6,.1l.7,.2l.7,.2l.6,.2l.7,.3l.6,.3l.6,.3l.6,.4l.5,.3l.6,.5l.5,.4l.5,.5l.5,.5l.4,.5l.5,.6l.4,.6l.3,.6l.4,.6l.3,.6l.2,.6l.2,.7l.3,.6l.1,.7l.1,.7l.1,.7l.1,.7v54.3l-.1,.7l-.1,.6l-.1,.7l-.1,.7l-.3,.6l-.2,.7l-.2,.6l-.3,.6l-.4,.6l-.3,.7l-.4,.5l-.5,.6l-.4,.5l-.5,.5l-.5,.5l-.5,.4l-.5,.4l-.6,.4l-.6,.4l-.6,.3l-.6,.3l-.7,.3l-.6,.2l-.7,.2l-.6,.2l-.7,.1l-.7,.1l-.7,.1H412.6l-.7,-.1l-.7,-.1l-.6,-.1l-.7,-.2l-.6,-.2l-.7,-.2l-.6,-.3l-.7,-.3l-.6,-.3l-.6,-.3l-.5,-.4l-.6,-.5l-.5,-.4l-.5,-.5l-.5,-.5l-.4,-.5l-.4,-.5l-.4,-.6l-.4,-.6l-.3,-.6l-.3,-.6l-.3,-.7l-.2,-.6l-.2,-.7l-.2,-.7l-.1,-.6l-.1,-.7l-.1,-.7V411.2Z" class="g2_1" />
<path d="M400.1,411.2v-.6l.1,-.7l.1,-.7l.1,-.7l.1,-.7l.3,-.6l.2,-.7l.2,-.6l.3,-.6l.4,-.7l.3,-.5l.4,-.6l.5,-.6l.4,-.5l.5,-.5l.5,-.5l.5,-.4l.6,-.5l.5,-.3l.6,-.4l.6,-.3l.7,-.3l.6,-.3l.7,-.2l.6,-.2l.7,-.2l.6,-.1l.7,-.1l.7,-.1h92.6l.7,.1l.7,.1l.6,.1l.7,.2l.7,.2l.6,.2l.7,.3l.6,.3l.6,.3l.6,.4l.5,.3l.6,.5l.5,.4l.5,.5l.5,.5l.4,.5l.5,.6l.4,.6l.3,.6l.4,.6l.3,.6l.2,.6l.2,.7l.3,.6l.1,.7l.1,.7l.1,.7l.1,.7v54.3l-.1,.7l-.1,.6l-.1,.7l-.1,.7l-.3,.6l-.2,.7l-.2,.6l-.3,.6l-.4,.6l-.3,.7l-.4,.5l-.5,.6l-.4,.5l-.5,.5l-.5,.5l-.5,.4l-.5,.4l-.6,.4l-.6,.4l-.6,.3l-.6,.3l-.7,.3l-.6,.2l-.7,.2l-.6,.2l-.7,.1l-.7,.1l-.7,.1H412.6l-.7,-.1l-.7,-.1l-.6,-.1l-.7,-.2l-.6,-.2l-.7,-.2l-.6,-.3l-.7,-.3l-.6,-.3l-.6,-.3l-.5,-.4l-.6,-.5l-.5,-.4l-.5,-.5l-.5,-.5l-.4,-.5l-.4,-.5l-.4,-.6l-.4,-.6l-.3,-.6l-.3,-.6l-.3,-.7l-.2,-.6l-.2,-.7l-.2,-.7l-.1,-.6l-.1,-.7l-.1,-.7V411.2Z" class="g3_1" />
<text x="438" y="424" dx="0,-1.9,-0.3,0.1,0.1" class="s1_1">Text </text>
<text x="412" y="450" dx="0,0,0,0,0.1,0,0.2,0,0,0.1,0" class="s1_1">Based File </text>
<text x="418" y="469" dx="0,0.1,-1.3,-0.1,0,-0.1,0.1,0.1,-0.1,0.1,-0.1,0.1,0.1,0.2" class="s2_1">(Tex, Html, …)</text>
<path fill-rule="evenodd" d="M209,476.7l.1,-3.4l.3,-3.5l.5,-3.5l.7,-3.3l.8,-3.4l1.1,-3.4l1.2,-3.2l1.4,-3.3l1.6,-3.2l1.7,-3l1.9,-3l2.1,-2.9l2.2,-2.8l2.4,-2.7l2.6,-2.6l2.7,-2.4l2.7,-2.3l3,-2.3l3,-2l3.2,-1.9l3.3,-1.8l3.3,-1.6l3.4,-1.4l3.5,-1.3l3.6,-1.1l3.7,-1l3.6,-.8l3.8,-.6l3.7,-.4l3.8,-.3l3.8,-.1l3.9,.1l3.9,.3l3.8,.4l3.9,.7l3.8,.9l3.7,.9l3.7,1.3l3.6,1.3l3.5,1.6l3.4,1.7l3.4,1.9l3.2,2l3.1,2.2l3,2.3l2.8,2.5l2.7,2.6l2.5,2.7l2.4,2.9l2.2,2.9l2.1,3l1.8,3.2l1.7,3.2l1.5,3.3l1.3,3.4l1.1,3.5l.9,3.4l.8,3.6l.4,3.5l.4,3.6l.1,3.6h-.1l-.1,3.6l-.3,3.5l-.5,3.6l-.7,3.5l-.9,3.5l-1.1,3.5l-1.3,3.3l-1.5,3.3l-1.7,3.3l-1.9,3.1l-2,3.1l-2.2,3l-2.4,2.8l-2.5,2.7l-2.7,2.6l-2.8,2.5l-3,2.3l-3.1,2.2l-3.2,2l-3.4,1.9l-3.4,1.7l-3.5,1.6l-3.6,1.3l-3.7,1.2l-3.7,1.1l-3.8,.8l-3.9,.6l-3.8,.5l-3.9,.3l-3.9,.1l-3.9,-.1l-3.9,-.3l-3.9,-.4l-3.8,-.7l-3.9,-.8l-3.7,-1l-3.7,-1.3l-3.6,-1.3l-3.5,-1.6L246.4,536L243,534.2l-3.2,-2.1L236.7,530l-3,-2.4l-2.8,-2.5l-2.7,-2.6l-2.5,-2.7L223.3,517l-2.2,-3L219,511l-1.8,-3.2l-1.7,-3.2L214,501.3l-1.3,-3.4l-1.1,-3.5l-.9,-3.4l-.7,-3.6l-.5,-3.5l-.4,-3.6l-.1,-3.6Z" class="g6_1" />
<path d="M209,476.7l.1,-3.4l.3,-3.5l.5,-3.5l.7,-3.3l.8,-3.4l1.1,-3.4l1.2,-3.2l1.4,-3.3l1.6,-3.2l1.7,-3l1.9,-3l2.1,-2.9l2.2,-2.8l2.4,-2.7l2.6,-2.6l2.7,-2.4l2.7,-2.3l3,-2.3l3,-2l3.2,-1.9l3.3,-1.8l3.3,-1.6l3.4,-1.4l3.5,-1.3l3.6,-1.1l3.7,-1l3.6,-.8l3.8,-.6l3.7,-.4l3.8,-.3l3.8,-.1l3.9,.1l3.9,.3l3.8,.4l3.9,.7l3.8,.9l3.7,.9l3.7,1.3l3.6,1.3l3.5,1.6l3.4,1.7l3.4,1.9l3.2,2l3.1,2.2l3,2.3l2.8,2.5l2.7,2.6l2.5,2.7l2.4,2.9l2.2,2.9l2.1,3l1.8,3.2l1.7,3.2l1.5,3.3l1.3,3.4l1.1,3.5l.9,3.4l.8,3.6l.4,3.5l.4,3.6l.1,3.6h-.1l-.1,3.6l-.3,3.5l-.5,3.6l-.7,3.5l-.9,3.5l-1.1,3.5l-1.3,3.3l-1.5,3.3l-1.7,3.3l-1.9,3.1l-2,3.1l-2.2,3l-2.4,2.8l-2.5,2.7l-2.7,2.6l-2.8,2.5l-3,2.3l-3.1,2.2l-3.2,2l-3.4,1.9l-3.4,1.7l-3.5,1.6l-3.6,1.3l-3.7,1.2l-3.7,1.1l-3.8,.8l-3.9,.6l-3.8,.5l-3.9,.3l-3.9,.1l-3.9,-.1l-3.9,-.3l-3.9,-.4l-3.8,-.7l-3.9,-.8l-3.7,-1l-3.7,-1.3l-3.6,-1.3l-3.5,-1.6L246.4,536L243,534.2l-3.2,-2.1L236.7,530l-3,-2.4l-2.8,-2.5l-2.7,-2.6l-2.5,-2.7L223.3,517l-2.2,-3L219,511l-1.8,-3.2l-1.7,-3.2L214,501.3l-1.3,-3.4l-1.1,-3.5l-.9,-3.4l-.7,-3.6l-.5,-3.5l-.4,-3.6l-.1,-3.6Z" class="g7_1" />
<text x="261" y="452" dx="0,-0.3,0,-0.2,-0.6" class="s1_1">Post-</text>
<text x="237" y="478" dx="0,0,-0.3,0,0.1,0.1,0,0.1,0,0" class="s1_1">Processing</text>
<text x="245" y="499" dx="0,-0.1,0,0.2,0,-0.1,0.2,0,0,-1.3,0,0" class="s3_1">(e.g. LaTeX </text>
<text x="242" y="519" dx="0,-0.1,0.1,-0.1,-0.1,0,-0.2,0.1,0,0,0" class="s3_1">Conversion)</text>
<path fill-rule="evenodd" d="M47.5,428.8l.1,-1.1v-1l.2,-1.1l.1,-1.1l.3,-1l.3,-1l.4,-1.1l.4,-1l.5,-.9l.5,-1l.5,-.9l.6,-.9l.7,-.9l.7,-.8l.7,-.8l.8,-.7l.8,-.7l.9,-.6l.9,-.7l.9,-.5l1,-.5l.9,-.5l1,-.4l1.1,-.4l1,-.3l1,-.3l1.1,-.1l1.1,-.2h1l1.1,-.1h82.6l1,.1h1.1l1.1,.2l1.1,.1l1,.3l1,.3l1.1,.4l1,.4l.9,.5l1,.5l.9,.5l.9,.7l.9,.6l.8,.7l.8,.7l.7,.8l.7,.8l.6,.9l.6,.9l.6,.9l.5,1l.5,.9l.4,1l.4,1.1l.3,1l.2,1l.2,1.1l.1,1.1l.1,1l.1,1.1v95.8l-.1,1.1l-.1,1l-.1,1.1l-.2,1.1l-.2,1l-.3,1l-.4,1l-.4,1l-.5,1l-.5,1l-.6,.9l-.6,.9l-.6,.8l-.7,.9l-.7,.7l-.8,.8l-.8,.7l-.9,.7l-.9,.6l-.9,.5l-.9,.5l-1,.5l-1,.4l-1,.4l-1.1,.3l-1,.2l-1.1,.2l-1,.2l-1.1,.1H67l-1,-.1l-1.1,-.2l-1.1,-.1l-1,-.3l-1,-.3l-1,-.4l-1,-.4l-1,-.5l-1,-.5l-.9,-.5l-.9,-.6l-.8,-.7l-.8,-.7l-.8,-.7l-.8,-.8l-.7,-.8l-.7,-.9l-.6,-.9l-.5,-.9l-.5,-.9l-.5,-1l-.4,-1l-.4,-1l-.3,-1L48,528.9l-.2,-1.1l-.2,-1v-1.1l-.1,-1.1V428.8Z" class="g2_1" />
<path d="M47.5,428.8l.1,-1.1v-1l.2,-1.1l.1,-1.1l.3,-1l.3,-1l.4,-1.1l.4,-1l.5,-.9l.5,-1l.5,-.9l.6,-.9l.7,-.9l.7,-.8l.7,-.8l.8,-.7l.8,-.7l.9,-.6l.9,-.7l.9,-.5l1,-.5l.9,-.5l1,-.4l1.1,-.4l1,-.3l1,-.3l1.1,-.1l1.1,-.2h1l1.1,-.1h82.6l1,.1h1.1l1.1,.2l1.1,.1l1,.3l1,.3l1.1,.4l1,.4l.9,.5l1,.5l.9,.5l.9,.7l.9,.6l.8,.7l.8,.7l.7,.8l.7,.8l.6,.9l.6,.9l.6,.9l.5,1l.5,.9l.4,1l.4,1.1l.3,1l.2,1l.2,1.1l.1,1.1l.1,1l.1,1.1v95.8l-.1,1.1l-.1,1l-.1,1.1l-.2,1.1l-.2,1l-.3,1l-.4,1l-.4,1l-.5,1l-.5,1l-.6,.9l-.6,.9l-.6,.8l-.7,.9l-.7,.7l-.8,.8l-.8,.7l-.9,.7l-.9,.6l-.9,.5l-.9,.5l-1,.5l-1,.4l-1,.4l-1.1,.3l-1,.2l-1.1,.2l-1,.2l-1.1,.1H67l-1,-.1l-1.1,-.2l-1.1,-.1l-1,-.3l-1,-.3l-1,-.4l-1,-.4l-1,-.5l-1,-.5l-.9,-.5l-.9,-.6l-.8,-.7l-.8,-.7l-.8,-.7l-.8,-.8l-.7,-.8l-.7,-.9l-.6,-.9l-.5,-.9l-.5,-.9l-.5,-1l-.4,-1l-.4,-1l-.3,-1L48,528.9l-.2,-1.1l-.2,-1v-1.1l-.1,-1.1V428.8Z" class="g3_1" />
<text x="86" y="462" dx="0,0,0,0,0.2,0" class="s1_1">Final </text>
<text x="77" y="488" dx="0,0,0.1,0.1,0,0" class="s1_1">Output</text>
<text x="76" y="509" dx="0,0.1,0,0.2,-0.1,0,0,0.2,0,-0.1" class="s3_1">(e.g. PDF)</text>
<path d="M171.3,314.7h16" class="g8_1" />
<path fill-rule="evenodd" d="M213.1,314.8l-27.6,13.7l.1,-27.6l27.5,13.9Z" class="g2_1" />
<path d="M358.3,314.7h16" class="g9_1" />
<path fill-rule="evenodd" d="M400.1,314.8l-27.6,13.7l.1,-27.6l27.5,13.9Z" class="g6_1" />
<path d="M517.7,314.7h61V402" class="g8_1" />
<path fill-rule="evenodd" d="M578.7,427.7L564.9,400.2h27.6l-13.8,27.5Z" class="g2_1" />
<path d="M559.5,477.9L536.3,455.5" class="g9_1" />
<path fill-rule="evenodd" d="M517.7,437.7l29.4,9.1L528,466.7l-10.3,-29Z" class="g6_1" />
<path d="M400.1,437.7l-23,21.5" class="g8_1" />
<path fill-rule="evenodd" d="M358.3,476.8L369,447.9L387.8,468l-29.5,8.8Z" class="g2_1" />
<path d="M209,476.8l-12,-.1" class="g9_1" />
<path fill-rule="evenodd" d="M171.3,476.7L198.9,463l-.1,27.5L171.3,476.7Z" class="g6_1" />
<path d="M732.1,406.4v71.5H716" class="g8_1" />
<path fill-rule="evenodd" d="M690.3,477.9l27.6,-13.8v27.6L690.3,477.9Z" class="g2_1" />
<path fill-rule="evenodd" d="M666.8,242l.1,-2.6l.2,-2.5l.4,-2.5l.6,-2.5l.8,-2.5l.9,-2.4l1.1,-2.5l1.2,-2.3l1.4,-2.3l1.5,-2.3l1.7,-2.2l1.8,-2.1l1.9,-2l2.2,-2l2.2,-1.9l2.3,-1.8l2.5,-1.7l2.5,-1.6l2.7,-1.5l2.7,-1.4l2.9,-1.3l3,-1.2l3,-1.1l3.1,-.9l3.1,-.8l3.2,-.7l3.2,-.6l3.2,-.5l3.3,-.3l3.4,-.2h3.2l3.5,.1l3.4,.1l3.4,.4l3.3,.4l3.3,.7l3.3,.7l3.2,.9l3.2,1l3.1,1.1l3,1.3l2.9,1.4l2.9,1.4l2.6,1.6l2.6,1.8l2.6,1.7l2.3,2l2.2,2l2.1,2.1l1.9,2.1l1.8,2.2l1.7,2.4l1.4,2.4l1.3,2.4l1.2,2.5l.9,2.5l.9,2.5l.6,2.6l.5,2.6l.2,2.6l.1,2.7l-.1,2.6l-.3,2.6l-.5,2.6l-.6,2.6l-.8,2.6l-.9,2.5l-1.2,2.5l-1.3,2.4l-1.4,2.3l-1.7,2.4l-1.8,2.2l-1.9,2.2l-2.1,2.1l-2.2,2l-2.4,1.9l-2.5,1.8l-2.6,1.7l-2.7,1.6l-2.8,1.5l-2.9,1.3l-3,1.3l-3.1,1.1l-3.2,1.1l-3.2,.8l-3.3,.8l-3.3,.6l-3.3,.5l-3.4,.3l-3.4,.2l-3.5,.1l-3.4,-.1l-3.4,-.2l-3.4,-.3l-3.3,-.5l-3.3,-.6l-3.3,-.8l-3.2,-.8l-3.2,-1l-3.1,-1.2l-3,-1.2l-2.9,-1.4l-2.9,-1.5L691.1,281l-2.6,-1.7l-2.6,-1.8l-2.3,-1.9l-2.2,-2l-2.1,-2.1l-1.9,-2.2l-1.8,-2.2l-1.7,-2.3l-1.4,-2.4L671.2,260L670,257.5l-.9,-2.5l-.9,-2.6l-.6,-2.6l-.5,-2.6l-.2,-2.6l-.1,-2.6Z" class="g6_1" />
<path d="M666.8,242l.1,-2.6l.2,-2.5l.4,-2.5l.6,-2.5l.8,-2.5l.9,-2.4l1.1,-2.5l1.2,-2.3l1.4,-2.3l1.5,-2.3l1.7,-2.2l1.8,-2.1l1.9,-2l2.2,-2l2.2,-1.9l2.3,-1.8l2.5,-1.7l2.5,-1.6l2.7,-1.5l2.7,-1.4l2.9,-1.3l3,-1.2l3,-1.1l3.1,-.9l3.1,-.8l3.2,-.7l3.2,-.6l3.2,-.5l3.3,-.3l3.4,-.2h3.2l3.5,.1l3.4,.1l3.4,.4l3.3,.4l3.3,.7l3.3,.7l3.2,.9l3.2,1l3.1,1.1l3,1.3l2.9,1.4l2.9,1.4l2.6,1.6l2.6,1.8l2.6,1.7l2.3,2l2.2,2l2.1,2.1l1.9,2.1l1.8,2.2l1.7,2.4l1.4,2.4l1.3,2.4l1.2,2.5l.9,2.5l.9,2.5l.6,2.6l.5,2.6l.2,2.6l.1,2.7l-.1,2.6l-.3,2.6l-.5,2.6l-.6,2.6l-.8,2.6l-.9,2.5l-1.2,2.5l-1.3,2.4l-1.4,2.3l-1.7,2.4l-1.8,2.2l-1.9,2.2l-2.1,2.1l-2.2,2l-2.4,1.9l-2.5,1.8l-2.6,1.7l-2.7,1.6l-2.8,1.5l-2.9,1.3l-3,1.3l-3.1,1.1l-3.2,1.1l-3.2,.8l-3.3,.8l-3.3,.6l-3.3,.5l-3.4,.3l-3.4,.2l-3.5,.1l-3.4,-.1l-3.4,-.2l-3.4,-.3l-3.3,-.5l-3.3,-.6l-3.3,-.8l-3.2,-.8l-3.2,-1l-3.1,-1.2l-3,-1.2l-2.9,-1.4l-2.9,-1.5L691.1,281l-2.6,-1.7l-2.6,-1.8l-2.3,-1.9l-2.2,-2l-2.1,-2.1l-1.9,-2.2l-1.8,-2.2l-1.7,-2.3l-1.4,-2.4L671.2,260L670,257.5l-.9,-2.5l-.9,-2.6l-.6,-2.6l-.5,-2.6l-.2,-2.6l-.1,-2.6Z" class="g7_1" />
<text x="700" y="224" dx="0,0,-0.2,0.1,-0.2,-0.2,0" class="s1_1">Create </text>
<text x="710" y="250" dx="0,0,0.1,0,0,0" class="s1_1">Jinja </text>
<text x="691" y="276" dx="0,-1.9,0.1,0,0,0,-0.1,-0.3" class="s1_1">Template</text>
<path fill-rule="evenodd" d="M209,51.8V50.7l.1,-.6l.1,-.5l.1,-.6l.2,-.5l.2,-.6l.2,-.4l.3,-.6l.2,-.5l.3,-.4l.3,-.5l.4,-.4l.3,-.4l.4,-.5l.5,-.4l.4,-.3l.4,-.4l.5,-.3l.5,-.3l.4,-.2l.6,-.3l.4,-.2l.6,-.2l.5,-.2l.6,-.1l.5,-.1l.6,-.1H353.8l.6,.1l.5,.1l.6,.1l.5,.2l.5,.2l.5,.2l.5,.3l.6,.2l.4,.3l.5,.3l.4,.4l.4,.3l.5,.4l.4,.5l.3,.4l.4,.4l.3,.5l.3,.5l.2,.4l.3,.6l.2,.4l.2,.6l.1,.5l.2,.6l.1,.5v.6l.1,.5V95.7l-.1,.5l-.1,.5l-.1,.6l-.2,.5l-.2,.6l-.2,.5l-.2,.5l-.3,.5l-.3,.5l-.3,.4l-.3,.5l-.4,.4l-.4,.4l-.4,.4l-.5,.4l-.4,.3l-.4,.3l-.5,.3l-.5,.3l-.5,.2l-.5,.2l-.6,.2l-.5,.2l-.6,.1l-.5,.1l-.5,.1h-1.2l-133,.1h-.6l-.5,-.1H218l-.5,-.1l-.6,-.2l-.5,-.1l-.6,-.2l-.4,-.2l-.6,-.3l-.4,-.2l-.5,-.4l-.5,-.3l-.4,-.3l-.4,-.3l-.5,-.4l-.4,-.5l-.3,-.4l-.4,-.4l-.3,-.5l-.3,-.4l-.2,-.6l-.3,-.5l-.2,-.5l-.2,-.5l-.2,-.5l-.1,-.6l-.1,-.5l-.1,-.6V51.8Z" class="g10_1" />
<path d="M209,51.8V50.7l.1,-.6l.1,-.5l.1,-.6l.2,-.5l.2,-.6l.2,-.4l.3,-.6l.2,-.5l.3,-.4l.3,-.5l.4,-.4l.3,-.4l.4,-.5l.5,-.4l.4,-.3l.4,-.4l.5,-.3l.5,-.3l.4,-.2l.6,-.3l.4,-.2l.6,-.2l.5,-.2l.6,-.1l.5,-.1l.6,-.1H353.8l.6,.1l.5,.1l.6,.1l.5,.2l.5,.2l.5,.2l.5,.3l.6,.2l.4,.3l.5,.3l.4,.4l.4,.3l.5,.4l.4,.5l.3,.4l.4,.4l.3,.5l.3,.5l.2,.4l.3,.6l.2,.4l.2,.6l.1,.5l.2,.6l.1,.5v.6l.1,.5V95.7l-.1,.5l-.1,.5l-.1,.6l-.2,.5l-.2,.6l-.2,.5l-.2,.5l-.3,.5l-.3,.5l-.3,.4l-.3,.5l-.4,.4l-.4,.4l-.4,.4l-.5,.4l-.4,.3l-.4,.3l-.5,.3l-.5,.3l-.5,.2l-.5,.2l-.6,.2l-.5,.2l-.6,.1l-.5,.1l-.5,.1h-1.2l-133,.1h-.6l-.5,-.1H218l-.5,-.1l-.6,-.2l-.5,-.1l-.6,-.2l-.4,-.2l-.6,-.3l-.4,-.2l-.5,-.4l-.5,-.3l-.4,-.3l-.4,-.3l-.5,-.4l-.4,-.5l-.3,-.4l-.4,-.4l-.3,-.5l-.3,-.4l-.2,-.6l-.3,-.5l-.2,-.5l-.2,-.5l-.2,-.5l-.1,-.6l-.1,-.5l-.1,-.6V51.8Z" class="g11_1" />
<text x="254" y="68" dx="0,0,0,0.1,0,0.1,0" class="s1_1">Export </text>
<text x="226" y="94" dx="0,0.1,0,-0.2,0,0.1,0,-0.2,-0.4,0.2,0" class="s1_1">Conﬁguration</text>
<path fill-rule="evenodd" d="M678.5,349.3v-1.2l.1,-.6l.2,-.6l.1,-.5l.2,-.6l.1,-.6l.3,-.5l.2,-.5l.3,-.6l.3,-.5l.4,-.5l.3,-.5l.4,-.4l.4,-.4l.5,-.4l.4,-.4l.5,-.4l.5,-.4l.5,-.3l.5,-.2l.5,-.3l.6,-.2l.6,-.2l.5,-.2l.6,-.1l.6,-.1l.6,-.1l.6,-.1h85.6l.6,.1l.6,.1l.6,.1l.5,.1l.6,.2l.6,.2l.5,.2l.5,.3l.6,.2l.5,.3l.5,.4l.5,.4l.4,.4l.4,.4l.4,.4l.4,.4l.4,.5l.4,.5l.3,.5l.2,.6l.3,.5l.2,.5l.2,.6l.2,.6l.1,.5l.1,.6l.1,.6l.1,.6v46.9l-.1,.6l-.1,.6l-.1,.6l-.1,.6l-.2,.5l-.2,.6l-.2,.5l-.3,.6l-.2,.5l-.3,.5l-.4,.5l-.3,.5l-.4,.4l-.5,.5l-.4,.4l-.4,.3l-.5,.4l-.5,.3l-.5,.3l-.5,.3l-.5,.3l-.6,.2l-.6,.2l-.5,.2l-.6,.1l-.6,.2h-.6l-.6,.1H688.7l-.6,-.1l-.6,-.2l-.6,-.1l-.5,-.2l-.6,-.1l-.6,-.3l-.5,-.3l-.5,-.2l-.5,-.3l-.5,-.4l-.5,-.3l-.4,-.4l-.5,-.4l-.4,-.5l-.4,-.4l-.3,-.5l-.3,-.5l-.3,-.5l-.4,-.5l-.2,-.5l-.2,-.6l-.2,-.5l-.2,-.6l-.1,-.6l-.2,-.6v-.6l-.1,-.5V349.3Z" class="g2_1" />
<path d="M678.5,349.3v-1.2l.1,-.6l.2,-.6l.1,-.5l.2,-.6l.1,-.6l.3,-.5l.2,-.5l.3,-.6l.3,-.5l.4,-.5l.3,-.5l.4,-.4l.4,-.4l.5,-.4l.4,-.4l.5,-.4l.5,-.4l.5,-.3l.5,-.2l.5,-.3l.6,-.2l.6,-.2l.5,-.2l.6,-.1l.6,-.1l.6,-.1l.6,-.1h85.6l.6,.1l.6,.1l.6,.1l.5,.1l.6,.2l.6,.2l.5,.2l.5,.3l.6,.2l.5,.3l.5,.4l.5,.4l.4,.4l.4,.4l.4,.4l.4,.4l.4,.5l.4,.5l.3,.5l.2,.6l.3,.5l.2,.5l.2,.6l.2,.6l.1,.5l.1,.6l.1,.6l.1,.6v46.9l-.1,.6l-.1,.6l-.1,.6l-.1,.6l-.2,.5l-.2,.6l-.2,.5l-.3,.6l-.2,.5l-.3,.5l-.4,.5l-.3,.5l-.4,.4l-.5,.5l-.4,.4l-.4,.3l-.5,.4l-.5,.3l-.5,.3l-.5,.3l-.5,.3l-.6,.2l-.6,.2l-.5,.2l-.6,.1l-.6,.2h-.6l-.6,.1H688.7l-.6,-.1l-.6,-.2l-.6,-.1l-.5,-.2l-.6,-.1l-.6,-.3l-.5,-.3l-.5,-.2l-.5,-.3l-.5,-.4l-.5,-.3l-.4,-.4l-.5,-.4l-.4,-.5l-.4,-.4l-.3,-.5l-.3,-.5l-.3,-.5l-.4,-.5l-.2,-.5l-.2,-.6l-.2,-.5l-.2,-.6l-.1,-.6l-.2,-.6v-.6l-.1,-.5V349.3Z" class="g3_1" />
<text x="712" y="367" dx="0,0,0.1,0,0" class="s1_1">Jinja</text>
<text x="691" y="393" dx="0,-1.8,0,0,0.1,0,-0.2,-0.2" class="s1_1">Template</text>
<path d="M732.1,292.3v19.9" class="g9_1" />
<path fill-rule="evenodd" d="M732.2,338L718.4,310.5l27.5,-.1L732.2,338Z" class="g6_1" />
<path fill-rule="evenodd" d="M120,152.4v-1.1l.1,-.6l.1,-.5l.1,-.6l.2,-.5l.2,-.6l.2,-.4l.2,-.6l.3,-.5l.3,-.4l.3,-.5l.3,-.4l.4,-.4l.4,-.5l.4,-.4l.4,-.3l.5,-.4l.4,-.3l.5,-.3l.5,-.2l.5,-.3l.5,-.2l.6,-.2l.5,-.2l.5,-.1l.6,-.1l.5,-.1H250.2l.6,.1l.5,.1l.6,.1l.5,.2l.6,.2l.4,.2l.6,.3l.5,.2l.4,.3l.5,.3l.4,.4l.4,.3l.5,.4l.4,.5l.3,.4l.4,.4l.3,.5l.3,.5l.2,.4l.3,.6l.2,.4l.2,.6l.2,.5l.1,.6l.1,.5l.1,.6v45l-.1,.5l-.1,.6l-.1,.5l-.2,.5l-.2,.6l-.2,.5l-.2,.5l-.3,.5l-.3,.5l-.3,.4l-.3,.5l-.4,.4l-.4,.4l-.4,.4l-.4,.4l-.5,.3l-.4,.3l-.5,.3l-.5,.3l-.5,.2l-.5,.2l-.6,.2l-.5,.2l-.5,.1l-.6,.1l-.5,.1h-1.2l-118.4,.1h-.6l-.6,-.1H129l-.6,-.1l-.5,-.2l-.5,-.1l-.6,-.2l-.5,-.2l-.5,-.3l-.5,-.2l-.5,-.3l-.4,-.4l-.5,-.3l-.4,-.3l-.4,-.4l-.4,-.5l-.4,-.4l-.3,-.4l-.3,-.5l-.3,-.4l-.3,-.6l-.2,-.5l-.2,-.5l-.2,-.5l-.2,-.5l-.1,-.6l-.1,-.5l-.1,-.6V152.4Z" class="g12_1" />
<path d="M120,152.4v-1.1l.1,-.6l.1,-.5l.1,-.6l.2,-.5l.2,-.6l.2,-.4l.2,-.6l.3,-.5l.3,-.4l.3,-.5l.3,-.4l.4,-.4l.4,-.5l.4,-.4l.4,-.3l.5,-.4l.4,-.3l.5,-.3l.5,-.2l.5,-.3l.5,-.2l.6,-.2l.5,-.2l.5,-.1l.6,-.1l.5,-.1H250.2l.6,.1l.5,.1l.6,.1l.5,.2l.6,.2l.4,.2l.6,.3l.5,.2l.4,.3l.5,.3l.4,.4l.4,.3l.5,.4l.4,.5l.3,.4l.4,.4l.3,.5l.3,.5l.2,.4l.3,.6l.2,.4l.2,.6l.2,.5l.1,.6l.1,.5l.1,.6v45l-.1,.5l-.1,.6l-.1,.5l-.2,.5l-.2,.6l-.2,.5l-.2,.5l-.3,.5l-.3,.5l-.3,.4l-.3,.5l-.4,.4l-.4,.4l-.4,.4l-.4,.4l-.5,.3l-.4,.3l-.5,.3l-.5,.3l-.5,.2l-.5,.2l-.6,.2l-.5,.2l-.5,.1l-.6,.1l-.5,.1h-1.2l-118.4,.1h-.6l-.6,-.1H129l-.6,-.1l-.5,-.2l-.5,-.1l-.6,-.2l-.5,-.2l-.5,-.3l-.5,-.2l-.5,-.3l-.4,-.4l-.5,-.3l-.4,-.3l-.4,-.4l-.4,-.5l-.4,-.4l-.3,-.4l-.3,-.5l-.3,-.4l-.3,-.6l-.2,-.5l-.2,-.5l-.2,-.5l-.2,-.5l-.1,-.6l-.1,-.5l-.1,-.6V152.4Z" class="g13_1" />
<text x="127" y="169" dx="0,0,-0.2,0.1,0,0,-0.3,0.1,-0.1,0.1,0.1,0,0,0" class="s4_1">Pre-Processor </text>
<text x="158" y="195" dx="0,0,0.1,0,0,0,0.1" class="s4_1">Classes</text>
<path fill-rule="evenodd" d="M427.7,152.4v-1.1l.1,-.6l.1,-.5l.1,-.6l.2,-.5l.2,-.6l.2,-.4l.2,-.6l.3,-.5l.3,-.4l.3,-.5l.3,-.4l.4,-.4l.4,-.5l.4,-.4l.4,-.3l.5,-.4l.4,-.3l.5,-.3l.5,-.2l.5,-.3l.5,-.2l.6,-.2l.5,-.2l.5,-.1l.6,-.1l.5,-.1h85.1l.5,.1l.6,.1l.5,.1l.5,.2l.6,.2l.5,.2l.5,.3l.5,.2l.5,.3l.4,.3l.5,.4l.4,.3l.4,.4l.4,.5l.4,.4l.3,.4l.3,.5l.3,.5l.3,.4l.2,.6l.3,.4l.1,.6l.2,.5l.1,.6l.1,.5l.1,.6l.1,.5v44.5l-.1,.5l-.1,.6l-.1,.5l-.2,.5l-.2,.6l-.2,.5l-.3,.5l-.2,.5l-.3,.5l-.3,.4l-.4,.5l-.3,.4l-.4,.4l-.5,.4l-.4,.4l-.4,.3l-.5,.3l-.4,.3l-.5,.3l-.6,.2l-.4,.2l-.6,.2l-.5,.2l-.6,.1l-.5,.1l-.6,.1h-1.1l-82.8,.1h-.6l-.6,-.1h-.5l-.6,-.1l-.5,-.2l-.5,-.1l-.6,-.2L434,205l-.5,-.3l-.5,-.2l-.5,-.3l-.4,-.4l-.5,-.3l-.4,-.3l-.4,-.4l-.4,-.5l-.4,-.4l-.3,-.4l-.3,-.5l-.3,-.4l-.3,-.6l-.2,-.5l-.2,-.5l-.2,-.5L428,198l-.1,-.6l-.1,-.5l-.1,-.6V152.4Z" class="g12_1" />
<path d="M427.7,152.4v-1.1l.1,-.6l.1,-.5l.1,-.6l.2,-.5l.2,-.6l.2,-.4l.2,-.6l.3,-.5l.3,-.4l.3,-.5l.3,-.4l.4,-.4l.4,-.5l.4,-.4l.4,-.3l.5,-.4l.4,-.3l.5,-.3l.5,-.2l.5,-.3l.5,-.2l.6,-.2l.5,-.2l.5,-.1l.6,-.1l.5,-.1h85.1l.5,.1l.6,.1l.5,.1l.5,.2l.6,.2l.5,.2l.5,.3l.5,.2l.5,.3l.4,.3l.5,.4l.4,.3l.4,.4l.4,.5l.4,.4l.3,.4l.3,.5l.3,.5l.3,.4l.2,.6l.3,.4l.1,.6l.2,.5l.1,.6l.1,.5l.1,.6l.1,.5v44.5l-.1,.5l-.1,.6l-.1,.5l-.2,.5l-.2,.6l-.2,.5l-.3,.5l-.2,.5l-.3,.5l-.3,.4l-.4,.5l-.3,.4l-.4,.4l-.5,.4l-.4,.4l-.4,.3l-.5,.3l-.4,.3l-.5,.3l-.6,.2l-.4,.2l-.6,.2l-.5,.2l-.6,.1l-.5,.1l-.6,.1h-1.1l-82.8,.1h-.6l-.6,-.1h-.5l-.6,-.1l-.5,-.2l-.5,-.1l-.6,-.2L434,205l-.5,-.3l-.5,-.2l-.5,-.3l-.4,-.4l-.5,-.3l-.4,-.3l-.4,-.4l-.4,-.5l-.4,-.4l-.3,-.4l-.3,-.5l-.3,-.4l-.3,-.6l-.2,-.5l-.2,-.5l-.2,-.5L428,198l-.1,-.6l-.1,-.5l-.1,-.6V152.4Z" class="g13_1" />
<text x="454" y="169" dx="0,0,0.1,0,-0.2,0,0" class="s4_1">Filter </text>
<text x="437" y="195" dx="0,0,0,0.1,-0.1,0.2,0,0.1" class="s4_1">Functions</text>
<path fill-rule="evenodd" d="M517.7,52.3v-.6l.1,-.6l.1,-.5l.1,-.5l.1,-.6l.2,-.5l.1,-.6l.2,-.5l.3,-.5l.3,-.5l.3,-.5l.3,-.4l.3,-.4l.4,-.5l.4,-.4l.4,-.4l.4,-.3l.5,-.4l.4,-.3l.5,-.3l.5,-.3l.5,-.2l.5,-.2l.5,-.2l.6,-.2l.5,-.1l.5,-.1l.6,-.1H663.6l.6,.1l.5,.1l.5,.1l.6,.2l.5,.2l.5,.2l.5,.2l.5,.3l.5,.3l.4,.3l.5,.4l.4,.3l.4,.4l.4,.4l.4,.5l.3,.4l.3,.4l.3,.5l.3,.5l.3,.5l.2,.5l.1,.6l.2,.5l.1,.6l.1,.5l.1,.5l.1,.6V96.1l-.1,.6l-.1,.5l-.1,.6l-.2,.5l-.2,.6l-.2,.4l-.3,.6l-.2,.4l-.3,.6l-.3,.4l-.4,.4l-.3,.5l-.4,.4l-.4,.4l-.5,.3l-.4,.4l-.4,.3l-.5,.3l-.5,.2l-.6,.3l-.4,.2l-.6,.2l-.5,.2l-.6,.1l-.5,.1l-.6,.1h-1.1l-134.1,.1h-.5l-.6,-.1l-.6,-.1l-.5,-.1l-.5,-.1l-.6,-.2l-.5,-.1l-.5,-.3l-.5,-.2l-.5,-.3l-.5,-.3l-.4,-.3l-.5,-.3l-.4,-.4l-.4,-.4l-.4,-.4l-.4,-.4l-.3,-.5l-.3,-.4l-.3,-.5l-.3,-.5l-.3,-.5l-.2,-.5l-.1,-.5l-.2,-.6l-.1,-.5l-.1,-.6l-.1,-.5l-.1,-.6V52.3Z" class="g12_1" />
<path d="M517.7,52.3v-.6l.1,-.6l.1,-.5l.1,-.5l.1,-.6l.2,-.5l.1,-.6l.2,-.5l.3,-.5l.3,-.5l.3,-.5l.3,-.4l.3,-.4l.4,-.5l.4,-.4l.4,-.4l.4,-.3l.5,-.4l.4,-.3l.5,-.3l.5,-.3l.5,-.2l.5,-.2l.5,-.2l.6,-.2l.5,-.1l.5,-.1l.6,-.1H663.6l.6,.1l.5,.1l.5,.1l.6,.2l.5,.2l.5,.2l.5,.2l.5,.3l.5,.3l.4,.3l.5,.4l.4,.3l.4,.4l.4,.4l.4,.5l.3,.4l.3,.4l.3,.5l.3,.5l.3,.5l.2,.5l.1,.6l.2,.5l.1,.6l.1,.5l.1,.5l.1,.6V96.1l-.1,.6l-.1,.5l-.1,.6l-.2,.5l-.2,.6l-.2,.4l-.3,.6l-.2,.4l-.3,.6l-.3,.4l-.4,.4l-.3,.5l-.4,.4l-.4,.4l-.5,.3l-.4,.4l-.4,.3l-.5,.3l-.5,.2l-.6,.3l-.4,.2l-.6,.2l-.5,.2l-.6,.1l-.5,.1l-.6,.1h-1.1l-134.1,.1h-.5l-.6,-.1l-.6,-.1l-.5,-.1l-.5,-.1l-.6,-.2l-.5,-.1l-.5,-.3l-.5,-.2l-.5,-.3l-.5,-.3l-.4,-.3l-.5,-.3l-.4,-.4l-.4,-.4l-.4,-.4l-.4,-.4l-.3,-.5l-.3,-.4l-.3,-.5l-.3,-.5l-.3,-.5l-.2,-.5l-.1,-.5l-.2,-.6l-.1,-.5l-.1,-.6l-.1,-.5l-.1,-.6V52.3Z" class="g13_1" />
<text x="562" y="82" dx="0,0.1,0.1,0,0.1,0,0.1,0.1" class="s4_1">Outline </text>
<path fill-rule="evenodd" d="M556.3,99.7V98.5l.1,-.5l.1,-.6l.1,-.5l.2,-.5l.2,-.6l.2,-.5l.2,-.5l.3,-.5l.3,-.5l.3,-.4l.4,-.5l.3,-.4l.4,-.4l.4,-.4l.5,-.4l.4,-.3l.4,-.3l.5,-.3l.5,-.3l.5,-.2l.5,-.3l.6,-.1l.5,-.2l.6,-.1l.5,-.1l.6,-.1H702.1l.6,.1l.5,.1l.6,.1l.5,.2l.6,.1l.4,.3l.6,.2l.5,.3l.5,.3l.4,.3l.4,.3l.5,.4l.4,.4l.4,.4l.3,.4l.4,.5l.3,.4l.3,.5l.2,.5l.3,.5l.2,.5l.2,.6l.2,.5l.1,.5l.1,.6l.1,.5v1.2l.1,42.7v.6l-.1,.5l-.1,.6l-.1,.5l-.1,.6l-.2,.5l-.1,.5l-.3,.5l-.2,.5l-.3,.5l-.3,.5l-.3,.5l-.3,.4l-.4,.4l-.4,.5l-.4,.4l-.4,.3l-.5,.4l-.4,.3l-.5,.3l-.5,.2l-.5,.3l-.5,.2l-.6,.2l-.5,.1l-.5,.2l-.6,.1h-.5l-.6,.1H565.9l-.6,-.1l-.5,-.1l-.6,-.1l-.5,-.2l-.6,-.2l-.5,-.2l-.5,-.2l-.5,-.3l-.5,-.3l-.4,-.3l-.4,-.3l-.5,-.4l-.4,-.4l-.4,-.4l-.3,-.4l-.4,-.5l-.3,-.4l-.3,-.5l-.3,-.5l-.2,-.5l-.2,-.5l-.2,-.6l-.2,-.5l-.1,-.6l-.1,-.5l-.1,-.5V99.7Z" class="g12_1" />
<path d="M556.3,99.7V98.5l.1,-.5l.1,-.6l.1,-.5l.2,-.5l.2,-.6l.2,-.5l.2,-.5l.3,-.5l.3,-.5l.3,-.4l.4,-.5l.3,-.4l.4,-.4l.4,-.4l.5,-.4l.4,-.3l.4,-.3l.5,-.3l.5,-.3l.5,-.2l.5,-.3l.6,-.1l.5,-.2l.6,-.1l.5,-.1l.6,-.1H702.1l.6,.1l.5,.1l.6,.1l.5,.2l.6,.1l.4,.3l.6,.2l.5,.3l.5,.3l.4,.3l.4,.3l.5,.4l.4,.4l.4,.4l.3,.4l.4,.5l.3,.4l.3,.5l.2,.5l.3,.5l.2,.5l.2,.6l.2,.5l.1,.5l.1,.6l.1,.5v1.2l.1,42.7v.6l-.1,.5l-.1,.6l-.1,.5l-.1,.6l-.2,.5l-.1,.5l-.3,.5l-.2,.5l-.3,.5l-.3,.5l-.3,.5l-.3,.4l-.4,.4l-.4,.5l-.4,.4l-.4,.3l-.5,.4l-.4,.3l-.5,.3l-.5,.2l-.5,.3l-.5,.2l-.6,.2l-.5,.1l-.5,.2l-.6,.1h-.5l-.6,.1H565.9l-.6,-.1l-.5,-.1l-.6,-.1l-.5,-.2l-.6,-.2l-.5,-.2l-.5,-.2l-.5,-.3l-.5,-.3l-.4,-.3l-.4,-.3l-.5,-.4l-.4,-.4l-.4,-.4l-.3,-.4l-.4,-.5l-.3,-.4l-.3,-.5l-.3,-.5l-.2,-.5l-.2,-.5l-.2,-.6l-.2,-.5l-.1,-.6l-.1,-.5l-.1,-.5V99.7Z" class="g13_1" />
<text x="590" y="129" dx="0,0,0.1,0.1,0,0.1,-0.2,0.1" class="s4_1">Segments</text>
<path d="M189.9,205.9l29.3,39.7" class="g14_1" />
<path fill-rule="evenodd" d="M234.4,266.3L207,252.3l22.2,-16.4l5.2,30.4Z" class="g12_1" />
<path d="M531.9,173.8H625V381.1" class="g14_1" />
<path fill-rule="evenodd" d="M625,406.8L611.2,379.2h27.5L625,406.8Z" class="g12_1" />
<path d="M711.8,121h20.3v45.1" class="g14_1" />
<path fill-rule="evenodd" d="M732.1,191.8L718.3,164.3h27.6l-13.8,27.5Z" class="g12_1" />
<path d="M673.2,73.7h58.9v92.4" class="g14_1" />
<path fill-rule="evenodd" d="M732.1,191.8L718.3,164.3h27.6l-13.8,27.5Z" class="g12_1" />
<path d="M363.5,73.2l128.6,.4" class="g15_1" />
<path fill-rule="evenodd" d="M517.8,73.7L490.2,87.4l.1,-27.6l27.5,13.9Z" class="g10_1" />
<path d="M363.5,73.2h48.3v36.1" class="g15_1" />
<path fill-rule="evenodd" d="M411.8,135L398,107.5h27.5L411.8,135Z" class="g10_1" />
<path fill-rule="evenodd" d="M400.1,495.5v-.7l.1,-.7l.1,-.7l.1,-.6l.1,-.7l.3,-.6l.2,-.7l.2,-.6l.3,-.7l.4,-.6l.3,-.6l.4,-.5l.5,-.6l.4,-.5l.5,-.5l.5,-.5l.5,-.4l.6,-.5l.5,-.4l.6,-.3l.6,-.4l.7,-.3l.6,-.2l.7,-.2l.6,-.3l.7,-.1l.6,-.1l.7,-.1l.7,-.1h92.6l.7,.1l.7,.1l.6,.1l.7,.1l.7,.3l.6,.2l.7,.2l.6,.3l.6,.4l.6,.3l.5,.4l.6,.5l.5,.4l.5,.5l.5,.5l.4,.5l.5,.6l.4,.5l.3,.6l.4,.6l.3,.7l.2,.6l.2,.7l.3,.6l.1,.7l.1,.6l.1,.7l.1,.7v54.3l-.1,.7l-.1,.7l-.1,.7l-.1,.7l-.3,.6l-.2,.7l-.2,.6l-.3,.6l-.4,.6l-.3,.6l-.4,.6l-.5,.6l-.4,.5l-.5,.5l-.5,.4l-.5,.5l-.5,.4l-.6,.4l-.6,.4l-.6,.3l-.6,.3l-.7,.2l-.6,.3l-.7,.2l-.6,.1l-.7,.2l-.7,.1l-.7,.1H412.6l-.7,-.1l-.7,-.1l-.6,-.2l-.7,-.1l-.6,-.2l-.7,-.2l-.6,-.3l-.7,-.3l-.6,-.3l-.6,-.4l-.5,-.4l-.6,-.4l-.5,-.4l-.5,-.5l-.5,-.5l-.4,-.5l-.4,-.6l-.4,-.5l-.4,-.6l-.3,-.6l-.3,-.6l-.3,-.7l-.2,-.6l-.2,-.7l-.2,-.7l-.1,-.6l-.1,-.7l-.1,-.7V495.5Z" class="g2_1" />
<path d="M400.1,495.5v-.7l.1,-.7l.1,-.7l.1,-.6l.1,-.7l.3,-.6l.2,-.7l.2,-.6l.3,-.7l.4,-.6l.3,-.6l.4,-.5l.5,-.6l.4,-.5l.5,-.5l.5,-.5l.5,-.4l.6,-.5l.5,-.4l.6,-.3l.6,-.4l.7,-.3l.6,-.2l.7,-.2l.6,-.3l.7,-.1l.6,-.1l.7,-.1l.7,-.1h92.6l.7,.1l.7,.1l.6,.1l.7,.1l.7,.3l.6,.2l.7,.2l.6,.3l.6,.4l.6,.3l.5,.4l.6,.5l.5,.4l.5,.5l.5,.5l.4,.5l.5,.6l.4,.5l.3,.6l.4,.6l.3,.7l.2,.6l.2,.7l.3,.6l.1,.7l.1,.6l.1,.7l.1,.7v54.3l-.1,.7l-.1,.7l-.1,.7l-.1,.7l-.3,.6l-.2,.7l-.2,.6l-.3,.6l-.4,.6l-.3,.6l-.4,.6l-.5,.6l-.4,.5l-.5,.5l-.5,.4l-.5,.5l-.5,.4l-.6,.4l-.6,.4l-.6,.3l-.6,.3l-.7,.2l-.6,.3l-.7,.2l-.6,.1l-.7,.2l-.7,.1l-.7,.1H412.6l-.7,-.1l-.7,-.1l-.6,-.2l-.7,-.1l-.6,-.2l-.7,-.2l-.6,-.3l-.7,-.3l-.6,-.3l-.6,-.4l-.5,-.4l-.6,-.4l-.5,-.4l-.5,-.5l-.5,-.5l-.4,-.5l-.4,-.6l-.4,-.5l-.4,-.6l-.3,-.6l-.3,-.6l-.3,-.7l-.2,-.6l-.2,-.7l-.2,-.7l-.1,-.6l-.1,-.7l-.1,-.7V495.5Z" class="g3_1" />
<text x="430" y="509" dx="0,0,0.1,0.1,0,0.1" class="s1_1">Other </text>
<text x="436" y="535" dx="0,0,0,0,0.1,0.1" class="s1_1">Files </text>
<text x="425" y="553" dx="0,0.1,-0.1,0.1,0,0.1,-0.1,0.2,0.1,0,0.2" class="s2_1">(images, …)</text>
<path d="M400.1,522L375.7,495.6" class="g8_1" />
<path fill-rule="evenodd" d="M358.3,476.7l28.8,10.9l-20.2,18.7l-8.6,-29.6Z" class="g2_1" />
<path d="M559.5,477.9l-24.1,25.4" class="g9_1" />
<path fill-rule="evenodd" d="M517.7,522l9,-29.5l20,19l-29,10.5Z" class="g6_1" />
<path fill-rule="evenodd" d="M517.8,254.4v-.9l.1,-.4l.1,-.4l.1,-.4l.1,-.5l.1,-.4l.2,-.4l.2,-.4l.2,-.4l.2,-.3l.2,-.4l.3,-.3l.3,-.4l.3,-.3l.3,-.3l.4,-.2l.3,-.3l.3,-.2l.4,-.3l.4,-.2l.4,-.1l.4,-.2l.4,-.2l.4,-.1l.4,-.1l.5,-.1h.4l.4,-.1h79.7l.4,.1h.5l.4,.1l.4,.1l.4,.1l.4,.2l.4,.2l.4,.1l.4,.2l.4,.3l.3,.2l.4,.3l.3,.2l.3,.3l.3,.3l.3,.4l.3,.3l.2,.4l.2,.4l.2,.3l.2,.4l.2,.4l.2,.4v.5l.2,.4l.1,.4v1.3l.1,33v.5l-.1,.4v.4l-.1,.5l-.1,.4l-.1,.4l-.2,.4l-.2,.4l-.1,.4l-.2,.3l-.3,.4l-.2,.4l-.3,.3l-.2,.4l-.3,.3l-.3,.3l-.4,.2l-.3,.3l-.4,.3l-.3,.2l-.4,.2l-.4,.2l-.4,.1l-.4,.2l-.5,.1l-.4,.1l-.4,.1l-.4,.1h-81l-.5,-.1l-.4,-.2h-.4l-.4,-.2l-.4,-.2l-.4,-.2l-.4,-.2l-.4,-.2l-.3,-.2l-.3,-.3l-.4,-.3l-.3,-.3l-.3,-.3l-.3,-.3l-.3,-.4l-.2,-.3l-.2,-.4l-.2,-.4l-.2,-.3l-.2,-.5l-.1,-.4l-.1,-.4l-.1,-.4l-.1,-.4l-.1,-.5V254.4Z" class="g5_1" />
<path d="M517.8,254.4v-.9l.1,-.4l.1,-.4l.1,-.4l.1,-.5l.1,-.4l.2,-.4l.2,-.4l.2,-.4l.2,-.3l.2,-.4l.3,-.3l.3,-.4l.3,-.3l.3,-.3l.4,-.2l.3,-.3l.3,-.2l.4,-.3l.4,-.2l.4,-.1l.4,-.2l.4,-.2l.4,-.1l.4,-.1l.5,-.1h.4l.4,-.1h79.7l.4,.1h.5l.4,.1l.4,.1l.4,.1l.4,.2l.4,.2l.4,.1l.4,.2l.4,.3l.3,.2l.4,.3l.3,.2l.3,.3l.3,.3l.3,.4l.3,.3l.2,.4l.2,.4l.2,.3l.2,.4l.2,.4l.2,.4v.5l.2,.4l.1,.4v1.3l.1,33v.5l-.1,.4v.4l-.1,.5l-.1,.4l-.1,.4l-.2,.4l-.2,.4l-.1,.4l-.2,.3l-.3,.4l-.2,.4l-.3,.3l-.2,.4l-.3,.3l-.3,.3l-.4,.2l-.3,.3l-.4,.3l-.3,.2l-.4,.2l-.4,.2l-.4,.1l-.4,.2l-.5,.1l-.4,.1l-.4,.1l-.4,.1h-81l-.5,-.1l-.4,-.2h-.4l-.4,-.2l-.4,-.2l-.4,-.2l-.4,-.2l-.4,-.2l-.3,-.2l-.3,-.3l-.4,-.3l-.3,-.3l-.3,-.3l-.3,-.3l-.3,-.4l-.2,-.3l-.2,-.4l-.2,-.4l-.2,-.3l-.2,-.5l-.1,-.4l-.1,-.4l-.1,-.4l-.1,-.4l-.1,-.5V254.4Z" class="g16_1" />
<text x="528" y="268" dx="0,0.2,-0.1,0.2,-0.1,0.1,0.1,0.1,-0.3,0.1,0.1,-0.2,0.1" class="s2_1">bibliography </text>
<text x="556" y="285" dx="0,0,-0.2" class="s2_1">etc</text>
<path fill-rule="evenodd" d="M269.2,151.9v-.5l.1,-.6l.1,-.6l.1,-.5l.1,-.5l.2,-.6l.1,-.5l.2,-.5l.3,-.5l.3,-.5l.3,-.5l.3,-.5l.3,-.4l.4,-.4l.4,-.5l.4,-.3l.4,-.4l.5,-.3l.4,-.3l.5,-.3l.5,-.3l.5,-.3l.5,-.2l.5,-.2l.6,-.1l.5,-.2h.5l.6,-.1l.6,-.1H411l.6,.1l.6,.1h.5l.5,.2l.6,.1l.5,.2l.5,.2l.5,.3l.5,.3l.5,.3l.4,.3l.5,.3l.4,.4l.4,.3l.4,.5l.4,.4l.3,.4l.3,.5l.3,.5l.3,.5l.3,.5l.2,.5l.1,.5l.2,.6l.1,.5l.1,.5l.1,.6l.1,.6v44.4l-.1,.6l-.1,.5l-.1,.5l-.2,.6l-.2,.5l-.2,.5l-.3,.5l-.2,.5l-.3,.5l-.3,.4l-.4,.5l-.3,.4l-.4,.4l-.4,.4l-.5,.4l-.4,.3l-.4,.3l-.5,.3l-.5,.3l-.6,.3l-.4,.2l-.6,.1l-.5,.2l-.6,.1l-.5,.1l-.6,.1l-.5,.1H278.8l-.6,-.1l-.5,-.1l-.5,-.1l-.6,-.2l-.5,-.2l-.5,-.2l-.5,-.3l-.5,-.2l-.5,-.3l-.4,-.3l-.5,-.4l-.4,-.3l-.4,-.4l-.4,-.4l-.4,-.5l-.3,-.4l-.3,-.4l-.3,-.5l-.3,-.5l-.3,-.6l-.2,-.4l-.1,-.6l-.2,-.5l-.1,-.6l-.1,-.5l-.1,-.6l-.1,-.5V151.9Z" class="g12_1" />
<path d="M269.2,151.9v-.5l.1,-.6l.1,-.6l.1,-.5l.1,-.5l.2,-.6l.1,-.5l.2,-.5l.3,-.5l.3,-.5l.3,-.5l.3,-.5l.3,-.4l.4,-.4l.4,-.5l.4,-.3l.4,-.4l.5,-.3l.4,-.3l.5,-.3l.5,-.3l.5,-.3l.5,-.2l.5,-.2l.6,-.1l.5,-.2h.5l.6,-.1l.6,-.1H411l.6,.1l.6,.1h.5l.5,.2l.6,.1l.5,.2l.5,.2l.5,.3l.5,.3l.5,.3l.4,.3l.5,.3l.4,.4l.4,.3l.4,.5l.4,.4l.3,.4l.3,.5l.3,.5l.3,.5l.3,.5l.2,.5l.1,.5l.2,.6l.1,.5l.1,.5l.1,.6l.1,.6v44.4l-.1,.6l-.1,.5l-.1,.5l-.2,.6l-.2,.5l-.2,.5l-.3,.5l-.2,.5l-.3,.5l-.3,.4l-.4,.5l-.3,.4l-.4,.4l-.4,.4l-.5,.4l-.4,.3l-.4,.3l-.5,.3l-.5,.3l-.6,.3l-.4,.2l-.6,.1l-.5,.2l-.6,.1l-.5,.1l-.6,.1l-.5,.1H278.8l-.6,-.1l-.5,-.1l-.5,-.1l-.6,-.2l-.5,-.2l-.5,-.2l-.5,-.3l-.5,-.2l-.5,-.3l-.4,-.3l-.5,-.4l-.4,-.3l-.4,-.4l-.4,-.4l-.4,-.5l-.3,-.4l-.3,-.4l-.3,-.5l-.3,-.5l-.3,-.6l-.2,-.4l-.1,-.6l-.2,-.5l-.1,-.6l-.1,-.5l-.1,-.6l-.1,-.5V151.9Z" class="g13_1" />
<text x="278" y="168" dx="0,-0.3,0,-0.2,-0.6,0.1,0,-0.3,0,0.1,0.1,0,0,0.1,0" class="s4_1">Post-Processor </text>
<text x="313" y="194" dx="0,0.1,0,0,0.1,0,0.1" class="s4_1">Classes</text>
<path d="M345.1,205.4l-7.7,197.2" class="g14_1" />
<path fill-rule="evenodd" d="M336.4,428.3L323.7,400.2l27.5,1.1l-14.8,27Z" class="g12_1" />
<path fill-rule="evenodd" d="M213.1,314.7l.1,-3.5l.3,-3.5l.4,-3.4l.7,-3.4l.8,-3.4l1,-3.3l1.2,-3.3l1.4,-3.3l1.5,-3.1l1.7,-3l1.9,-3l2,-2.9l2.2,-2.9l2.3,-2.6l2.5,-2.6l2.6,-2.5l2.7,-2.3l2.8,-2.2l3,-2l3.1,-1.9l3.1,-1.8l3.3,-1.6l3.3,-1.5l3.4,-1.3l3.5,-1.1l3.6,-.9l3.6,-.8l3.6,-.7l3.6,-.4l3.7,-.3h7.5l3.7,.3l3.8,.5l3.7,.7l3.7,.8l3.6,1l3.6,1.2l3.5,1.4l3.5,1.5l3.3,1.7l3.2,1.9l3.2,2l3,2.2l2.9,2.3l2.7,2.5l2.6,2.6l2.5,2.7l2.3,2.9l2.2,2.9l1.9,3.1l1.9,3.1l1.6,3.3l1.4,3.3l1.3,3.4l1.1,3.4l.9,3.5l.7,3.5l.5,3.6l.3,3.5l.1,3.6l-.1,3.6l-.3,3.6l-.5,3.5l-.7,3.6l-.9,3.4l-1.1,3.5l-1.2,3.4l-1.5,3.3l-1.6,3.2l-1.8,3.2l-2,3l-2.2,3l-2.3,2.8l-2.4,2.7l-2.7,2.6l-2.7,2.5l-2.9,2.4l-3,2.2l-3.2,2l-3.2,1.9l-3.3,1.6l-3.5,1.6l-3.5,1.4l-3.5,1.2l-3.7,1l-3.7,.8l-3.7,.7l-3.8,.4l-3.7,.4h-7.7l-3.7,-.4l-3.8,-.4l-3.7,-.7l-3.7,-.8l-3.7,-1l-3.5,-1.2l-3.5,-1.4l-3.5,-1.5L249.4,374l-3.2,-1.9l-3.2,-2l-3,-2.2l-2.9,-2.3l-2.8,-2.5l-2.6,-2.6l-2.4,-2.7l-2.4,-2.9L224.8,352l-2,-3.1L221,345.8l-1.6,-3.3l-1.5,-3.3l-1.3,-3.4l-1.1,-3.4l-.8,-3.5l-.7,-3.5l-.5,-3.6l-.3,-3.5l-.1,-3.6Z" class="g6_1" />
<path d="M213.1,314.7l.1,-3.5l.3,-3.5l.4,-3.4l.7,-3.4l.8,-3.4l1,-3.3l1.2,-3.3l1.4,-3.3l1.5,-3.1l1.7,-3l1.9,-3l2,-2.9l2.2,-2.9l2.3,-2.6l2.5,-2.6l2.6,-2.5l2.7,-2.3l2.8,-2.2l3,-2l3.1,-1.9l3.1,-1.8l3.3,-1.6l3.3,-1.5l3.4,-1.3l3.5,-1.1l3.6,-.9l3.6,-.8l3.6,-.7l3.6,-.4l3.7,-.3h7.5l3.7,.3l3.8,.5l3.7,.7l3.7,.8l3.6,1l3.6,1.2l3.5,1.4l3.5,1.5l3.3,1.7l3.2,1.9l3.2,2l3,2.2l2.9,2.3l2.7,2.5l2.6,2.6l2.5,2.7l2.3,2.9l2.2,2.9l1.9,3.1l1.9,3.1l1.6,3.3l1.4,3.3l1.3,3.4l1.1,3.4l.9,3.5l.7,3.5l.5,3.6l.3,3.5l.1,3.6l-.1,3.6l-.3,3.6l-.5,3.5l-.7,3.6l-.9,3.4l-1.1,3.5l-1.2,3.4l-1.5,3.3l-1.6,3.2l-1.8,3.2l-2,3l-2.2,3l-2.3,2.8l-2.4,2.7l-2.7,2.6l-2.7,2.5l-2.9,2.4l-3,2.2l-3.2,2l-3.2,1.9l-3.3,1.6l-3.5,1.6l-3.5,1.4l-3.5,1.2l-3.7,1l-3.7,.8l-3.7,.7l-3.8,.4l-3.7,.4h-7.7l-3.7,-.4l-3.8,-.4l-3.7,-.7l-3.7,-.8l-3.7,-1l-3.5,-1.2l-3.5,-1.4l-3.5,-1.5L249.4,374l-3.2,-1.9l-3.2,-2l-3,-2.2l-2.9,-2.3l-2.8,-2.5l-2.6,-2.6l-2.4,-2.7l-2.4,-2.9L224.8,352l-2,-3.1L221,345.8l-1.6,-3.3l-1.5,-3.3l-1.3,-3.4l-1.1,-3.4l-.8,-3.5l-.7,-3.5l-.5,-3.6l-.3,-3.5l-.1,-3.6Z" class="g7_1" />
<text x="244" y="297" dx="0,0.1,0.1,-0.2,0,0.1,0,0" class="s1_1">Merge &amp; </text>
<text x="240" y="323" dx="0,0.1,0,0,0.1,-0.1,0.2,0,-0.2,0.1" class="s1_1">Apply Pre-</text>
<text x="238" y="349" dx="0,0,-0.3,0,0.1,0.1,0,0.1,0,-0.3" class="s1_1">Processors</text>


<!-- Any embedded fonts defined here -->
<style type="text/css" ><![CDATA[

@font-face {
	font-family: Carlito_9;
	src: url("fonts/Carlito_9.woff") format("woff");
}

]]></style>

</svg>
